<?xml version="1.0" encoding="utf-8" standalone="no"?>
<!DOCTYPE svg PUBLIC "-//W3C//DTD SVG 1.1//EN"
  "http://www.w3.org/Graphics/SVG/1.1/DTD/svg11.dtd">
<svg xmlns:xlink="http://www.w3.org/1999/xlink" width="432pt" height="252pt" viewBox="0 0 432 252" xmlns="http://www.w3.org/2000/svg" version="1.1">
 <metadata>
  <rdf:RDF xmlns:dc="http://purl.org/dc/elements/1.1/" xmlns:cc="http://creativecommons.org/ns#" xmlns:rdf="http://www.w3.org/1999/02/22-rdf-syntax-ns#">
   <cc:Work>
    <dc:type rdf:resource="http://purl.org/dc/dcmitype/StillImage"/>
    <dc:date>2022-12-21T06:22:35.591357</dc:date>
    <dc:format>image/svg+xml</dc:format>
    <dc:creator>
     <cc:Agent>
      <dc:title>Matplotlib v3.5.1, https://matplotlib.org/</dc:title>
     </cc:Agent>
    </dc:creator>
   </cc:Work>
  </rdf:RDF>
 </metadata>
 <defs>
  <style type="text/css">*{stroke-linejoin: round; stroke-linecap: butt}</style>
 </defs>
 <g id="figure_1">
  <g id="patch_1">
   <path d="M 0 252 
L 432 252 
L 432 0 
L 0 0 
z
" style="fill: #ffffff"/>
  </g>
  <g id="axes_1">
   <g id="patch_2">
    <path d="M 206.181818 127.26 
C 206.181818 117.267833 204.213579 107.372828 200.389743 98.14127 
C 196.565906 88.909712 190.960836 80.521131 183.895307 73.455602 
C 176.829778 66.390073 168.441198 60.785003 159.209639 56.961166 
C 149.978081 53.13733 140.083076 51.169091 130.090909 51.169091 
C 120.098742 51.169091 110.203737 53.13733 100.972179 56.961166 
C 91.740621 60.785003 83.35204 66.390073 76.286511 73.455602 
C 69.220983 80.521131 63.615912 88.909712 59.792076 98.14127 
C 55.968239 107.372828 54 117.267833 54 127.26 
C 54 137.252167 55.968239 147.147172 59.792076 156.37873 
C 63.615912 165.610288 69.220983 173.998869 76.286511 181.064398 
C 83.35204 188.129927 91.740621 193.734997 100.972179 197.558834 
C 110.203737 201.38267 120.098742 203.350909 130.090909 203.350909 
C 140.083076 203.350909 149.978081 201.38267 159.209639 197.558834 
C 168.441198 193.734997 176.829778 188.129927 183.895307 181.064398 
C 190.960836 173.998869 196.565906 165.610288 200.389743 156.37873 
C 204.213579 147.147172 206.181818 137.252167 206.181818 127.26 
M 130.090909 127.26 
C 130.090909 127.26 130.090909 127.26 130.090909 127.26 
C 130.090909 127.26 130.090909 127.26 130.090909 127.26 
C 130.090909 127.26 130.090909 127.26 130.090909 127.26 
C 130.090909 127.26 130.090909 127.26 130.090909 127.26 
C 130.090909 127.26 130.090909 127.26 130.090909 127.26 
C 130.090909 127.26 130.090909 127.26 130.090909 127.26 
C 130.090909 127.26 130.090909 127.26 130.090909 127.26 
C 130.090909 127.26 130.090909 127.26 130.090909 127.26 
C 130.090909 127.26 130.090909 127.26 130.090909 127.26 
C 130.090909 127.26 130.090909 127.26 130.090909 127.26 
C 130.090909 127.26 130.090909 127.26 130.090909 127.26 
C 130.090909 127.26 130.090909 127.26 130.090909 127.26 
C 130.090909 127.26 130.090909 127.26 130.090909 127.26 
C 130.090909 127.26 130.090909 127.26 130.090909 127.26 
C 130.090909 127.26 130.090909 127.26 130.090909 127.26 
C 130.090909 127.26 130.090909 127.26 130.090909 127.26 
M 206.181818 127.26 
z
" style="fill: #ffffff"/>
   </g>
   <g id="matplotlib.axis_1">
    <g id="xtick_1">
     <g id="line2d_1">
      <path d="M 130.090909 127.26 
L 206.181818 127.26 
" clip-path="url(#pfd0d202aae)" style="fill: none; stroke: #b0b0b0; stroke-width: 0.8; stroke-linecap: square"/>
     </g>
     <g id="text_1">
      <!-- hip  -->
      <g transform="translate(214.206818 124.282656)scale(0.1 -0.1)">
       <defs>
        <path id="Corbel-68" d="M 984 2563 
L 994 2563 
Q 1075 2666 1175 2755 
Q 1275 2844 1397 2908 
Q 1519 2972 1659 3009 
Q 1800 3047 1963 3047 
Q 2131 3047 2300 3001 
Q 2469 2956 2612 2840 
Q 2756 2725 2847 2519 
Q 2938 2313 2938 1988 
L 2938 0 
L 2453 0 
L 2453 1909 
Q 2453 2269 2317 2450 
Q 2181 2631 1872 2631 
Q 1616 2631 1384 2492 
Q 1153 2353 984 2109 
L 984 0 
L 500 0 
L 500 4525 
L 984 4525 
L 984 2563 
z
" transform="scale(0.015625)"/>
        <path id="Corbel-69" d="M 500 0 
L 500 2969 
L 984 2969 
L 984 0 
L 500 0 
z
M 488 3659 
L 488 4200 
L 997 4200 
L 997 3659 
L 488 3659 
z
" transform="scale(0.015625)"/>
        <path id="Corbel-70" d="M 2594 1513 
Q 2594 1772 2539 1978 
Q 2484 2184 2375 2329 
Q 2266 2475 2106 2553 
Q 1947 2631 1738 2631 
Q 1588 2631 1464 2590 
Q 1341 2550 1241 2487 
Q 1141 2425 1069 2353 
Q 997 2281 953 2225 
L 953 672 
Q 1106 516 1301 425 
Q 1497 334 1722 334 
Q 1859 334 2012 386 
Q 2166 438 2295 570 
Q 2425 703 2509 931 
Q 2594 1159 2594 1513 
z
M 3100 1519 
Q 3100 1209 3039 970 
Q 2978 731 2878 553 
Q 2778 375 2643 254 
Q 2509 134 2365 60 
Q 2222 -13 2073 -45 
Q 1925 -78 1794 -78 
Q 1522 -78 1322 11 
Q 1122 100 963 275 
L 953 275 
L 953 -1453 
L 469 -1453 
L 469 2969 
L 834 2969 
L 938 2631 
L 947 2631 
Q 988 2694 1052 2753 
Q 1116 2813 1223 2880 
Q 1331 2947 1482 2997 
Q 1634 3047 1813 3047 
Q 2063 3047 2295 2962 
Q 2528 2878 2706 2693 
Q 2884 2509 2992 2220 
Q 3100 1931 3100 1519 
z
" transform="scale(0.015625)"/>
        <path id="Corbel-20" transform="scale(0.015625)"/>
       </defs>
       <use xlink:href="#Corbel-68"/>
       <use xlink:href="#Corbel-69" x="53.222656"/>
       <use xlink:href="#Corbel-70" x="76.416016"/>
       <use xlink:href="#Corbel-20" x="129.492188"/>
      </g>
      <!--  extension -->
      <g transform="translate(200.573224 135.037344)scale(0.1 -0.1)">
       <defs>
        <path id="Corbel-65" d="M 1631 2631 
Q 1466 2631 1323 2565 
Q 1181 2500 1075 2387 
Q 969 2275 903 2123 
Q 838 1972 822 1800 
L 2322 1800 
Q 2322 1975 2276 2126 
Q 2231 2278 2143 2390 
Q 2056 2503 1928 2567 
Q 1800 2631 1631 2631 
z
M 1897 344 
Q 2138 344 2336 383 
Q 2534 422 2731 494 
L 2731 91 
Q 2572 13 2337 -32 
Q 2103 -78 1834 -78 
Q 1516 -78 1236 3 
Q 956 84 747 265 
Q 538 447 417 739 
Q 297 1031 297 1444 
Q 297 1850 409 2148 
Q 522 2447 709 2647 
Q 897 2847 1140 2947 
Q 1384 3047 1650 3047 
Q 1900 3047 2117 2964 
Q 2334 2881 2493 2703 
Q 2653 2525 2745 2244 
Q 2838 1963 2838 1569 
Q 2838 1531 2838 1504 
Q 2838 1478 2834 1384 
L 797 1384 
Q 797 1100 883 901 
Q 969 703 1117 579 
Q 1266 456 1466 400 
Q 1666 344 1897 344 
z
" transform="scale(0.015625)"/>
        <path id="Corbel-78" d="M 1469 1825 
L 2275 2969 
L 2809 2969 
L 1725 1500 
L 2850 0 
L 2325 0 
L 1456 1188 
L 1444 1188 
L 588 0 
L 63 0 
L 1188 1513 
L 103 2969 
L 638 2969 
L 1456 1825 
L 1469 1825 
z
" transform="scale(0.015625)"/>
        <path id="Corbel-74" d="M 2034 -6 
Q 1972 -31 1844 -53 
Q 1716 -75 1538 -78 
Q 1303 -78 1131 -20 
Q 959 38 845 145 
Q 731 253 675 406 
Q 619 559 619 747 
L 619 2553 
L 47 2553 
L 47 2969 
L 619 2969 
L 619 3781 
L 1103 3781 
L 1103 2969 
L 1991 2969 
L 1991 2553 
L 1103 2553 
L 1103 822 
Q 1103 719 1133 631 
Q 1163 544 1227 480 
Q 1291 416 1391 380 
Q 1491 344 1631 344 
Q 1728 344 1836 359 
Q 1944 375 2034 400 
L 2034 -6 
z
" transform="scale(0.015625)"/>
        <path id="Corbel-6e" d="M 938 2556 
L 947 2556 
Q 1028 2659 1126 2748 
Q 1225 2838 1347 2905 
Q 1469 2972 1614 3009 
Q 1759 3047 1931 3047 
Q 2134 3047 2312 2990 
Q 2491 2934 2622 2809 
Q 2753 2684 2829 2482 
Q 2906 2281 2906 1988 
L 2906 0 
L 2422 0 
L 2422 1909 
Q 2422 2294 2273 2462 
Q 2125 2631 1841 2631 
Q 1591 2631 1356 2492 
Q 1122 2353 953 2109 
L 953 0 
L 469 0 
L 469 2969 
L 844 2969 
L 938 2556 
z
" transform="scale(0.015625)"/>
        <path id="Corbel-73" d="M 781 2178 
Q 781 2056 834 1978 
Q 888 1900 977 1851 
Q 1066 1803 1183 1772 
Q 1300 1741 1425 1716 
Q 1597 1678 1750 1633 
Q 1903 1588 2033 1497 
Q 2163 1406 2242 1251 
Q 2322 1097 2322 850 
Q 2322 625 2234 451 
Q 2147 278 1987 161 
Q 1828 44 1606 -17 
Q 1384 -78 1119 -78 
Q 956 -78 823 -61 
Q 691 -44 589 -17 
Q 488 9 416 37 
Q 344 66 297 91 
L 297 497 
Q 484 422 668 378 
Q 853 334 1075 334 
Q 1250 334 1390 365 
Q 1531 397 1632 458 
Q 1734 519 1789 611 
Q 1844 703 1844 825 
Q 1844 950 1794 1031 
Q 1744 1113 1659 1166 
Q 1575 1219 1464 1253 
Q 1353 1288 1231 1316 
Q 1072 1350 908 1397 
Q 744 1444 609 1528 
Q 475 1613 392 1758 
Q 309 1903 309 2131 
Q 309 2366 393 2537 
Q 478 2709 622 2821 
Q 766 2934 956 2990 
Q 1147 3047 1359 3047 
Q 1606 3047 1817 3000 
Q 2028 2953 2200 2881 
L 2200 2469 
Q 2013 2541 1820 2586 
Q 1628 2631 1425 2634 
Q 1253 2634 1131 2600 
Q 1009 2566 931 2505 
Q 853 2444 817 2361 
Q 781 2278 781 2178 
z
" transform="scale(0.015625)"/>
        <path id="Corbel-6f" d="M 2609 1481 
Q 2609 1756 2542 1970 
Q 2475 2184 2354 2332 
Q 2234 2481 2068 2557 
Q 1903 2634 1706 2634 
Q 1509 2634 1343 2557 
Q 1178 2481 1058 2332 
Q 938 2184 870 1970 
Q 803 1756 803 1481 
Q 803 1209 870 995 
Q 938 781 1059 634 
Q 1181 488 1347 411 
Q 1513 334 1709 334 
Q 1906 334 2070 411 
Q 2234 488 2354 634 
Q 2475 781 2542 995 
Q 2609 1209 2609 1481 
z
M 3116 1481 
Q 3116 1131 3016 843 
Q 2916 556 2733 351 
Q 2550 147 2290 34 
Q 2031 -78 1709 -78 
Q 1378 -78 1117 34 
Q 856 147 673 351 
Q 491 556 394 843 
Q 297 1131 297 1481 
Q 297 1834 397 2121 
Q 497 2409 680 2615 
Q 863 2822 1123 2934 
Q 1384 3047 1706 3047 
Q 2034 3047 2296 2934 
Q 2559 2822 2740 2615 
Q 2922 2409 3019 2121 
Q 3116 1834 3116 1481 
z
" transform="scale(0.015625)"/>
       </defs>
       <use xlink:href="#Corbel-20"/>
       <use xlink:href="#Corbel-65" x="20.019531"/>
       <use xlink:href="#Corbel-78" x="69.775391"/>
       <use xlink:href="#Corbel-74" x="115.283203"/>
       <use xlink:href="#Corbel-65" x="150"/>
       <use xlink:href="#Corbel-6e" x="199.755859"/>
       <use xlink:href="#Corbel-73" x="252.490234"/>
       <use xlink:href="#Corbel-69" x="292.919922"/>
       <use xlink:href="#Corbel-6f" x="316.113281"/>
       <use xlink:href="#Corbel-6e" x="369.433594"/>
      </g>
     </g>
    </g>
    <g id="xtick_2">
     <g id="line2d_2">
      <path d="M 130.090909 127.26 
L 168.136364 61.36334 
" clip-path="url(#pfd0d202aae)" style="fill: none; stroke: #b0b0b0; stroke-width: 0.8; stroke-linecap: square"/>
     </g>
     <g id="text_2">
      <!-- hip  -->
      <g transform="translate(168.411364 44.962602)scale(0.1 -0.1)">
       <use xlink:href="#Corbel-68"/>
       <use xlink:href="#Corbel-69" x="53.222656"/>
       <use xlink:href="#Corbel-70" x="76.416016"/>
       <use xlink:href="#Corbel-20" x="129.492188"/>
      </g>
      <!--  flexion -->
      <g transform="translate(160.911364 55.71729)scale(0.1 -0.1)">
       <defs>
        <path id="Corbel-66" d="M 2191 4144 
Q 2097 4163 1984 4172 
Q 1872 4181 1791 4181 
Q 1628 4181 1498 4140 
Q 1369 4100 1281 4011 
Q 1194 3922 1147 3776 
Q 1100 3631 1100 3425 
L 1100 2969 
L 1984 2969 
L 1984 2553 
L 1100 2553 
L 1100 0 
L 616 0 
L 616 2553 
L 94 2553 
L 94 2969 
L 616 2969 
L 616 3422 
Q 616 3744 702 3964 
Q 788 4184 938 4326 
Q 1088 4469 1291 4536 
Q 1494 4603 1728 4603 
Q 1878 4603 2004 4587 
Q 2131 4572 2191 4553 
L 2191 4144 
z
" transform="scale(0.015625)"/>
        <path id="Corbel-6c" d="M 500 0 
L 500 4525 
L 984 4525 
L 984 0 
L 500 0 
z
" transform="scale(0.015625)"/>
       </defs>
       <use xlink:href="#Corbel-20"/>
       <use xlink:href="#Corbel-66" x="20.019531"/>
       <use xlink:href="#Corbel-6c" x="51.806641"/>
       <use xlink:href="#Corbel-65" x="75"/>
       <use xlink:href="#Corbel-78" x="124.755859"/>
       <use xlink:href="#Corbel-69" x="170.263672"/>
       <use xlink:href="#Corbel-6f" x="193.457031"/>
       <use xlink:href="#Corbel-6e" x="246.777344"/>
      </g>
     </g>
    </g>
    <g id="xtick_3">
     <g id="line2d_3">
      <path d="M 130.090909 127.26 
L 92.045455 61.36334 
" clip-path="url(#pfd0d202aae)" style="fill: none; stroke: #b0b0b0; stroke-width: 0.8; stroke-linecap: square"/>
     </g>
     <g id="text_3">
      <!-- knee  -->
      <g transform="translate(73.24858 44.962602)scale(0.1 -0.1)">
       <defs>
        <path id="Corbel-6b" d="M 2391 2969 
L 3022 2969 
L 1572 1603 
L 3019 0 
L 2416 0 
L 991 1581 
L 984 1581 
L 984 0 
L 500 0 
L 500 4525 
L 984 4525 
L 984 1644 
L 991 1644 
L 2391 2969 
z
" transform="scale(0.015625)"/>
       </defs>
       <use xlink:href="#Corbel-6b"/>
       <use xlink:href="#Corbel-6e" x="48.681641"/>
       <use xlink:href="#Corbel-65" x="101.416016"/>
       <use xlink:href="#Corbel-65" x="151.171875"/>
       <use xlink:href="#Corbel-20" x="200.927734"/>
      </g>
      <!--  extension -->
      <g transform="translate(63.186861 55.71729)scale(0.1 -0.1)">
       <use xlink:href="#Corbel-20"/>
       <use xlink:href="#Corbel-65" x="20.019531"/>
       <use xlink:href="#Corbel-78" x="69.775391"/>
       <use xlink:href="#Corbel-74" x="115.283203"/>
       <use xlink:href="#Corbel-65" x="150"/>
       <use xlink:href="#Corbel-6e" x="199.755859"/>
       <use xlink:href="#Corbel-73" x="252.490234"/>
       <use xlink:href="#Corbel-69" x="292.919922"/>
       <use xlink:href="#Corbel-6f" x="316.113281"/>
       <use xlink:href="#Corbel-6e" x="369.433594"/>
      </g>
     </g>
    </g>
    <g id="xtick_4">
     <g id="line2d_4">
      <path d="M 130.090909 127.26 
L 54 127.26 
" clip-path="url(#pfd0d202aae)" style="fill: none; stroke: #b0b0b0; stroke-width: 0.8; stroke-linecap: square"/>
     </g>
     <g id="text_4">
      <!-- knee  -->
      <g transform="translate(27.453125 124.282656)scale(0.1 -0.1)">
       <use xlink:href="#Corbel-6b"/>
       <use xlink:href="#Corbel-6e" x="48.681641"/>
       <use xlink:href="#Corbel-65" x="101.416016"/>
       <use xlink:href="#Corbel-65" x="151.171875"/>
       <use xlink:href="#Corbel-20" x="200.927734"/>
      </g>
      <!--  flexion -->
      <g transform="translate(23.525 135.037344)scale(0.1 -0.1)">
       <use xlink:href="#Corbel-20"/>
       <use xlink:href="#Corbel-66" x="20.019531"/>
       <use xlink:href="#Corbel-6c" x="51.806641"/>
       <use xlink:href="#Corbel-65" x="75"/>
       <use xlink:href="#Corbel-78" x="124.755859"/>
       <use xlink:href="#Corbel-69" x="170.263672"/>
       <use xlink:href="#Corbel-6f" x="193.457031"/>
       <use xlink:href="#Corbel-6e" x="246.777344"/>
      </g>
     </g>
    </g>
    <g id="xtick_5">
     <g id="line2d_5">
      <path d="M 130.090909 127.26 
L 92.045455 193.15666 
" clip-path="url(#pfd0d202aae)" style="fill: none; stroke: #b0b0b0; stroke-width: 0.8; stroke-linecap: square"/>
     </g>
     <g id="text_5">
      <!-- ankle  -->
      <g transform="translate(72.128267 203.60271)scale(0.1 -0.1)">
       <defs>
        <path id="Corbel-61" d="M 2206 328 
L 2194 328 
Q 2134 253 2043 179 
Q 1953 106 1834 48 
Q 1716 -9 1575 -43 
Q 1434 -78 1275 -78 
Q 1059 -78 879 -14 
Q 700 50 570 173 
Q 441 297 369 475 
Q 297 653 297 878 
Q 297 1100 376 1275 
Q 456 1450 600 1572 
Q 744 1694 945 1759 
Q 1147 1825 1391 1825 
Q 1622 1822 1819 1784 
Q 2016 1747 2169 1691 
L 2181 1691 
L 2181 1897 
Q 2181 2019 2165 2112 
Q 2150 2206 2113 2278 
Q 2031 2428 1853 2526 
Q 1675 2625 1372 2625 
Q 1147 2625 948 2583 
Q 750 2541 553 2466 
L 553 2872 
Q 628 2909 729 2942 
Q 831 2975 943 2998 
Q 1056 3022 1181 3034 
Q 1306 3047 1431 3047 
Q 1881 3047 2167 2887 
Q 2453 2728 2578 2466 
Q 2625 2366 2645 2245 
Q 2666 2125 2666 1981 
L 2666 0 
L 2259 0 
L 2206 328 
z
M 2181 1303 
Q 2047 1341 1862 1375 
Q 1678 1409 1456 1413 
Q 1147 1413 972 1281 
Q 797 1150 797 878 
Q 797 741 840 637 
Q 884 534 961 467 
Q 1038 400 1142 367 
Q 1247 334 1366 334 
Q 1522 334 1656 379 
Q 1791 425 1895 487 
Q 2000 550 2073 612 
Q 2147 675 2181 709 
L 2181 1303 
z
" transform="scale(0.015625)"/>
       </defs>
       <use xlink:href="#Corbel-61"/>
       <use xlink:href="#Corbel-6e" x="48.974609"/>
       <use xlink:href="#Corbel-6b" x="101.708984"/>
       <use xlink:href="#Corbel-6c" x="150.390625"/>
       <use xlink:href="#Corbel-65" x="173.583984"/>
       <use xlink:href="#Corbel-20" x="223.339844"/>
      </g>
      <!--  extension -->
      <g transform="translate(63.186861 214.357398)scale(0.1 -0.1)">
       <use xlink:href="#Corbel-20"/>
       <use xlink:href="#Corbel-65" x="20.019531"/>
       <use xlink:href="#Corbel-78" x="69.775391"/>
       <use xlink:href="#Corbel-74" x="115.283203"/>
       <use xlink:href="#Corbel-65" x="150"/>
       <use xlink:href="#Corbel-6e" x="199.755859"/>
       <use xlink:href="#Corbel-73" x="252.490234"/>
       <use xlink:href="#Corbel-69" x="292.919922"/>
       <use xlink:href="#Corbel-6f" x="316.113281"/>
       <use xlink:href="#Corbel-6e" x="369.433594"/>
      </g>
     </g>
    </g>
    <g id="xtick_6">
     <g id="line2d_6">
      <path d="M 130.090909 127.26 
L 168.136364 193.15666 
" clip-path="url(#pfd0d202aae)" style="fill: none; stroke: #b0b0b0; stroke-width: 0.8; stroke-linecap: square"/>
     </g>
     <g id="text_6">
      <!-- ankle  -->
      <g transform="translate(163.719176 203.60271)scale(0.1 -0.1)">
       <use xlink:href="#Corbel-61"/>
       <use xlink:href="#Corbel-6e" x="48.974609"/>
       <use xlink:href="#Corbel-6b" x="101.708984"/>
       <use xlink:href="#Corbel-6c" x="150.390625"/>
       <use xlink:href="#Corbel-65" x="173.583984"/>
       <use xlink:href="#Corbel-20" x="223.339844"/>
      </g>
      <!--  flexion -->
      <g transform="translate(160.911364 214.357398)scale(0.1 -0.1)">
       <use xlink:href="#Corbel-20"/>
       <use xlink:href="#Corbel-66" x="20.019531"/>
       <use xlink:href="#Corbel-6c" x="51.806641"/>
       <use xlink:href="#Corbel-65" x="75"/>
       <use xlink:href="#Corbel-78" x="124.755859"/>
       <use xlink:href="#Corbel-69" x="170.263672"/>
       <use xlink:href="#Corbel-6f" x="193.457031"/>
       <use xlink:href="#Corbel-6e" x="246.777344"/>
      </g>
     </g>
    </g>
    <g id="xtick_7">
     <g id="line2d_7">
      <path d="M 130.090909 127.26 
L 206.181818 127.26 
" clip-path="url(#pfd0d202aae)" style="fill: none; stroke: #b0b0b0; stroke-width: 0.8; stroke-linecap: square"/>
     </g>
     <g id="text_7">
      <!-- hip  -->
      <g transform="translate(214.206818 124.282656)scale(0.1 -0.1)">
       <use xlink:href="#Corbel-68"/>
       <use xlink:href="#Corbel-69" x="53.222656"/>
       <use xlink:href="#Corbel-70" x="76.416016"/>
       <use xlink:href="#Corbel-20" x="129.492188"/>
      </g>
      <!--  extension -->
      <g transform="translate(200.573224 135.037344)scale(0.1 -0.1)">
       <use xlink:href="#Corbel-20"/>
       <use xlink:href="#Corbel-65" x="20.019531"/>
       <use xlink:href="#Corbel-78" x="69.775391"/>
       <use xlink:href="#Corbel-74" x="115.283203"/>
       <use xlink:href="#Corbel-65" x="150"/>
       <use xlink:href="#Corbel-6e" x="199.755859"/>
       <use xlink:href="#Corbel-73" x="252.490234"/>
       <use xlink:href="#Corbel-69" x="292.919922"/>
       <use xlink:href="#Corbel-6f" x="316.113281"/>
       <use xlink:href="#Corbel-6e" x="369.433594"/>
      </g>
     </g>
    </g>
   </g>
   <g id="line2d_8">
    <path d="M 180.818182 127.26 
L 155.454545 83.328893 
L 104.727273 83.328893 
L 79.363636 127.26 
L 104.727273 171.191107 
L 155.454545 171.191107 
L 180.818182 127.26 
" clip-path="url(#pfd0d202aae)" style="fill: none; stroke: #666666; stroke-width: 1.5; stroke-linecap: square"/>
   </g>
   <g id="line2d_9">
    <path d="M 196.533074 127.26 
L 162.650839 70.864547 
L 101.823158 78.29882 
L 82.697447 127.26 
L 102.818205 174.49771 
L 156.585348 173.149714 
L 196.533074 127.26 
" clip-path="url(#pfd0d202aae)" style="fill: none; stroke: #386cb0; stroke-width: 1.5; stroke-linecap: square"/>
   </g>
   <g id="line2d_10">
    <path d="M 171.455211 127.26 
L 148.442071 95.474855 
L 111.143583 94.442269 
L 98.918623 127.26 
L 113.856273 155.379215 
L 146.920663 156.409988 
L 171.455211 127.26 
" clip-path="url(#pfd0d202aae)" style="fill: none; stroke: #7fc97f; stroke-width: 1.5; stroke-linecap: square"/>
   </g>
   <g id="line2d_11">
    <path d="M 180.818182 127.26 
L 180.717075 124.058823 
L 180.414157 120.870408 
L 179.910636 117.707463 
L 179.208519 114.582597 
L 178.310605 111.508267 
L 177.220473 108.496728 
L 175.942469 105.559985 
L 174.481687 102.709745 
L 172.84395 99.957369 
L 171.035788 97.31383 
L 169.064406 94.789664 
L 166.937666 92.394935 
L 164.664043 90.139189 
L 162.252601 88.031416 
L 159.712954 86.080021 
L 157.055224 84.292781 
L 154.290007 82.676821 
L 151.428325 81.238582 
L 148.481585 79.983799 
L 145.461536 78.917472 
L 142.380214 78.043852 
L 139.249903 77.366423 
L 136.083082 76.887884 
L 132.892375 76.610143 
L 129.6905 76.534308 
L 126.490221 76.660679 
L 123.304296 76.988755 
L 120.145424 77.517226 
L 117.026198 78.243987 
L 113.959051 79.16614 
L 110.956211 80.280009 
L 108.029647 81.581155 
L 105.191026 83.064389 
L 102.451663 84.7238 
L 99.822479 86.552773 
L 97.313953 88.544017 
L 94.936086 90.689594 
L 92.698356 92.980952 
L 90.609684 95.408956 
L 88.678395 97.963927 
L 86.912189 100.635681 
L 85.318106 103.413568 
L 83.902501 106.286513 
L 82.671016 109.243065 
L 81.628561 112.271438 
L 80.779291 115.359559 
L 80.126591 118.495119 
L 79.673064 121.665619 
L 79.420517 124.858419 
L 79.369958 128.060793 
L 79.521586 131.259975 
L 79.874799 134.443211 
L 80.428188 137.597813 
L 81.179548 140.711206 
L 82.125882 143.770978 
L 83.263419 146.764932 
L 84.587624 149.681134 
L 86.093219 152.507959 
L 87.774201 155.234139 
L 89.62387 157.848805 
L 91.634853 160.341535 
L 93.799132 162.702392 
L 96.108082 164.921966 
L 98.552497 166.991407 
L 101.122633 168.902468 
L 103.808245 170.64753 
L 106.598628 172.219637 
L 109.482658 173.612521 
L 112.448838 174.82063 
L 115.485345 175.839149 
L 118.580074 176.664017 
L 121.720688 177.291946 
L 124.894669 177.720433 
L 128.089363 177.94777 
L 131.292036 177.973051 
L 134.489921 177.796174 
L 137.670271 177.417846 
L 140.820406 176.839573 
L 143.927771 176.063662 
L 146.979978 175.093205 
L 149.96486 173.932072 
L 152.870519 172.584889 
L 155.685372 171.057028 
L 158.398197 169.35458 
L 160.998182 167.48433 
L 163.474961 165.453734 
L 165.818661 163.270886 
L 168.01994 160.944489 
L 170.070023 158.483815 
L 171.960737 155.898674 
L 173.684546 153.199371 
L 175.234578 150.396666 
L 176.604654 147.501732 
L 177.789313 144.526108 
L 178.783832 141.481656 
L 179.584246 138.380513 
L 180.187365 135.23504 
L 180.590786 132.057776 
L 180.792899 128.861386 
L 180.818182 127.26 
L 180.818182 127.26 
" clip-path="url(#pfd0d202aae)" style="fill: none; stroke: #000000; stroke-linecap: square"/>
   </g>
   <g id="text_8">
    <!-- 0 -->
    <g transform="translate(130.090909 127.26)scale(0.1 -0.1)">
     <defs>
      <path id="Corbel-30" d="M 2500 1481 
Q 2500 1750 2439 1964 
Q 2378 2178 2267 2326 
Q 2156 2475 1998 2554 
Q 1841 2634 1644 2634 
Q 1447 2634 1289 2554 
Q 1131 2475 1018 2326 
Q 906 2178 847 1964 
Q 788 1750 788 1481 
Q 788 1216 848 1002 
Q 909 788 1020 641 
Q 1131 494 1290 414 
Q 1450 334 1647 334 
Q 1844 334 2001 414 
Q 2159 494 2270 641 
Q 2381 788 2440 1002 
Q 2500 1216 2500 1481 
z
M 3006 1481 
Q 3006 1150 2914 864 
Q 2822 578 2647 368 
Q 2472 159 2220 40 
Q 1969 -78 1647 -78 
Q 1316 -78 1061 40 
Q 806 159 632 368 
Q 459 578 370 864 
Q 281 1150 281 1481 
Q 281 1816 373 2102 
Q 466 2388 641 2598 
Q 816 2809 1069 2928 
Q 1322 3047 1644 3047 
Q 1972 3047 2226 2928 
Q 2481 2809 2654 2598 
Q 2828 2388 2917 2102 
Q 3006 1816 3006 1481 
z
" transform="scale(0.015625)"/>
     </defs>
     <use xlink:href="#Corbel-30"/>
    </g>
   </g>
   <g id="text_9">
    <!-- 1.0 -->
    <g transform="translate(145.309091 66.387273)scale(0.1 -0.1)">
     <defs>
      <path id="Corbel-31" d="M 1409 447 
L 1409 2453 
L 281 2100 
L 281 2550 
L 1475 2969 
L 1894 2969 
L 1894 447 
L 2713 447 
L 2713 0 
L 413 0 
L 413 447 
L 1409 447 
z
" transform="scale(0.015625)"/>
      <path id="Corbel-2e" d="M 547 0 
L 547 609 
L 1144 609 
L 1144 0 
L 547 0 
z
" transform="scale(0.015625)"/>
     </defs>
     <use xlink:href="#Corbel-31"/>
     <use xlink:href="#Corbel-2e" x="44.824219"/>
     <use xlink:href="#Corbel-30" x="71.240234"/>
    </g>
   </g>
   <g id="text_10">
    <!-- maximal isometric torque [-]  -->
    <g transform="translate(58.560597 18.986665)scale(0.12 -0.12)">
     <defs>
      <path id="Corbel-6d" d="M 2894 0 
L 2409 0 
L 2409 1909 
Q 2409 2103 2367 2239 
Q 2325 2375 2245 2462 
Q 2166 2550 2055 2590 
Q 1944 2631 1806 2631 
Q 1547 2631 1334 2492 
Q 1122 2353 953 2109 
L 953 0 
L 469 0 
L 469 2969 
L 844 2969 
L 938 2556 
L 947 2556 
Q 1028 2659 1123 2748 
Q 1219 2838 1336 2905 
Q 1453 2972 1593 3009 
Q 1734 3047 1900 3047 
Q 2231 3047 2450 2887 
Q 2669 2728 2788 2453 
L 2800 2453 
Q 2997 2731 3250 2889 
Q 3503 3047 3841 3047 
Q 3997 3047 4172 3003 
Q 4347 2959 4494 2842 
Q 4641 2725 4737 2519 
Q 4834 2313 4834 1988 
L 4834 0 
L 4353 0 
L 4353 1909 
Q 4353 2103 4311 2239 
Q 4269 2375 4189 2462 
Q 4109 2550 3998 2590 
Q 3888 2631 3750 2631 
Q 3491 2631 3277 2492 
Q 3063 2353 2894 2109 
L 2894 0 
z
" transform="scale(0.015625)"/>
      <path id="Corbel-72" d="M 2097 2575 
L 2059 2575 
Q 1888 2575 1722 2544 
Q 1556 2513 1411 2448 
Q 1266 2384 1148 2290 
Q 1031 2197 953 2069 
L 953 0 
L 469 0 
L 469 2969 
L 844 2969 
L 938 2497 
L 947 2497 
Q 1019 2613 1123 2713 
Q 1228 2813 1359 2888 
Q 1491 2963 1647 3005 
Q 1803 3047 1975 3047 
Q 2006 3047 2039 3045 
Q 2072 3044 2097 3041 
L 2097 2575 
z
" transform="scale(0.015625)"/>
      <path id="Corbel-63" d="M 1744 3047 
Q 1959 3047 2156 3001 
Q 2353 2956 2494 2875 
L 2494 2472 
Q 2297 2547 2131 2584 
Q 1966 2622 1794 2622 
Q 1613 2622 1434 2562 
Q 1256 2503 1115 2367 
Q 975 2231 889 2007 
Q 803 1784 803 1453 
Q 803 1213 867 1009 
Q 931 806 1057 657 
Q 1184 509 1375 426 
Q 1566 344 1816 344 
Q 1997 344 2181 383 
Q 2366 422 2541 494 
L 2541 91 
Q 2488 59 2402 28 
Q 2316 -3 2212 -26 
Q 2109 -50 1993 -64 
Q 1878 -78 1763 -78 
Q 1463 -78 1195 12 
Q 928 103 728 290 
Q 528 478 412 765 
Q 297 1053 297 1447 
Q 297 1741 358 1975 
Q 419 2209 525 2387 
Q 631 2566 773 2691 
Q 916 2816 1077 2895 
Q 1238 2975 1409 3011 
Q 1581 3047 1744 3047 
z
" transform="scale(0.015625)"/>
      <path id="Corbel-71" d="M 788 1466 
Q 788 1116 872 894 
Q 956 672 1086 548 
Q 1216 425 1369 379 
Q 1522 334 1659 334 
Q 1884 334 2081 425 
Q 2278 516 2428 672 
L 2428 2225 
Q 2388 2281 2316 2353 
Q 2244 2425 2148 2486 
Q 2053 2547 1931 2589 
Q 1809 2631 1666 2631 
Q 1450 2631 1286 2545 
Q 1122 2459 1011 2306 
Q 900 2153 844 1939 
Q 788 1725 788 1466 
z
M 281 1425 
Q 281 1841 393 2145 
Q 506 2450 690 2650 
Q 875 2850 1112 2948 
Q 1350 3047 1603 3047 
Q 1797 3044 1940 2997 
Q 2084 2950 2184 2883 
Q 2284 2816 2342 2752 
Q 2400 2688 2434 2631 
L 2447 2631 
L 2547 2969 
L 2913 2969 
L 2913 -1453 
L 2428 -1453 
L 2428 275 
L 2419 275 
Q 2259 100 2048 11 
Q 1838 -78 1566 -78 
Q 1441 -78 1297 -50 
Q 1153 -22 1009 45 
Q 866 113 734 223 
Q 603 334 503 501 
Q 403 669 342 897 
Q 281 1125 281 1425 
z
" transform="scale(0.015625)"/>
      <path id="Corbel-75" d="M 1647 -78 
Q 1416 -78 1231 -28 
Q 1047 22 908 112 
Q 769 203 672 329 
Q 575 456 519 606 
Q 475 719 456 853 
Q 438 988 438 1147 
L 438 2969 
L 922 2969 
L 922 1150 
Q 922 903 988 738 
Q 1063 550 1230 442 
Q 1397 334 1656 334 
Q 1931 334 2098 453 
Q 2266 572 2338 772 
Q 2391 925 2391 1150 
L 2391 2969 
L 2875 2969 
L 2875 1144 
Q 2875 994 2858 864 
Q 2841 734 2803 625 
Q 2747 472 2648 342 
Q 2550 213 2406 119 
Q 2263 25 2073 -26 
Q 1884 -78 1647 -78 
z
" transform="scale(0.015625)"/>
      <path id="Corbel-5b" d="M 500 4181 
L 1831 4181 
L 1831 3797 
L 953 3797 
L 953 -553 
L 1831 -553 
L 1831 -938 
L 500 -938 
L 500 4181 
z
" transform="scale(0.015625)"/>
      <path id="Corbel-2d" d="M 375 1784 
L 1753 1784 
L 1753 1331 
L 375 1331 
L 375 1784 
z
" transform="scale(0.015625)"/>
      <path id="Corbel-5d" d="M 1519 -938 
L 188 -938 
L 188 -553 
L 1066 -553 
L 1066 3797 
L 188 3797 
L 188 4181 
L 1519 4181 
L 1519 -938 
z
" transform="scale(0.015625)"/>
     </defs>
     <use xlink:href="#Corbel-6d"/>
     <use xlink:href="#Corbel-61" x="82.861328"/>
     <use xlink:href="#Corbel-78" x="131.835938"/>
     <use xlink:href="#Corbel-69" x="177.34375"/>
     <use xlink:href="#Corbel-6d" x="200.537109"/>
     <use xlink:href="#Corbel-61" x="283.398438"/>
     <use xlink:href="#Corbel-6c" x="332.373047"/>
     <use xlink:href="#Corbel-20" x="355.566406"/>
     <use xlink:href="#Corbel-69" x="375.585938"/>
     <use xlink:href="#Corbel-73" x="398.779297"/>
     <use xlink:href="#Corbel-6f" x="439.208984"/>
     <use xlink:href="#Corbel-6d" x="492.529297"/>
     <use xlink:href="#Corbel-65" x="575.390625"/>
     <use xlink:href="#Corbel-74" x="625.146484"/>
     <use xlink:href="#Corbel-72" x="659.863281"/>
     <use xlink:href="#Corbel-69" x="693.359375"/>
     <use xlink:href="#Corbel-63" x="716.552734"/>
     <use xlink:href="#Corbel-20" x="760.400391"/>
     <use xlink:href="#Corbel-74" x="780.419922"/>
     <use xlink:href="#Corbel-6f" x="815.136719"/>
     <use xlink:href="#Corbel-72" x="868.457031"/>
     <use xlink:href="#Corbel-71" x="901.953125"/>
     <use xlink:href="#Corbel-75" x="954.296875"/>
     <use xlink:href="#Corbel-65" x="1006.054688"/>
     <use xlink:href="#Corbel-20" x="1055.810547"/>
     <use xlink:href="#Corbel-5b" x="1075.830078"/>
     <use xlink:href="#Corbel-2d" x="1107.373047"/>
     <use xlink:href="#Corbel-5d" x="1140.625"/>
     <use xlink:href="#Corbel-20" x="1172.167969"/>
    </g>
    <!--  normalized to generic -->
    <g transform="translate(74.923722 31.89229)scale(0.12 -0.12)">
     <defs>
      <path id="Corbel-7a" d="M 1900 2541 
L 1900 2553 
L 269 2553 
L 269 2969 
L 2516 2969 
L 2516 2663 
L 866 428 
L 866 416 
L 2625 416 
L 2625 0 
L 219 0 
L 219 263 
L 1900 2541 
z
" transform="scale(0.015625)"/>
      <path id="Corbel-64" d="M 803 1453 
Q 803 1197 861 989 
Q 919 781 1028 636 
Q 1138 491 1297 412 
Q 1456 334 1663 334 
Q 1816 334 1941 375 
Q 2066 416 2164 478 
Q 2263 541 2333 611 
Q 2403 681 2444 741 
L 2444 2294 
Q 2294 2447 2097 2539 
Q 1900 2631 1672 2631 
Q 1534 2631 1382 2579 
Q 1231 2528 1101 2393 
Q 972 2259 887 2032 
Q 803 1806 803 1453 
z
M 297 1447 
Q 297 1756 358 1995 
Q 419 2234 519 2412 
Q 619 2591 753 2711 
Q 888 2831 1031 2906 
Q 1175 2981 1323 3014 
Q 1472 3047 1603 3047 
Q 1875 3047 2075 2956 
Q 2275 2866 2434 2691 
L 2444 2691 
L 2444 4525 
L 2928 4525 
L 2928 0 
L 2563 0 
L 2463 331 
L 2450 331 
Q 2394 259 2319 186 
Q 2244 113 2142 53 
Q 2041 -6 1908 -42 
Q 1775 -78 1600 -78 
Q 1356 -78 1122 5 
Q 888 88 705 270 
Q 522 453 409 742 
Q 297 1031 297 1447 
z
" transform="scale(0.015625)"/>
      <path id="Corbel-67" d="M 803 1466 
Q 803 1116 887 894 
Q 972 672 1101 548 
Q 1231 425 1384 379 
Q 1538 334 1675 334 
Q 1900 334 2097 425 
Q 2294 516 2444 672 
L 2444 2225 
Q 2403 2281 2331 2353 
Q 2259 2425 2164 2486 
Q 2069 2547 1947 2589 
Q 1825 2631 1681 2631 
Q 1466 2631 1302 2545 
Q 1138 2459 1027 2306 
Q 916 2153 859 1939 
Q 803 1725 803 1466 
z
M 1619 3047 
Q 1813 3044 1956 2997 
Q 2100 2950 2203 2879 
Q 2306 2809 2367 2740 
Q 2428 2672 2450 2631 
L 2463 2631 
L 2563 2969 
L 2928 2969 
L 2928 -175 
Q 2928 -519 2815 -773 
Q 2703 -1028 2500 -1197 
Q 2297 -1366 2011 -1448 
Q 1725 -1531 1378 -1531 
Q 1084 -1531 853 -1479 
Q 622 -1428 491 -1356 
L 491 -947 
Q 597 -991 697 -1020 
Q 797 -1050 903 -1070 
Q 1009 -1091 1120 -1100 
Q 1231 -1109 1366 -1109 
Q 1888 -1109 2166 -865 
Q 2444 -622 2444 -122 
L 2444 275 
L 2434 275 
Q 2275 100 2064 11 
Q 1853 -78 1581 -78 
Q 1456 -78 1312 -50 
Q 1169 -22 1025 45 
Q 881 113 750 223 
Q 619 334 519 501 
Q 419 669 358 897 
Q 297 1125 297 1425 
Q 297 1841 409 2145 
Q 522 2450 706 2650 
Q 891 2850 1128 2948 
Q 1366 3047 1619 3047 
z
" transform="scale(0.015625)"/>
     </defs>
     <use xlink:href="#Corbel-20"/>
     <use xlink:href="#Corbel-6e" x="20.019531"/>
     <use xlink:href="#Corbel-6f" x="72.753906"/>
     <use xlink:href="#Corbel-72" x="126.074219"/>
     <use xlink:href="#Corbel-6d" x="159.570312"/>
     <use xlink:href="#Corbel-61" x="242.431641"/>
     <use xlink:href="#Corbel-6c" x="291.40625"/>
     <use xlink:href="#Corbel-69" x="314.599609"/>
     <use xlink:href="#Corbel-7a" x="337.792969"/>
     <use xlink:href="#Corbel-65" x="382.226562"/>
     <use xlink:href="#Corbel-64" x="431.982422"/>
     <use xlink:href="#Corbel-20" x="485.546875"/>
     <use xlink:href="#Corbel-74" x="505.566406"/>
     <use xlink:href="#Corbel-6f" x="540.283203"/>
     <use xlink:href="#Corbel-20" x="593.603516"/>
     <use xlink:href="#Corbel-67" x="613.623047"/>
     <use xlink:href="#Corbel-65" x="666.699219"/>
     <use xlink:href="#Corbel-6e" x="716.455078"/>
     <use xlink:href="#Corbel-65" x="769.189453"/>
     <use xlink:href="#Corbel-72" x="818.945312"/>
     <use xlink:href="#Corbel-69" x="852.441406"/>
     <use xlink:href="#Corbel-63" x="875.634766"/>
    </g>
   </g>
   <g id="legend_1">
    <g id="patch_3">
     <path d="M 289.272727 140.23642 
L 401.238352 140.23642 
Q 403.238352 140.23642 403.238352 138.23642 
L 403.238352 96.214545 
Q 403.238352 94.214545 401.238352 94.214545 
L 289.272727 94.214545 
Q 287.272727 94.214545 287.272727 96.214545 
L 287.272727 138.23642 
Q 287.272727 140.23642 289.272727 140.23642 
z
" style="fill: #ffffff; opacity: 0.8; stroke: #cccccc; stroke-linejoin: miter"/>
    </g>
    <g id="line2d_12">
     <path d="M 291.272727 101.784858 
L 301.272727 101.784858 
L 311.272727 101.784858 
" style="fill: none; stroke: #666666; stroke-width: 1.5; stroke-linecap: square"/>
    </g>
    <g id="text_11">
     <!-- GEN -->
     <g transform="translate(319.272727 105.284858)scale(0.1 -0.1)">
      <defs>
       <path id="Corbel-47" d="M 3266 1691 
L 2313 1691 
L 2313 2150 
L 3775 2150 
L 3775 128 
Q 3709 94 3582 58 
Q 3456 22 3293 -9 
Q 3131 -41 2945 -59 
Q 2759 -78 2578 -78 
Q 2041 -78 1630 69 
Q 1219 216 941 484 
Q 663 753 519 1137 
Q 375 1522 375 1994 
Q 375 2506 542 2925 
Q 709 3344 1014 3641 
Q 1319 3938 1742 4098 
Q 2166 4259 2675 4259 
Q 2813 4259 2950 4248 
Q 3088 4238 3213 4217 
Q 3338 4197 3444 4169 
Q 3550 4141 3622 4109 
L 3622 3659 
Q 3434 3722 3190 3764 
Q 2947 3806 2703 3806 
Q 2347 3806 2023 3698 
Q 1700 3591 1453 3372 
Q 1206 3153 1059 2823 
Q 913 2494 913 2050 
Q 913 1616 1033 1300 
Q 1153 984 1373 778 
Q 1594 572 1908 473 
Q 2222 375 2606 375 
Q 2784 375 2957 394 
Q 3131 413 3266 447 
L 3266 1691 
z
" transform="scale(0.015625)"/>
       <path id="Corbel-45" d="M 1041 459 
L 3184 459 
L 3184 0 
L 531 0 
L 531 4181 
L 3069 4181 
L 3069 3722 
L 1041 3722 
L 1041 2372 
L 2844 2372 
L 2844 1913 
L 1041 1913 
L 1041 459 
z
" transform="scale(0.015625)"/>
       <path id="Corbel-4e" d="M 2678 1850 
Q 3063 1297 3438 713 
L 3456 713 
Q 3416 1322 3416 1956 
L 3416 4181 
L 3925 4181 
L 3925 0 
L 3419 0 
L 1778 2331 
Q 1353 2941 1019 3469 
L 1000 3469 
Q 1041 2897 1041 2134 
L 1041 0 
L 531 0 
L 531 4181 
L 1038 4181 
L 2678 1850 
z
" transform="scale(0.015625)"/>
      </defs>
      <use xlink:href="#Corbel-47"/>
      <use xlink:href="#Corbel-45" x="66.796875"/>
      <use xlink:href="#Corbel-4e" x="121.923828"/>
     </g>
    </g>
    <g id="line2d_13">
     <path d="M 291.272727 116.125483 
L 301.272727 116.125483 
L 311.272727 116.125483 
" style="fill: none; stroke: #386cb0; stroke-width: 1.5; stroke-linecap: square"/>
    </g>
    <g id="text_12">
     <!-- SPRINT_SKEL -->
     <g transform="translate(319.272727 119.625483)scale(0.1 -0.1)">
      <defs>
       <path id="Corbel-53" d="M 919 3075 
Q 919 2891 994 2770 
Q 1069 2650 1195 2572 
Q 1322 2494 1489 2444 
Q 1656 2394 1838 2350 
Q 2081 2291 2317 2219 
Q 2553 2147 2737 2020 
Q 2922 1894 3036 1691 
Q 3150 1488 3150 1169 
Q 3150 844 3029 608 
Q 2909 372 2695 220 
Q 2481 69 2184 -4 
Q 1888 -78 1534 -78 
Q 1372 -78 1201 -58 
Q 1031 -38 876 -3 
Q 722 31 597 75 
Q 472 119 400 163 
L 400 628 
Q 513 572 653 525 
Q 794 478 944 445 
Q 1094 413 1247 394 
Q 1400 375 1534 375 
Q 1753 375 1951 412 
Q 2150 450 2300 537 
Q 2450 625 2537 776 
Q 2625 928 2625 1156 
Q 2625 1344 2548 1466 
Q 2472 1588 2344 1667 
Q 2216 1747 2048 1797 
Q 1881 1847 1697 1891 
Q 1453 1947 1220 2017 
Q 988 2088 805 2213 
Q 622 2338 511 2534 
Q 400 2731 400 3038 
Q 400 3356 512 3586 
Q 625 3816 819 3966 
Q 1013 4116 1272 4187 
Q 1531 4259 1825 4259 
Q 2159 4259 2448 4195 
Q 2738 4131 2978 4028 
L 2978 3556 
Q 2719 3666 2442 3734 
Q 2166 3803 1850 3806 
Q 1613 3806 1438 3754 
Q 1263 3703 1147 3608 
Q 1031 3513 975 3377 
Q 919 3241 919 3075 
z
" transform="scale(0.015625)"/>
       <path id="Corbel-50" d="M 1041 0 
L 531 0 
L 531 4181 
L 1691 4181 
Q 1950 4181 2170 4150 
Q 2391 4119 2575 4053 
Q 2950 3919 3144 3651 
Q 3338 3384 3338 2994 
Q 3338 2675 3211 2433 
Q 3084 2191 2843 2028 
Q 2603 1866 2258 1783 
Q 1913 1700 1475 1700 
Q 1266 1700 1041 1719 
L 1041 0 
z
M 1041 2184 
Q 1144 2172 1256 2165 
Q 1369 2159 1469 2159 
Q 1828 2159 2081 2215 
Q 2334 2272 2493 2380 
Q 2653 2488 2725 2642 
Q 2797 2797 2797 2994 
Q 2797 3238 2680 3394 
Q 2563 3550 2347 3631 
Q 2213 3681 2038 3701 
Q 1863 3722 1631 3722 
L 1041 3722 
L 1041 2184 
z
" transform="scale(0.015625)"/>
       <path id="Corbel-52" d="M 1041 1731 
L 1041 0 
L 531 0 
L 531 4181 
L 1616 4181 
Q 1891 4181 2083 4161 
Q 2275 4141 2434 4097 
Q 2872 3978 3103 3692 
Q 3334 3406 3334 2978 
Q 3334 2725 3253 2525 
Q 3172 2325 3025 2178 
Q 2878 2031 2673 1937 
Q 2469 1844 2219 1800 
L 2219 1788 
L 3584 0 
L 2944 0 
L 1656 1731 
L 1041 1731 
z
M 1041 3722 
L 1041 2191 
L 1544 2191 
Q 1778 2191 1943 2206 
Q 2109 2222 2241 2263 
Q 2506 2344 2650 2522 
Q 2794 2700 2794 2988 
Q 2791 3256 2656 3420 
Q 2522 3584 2284 3656 
Q 2172 3691 2015 3706 
Q 1859 3722 1619 3722 
L 1041 3722 
z
" transform="scale(0.015625)"/>
       <path id="Corbel-49" d="M 531 0 
L 531 4181 
L 1041 4181 
L 1041 0 
L 531 0 
z
" transform="scale(0.015625)"/>
       <path id="Corbel-54" d="M 2031 0 
L 1522 0 
L 1522 3722 
L 125 3722 
L 125 4181 
L 3428 4181 
L 3428 3722 
L 2031 3722 
L 2031 0 
z
" transform="scale(0.015625)"/>
       <path id="Corbel-5f" d="M 0 -444 
L 3125 -444 
L 3125 -859 
L 0 -859 
L 0 -444 
z
" transform="scale(0.015625)"/>
       <path id="Corbel-4b" d="M 531 0 
L 531 4181 
L 1041 4181 
L 1041 2116 
L 1047 2116 
L 2969 4181 
L 3597 4181 
L 1647 2100 
L 3747 0 
L 3084 0 
L 1047 2047 
L 1041 2047 
L 1041 0 
L 531 0 
z
" transform="scale(0.015625)"/>
       <path id="Corbel-4c" d="M 1041 4181 
L 1041 459 
L 3081 459 
L 3081 0 
L 531 0 
L 531 4181 
L 1041 4181 
z
" transform="scale(0.015625)"/>
      </defs>
      <use xlink:href="#Corbel-53"/>
      <use xlink:href="#Corbel-50" x="55.175781"/>
      <use xlink:href="#Corbel-52" x="112.207031"/>
      <use xlink:href="#Corbel-49" x="171.386719"/>
      <use xlink:href="#Corbel-4e" x="195.947266"/>
      <use xlink:href="#Corbel-54" x="265.576172"/>
      <use xlink:href="#Corbel-5f" x="321.09375"/>
      <use xlink:href="#Corbel-53" x="369.921875"/>
      <use xlink:href="#Corbel-4b" x="425.097656"/>
      <use xlink:href="#Corbel-45" x="485.595703"/>
      <use xlink:href="#Corbel-4c" x="540.722656"/>
     </g>
    </g>
    <g id="line2d_14">
     <path d="M 291.272727 130.466108 
L 301.272727 130.466108 
L 311.272727 130.466108 
" style="fill: none; stroke: #7fc97f; stroke-width: 1.5; stroke-linecap: square"/>
    </g>
    <g id="text_13">
     <!-- MARATHON_SKEL -->
     <g transform="translate(319.272727 133.966108)scale(0.1 -0.1)">
      <defs>
       <path id="Corbel-4d" d="M 2747 0 
L 2513 0 
L 1459 2497 
Q 1241 3013 1022 3619 
L 997 3619 
Q 1041 2747 1041 2022 
L 1041 0 
L 531 0 
L 531 4181 
L 1266 4181 
L 2250 1816 
Q 2419 1409 2622 838 
L 2638 838 
Q 2863 1472 3009 1816 
L 3994 4181 
L 4728 4181 
L 4728 0 
L 4219 0 
L 4219 2022 
Q 4219 2731 4263 3619 
L 4238 3619 
Q 4006 2978 3800 2497 
L 2747 0 
z
" transform="scale(0.015625)"/>
       <path id="Corbel-41" d="M 109 0 
L 1813 4181 
L 2253 4181 
L 3956 0 
L 3403 0 
L 2903 1259 
L 1156 1259 
L 656 0 
L 109 0 
z
M 2028 3531 
Q 1750 2750 1494 2113 
L 1338 1719 
L 2722 1719 
L 2566 2113 
Q 2309 2763 2041 3531 
L 2028 3531 
z
" transform="scale(0.015625)"/>
       <path id="Corbel-48" d="M 1041 2372 
L 3231 2372 
L 3231 4181 
L 3741 4181 
L 3741 0 
L 3231 0 
L 3231 1913 
L 1041 1913 
L 1041 0 
L 531 0 
L 531 4181 
L 1041 4181 
L 1041 2372 
z
" transform="scale(0.015625)"/>
       <path id="Corbel-4f" d="M 3763 2088 
Q 3763 2509 3653 2831 
Q 3544 3153 3351 3368 
Q 3159 3584 2898 3695 
Q 2638 3806 2338 3806 
Q 2038 3806 1777 3695 
Q 1516 3584 1323 3368 
Q 1131 3153 1022 2831 
Q 913 2509 913 2088 
Q 913 1666 1023 1345 
Q 1134 1025 1326 809 
Q 1519 594 1780 484 
Q 2041 375 2344 375 
Q 2644 375 2901 484 
Q 3159 594 3351 809 
Q 3544 1025 3653 1345 
Q 3763 1666 3763 2088 
z
M 4300 2088 
Q 4300 1613 4162 1216 
Q 4025 819 3769 531 
Q 3513 244 3152 83 
Q 2791 -78 2344 -78 
Q 1881 -78 1515 83 
Q 1150 244 897 531 
Q 644 819 509 1216 
Q 375 1613 375 2088 
Q 375 2566 514 2964 
Q 653 3363 908 3650 
Q 1163 3938 1525 4098 
Q 1888 4259 2338 4259 
Q 2797 4259 3161 4098 
Q 3525 3938 3778 3650 
Q 4031 3363 4165 2964 
Q 4300 2566 4300 2088 
z
" transform="scale(0.015625)"/>
      </defs>
      <use xlink:href="#Corbel-4d"/>
      <use xlink:href="#Corbel-41" x="82.177734"/>
      <use xlink:href="#Corbel-52" x="145.703125"/>
      <use xlink:href="#Corbel-41" x="204.882812"/>
      <use xlink:href="#Corbel-54" x="263.033203"/>
      <use xlink:href="#Corbel-48" x="318.550781"/>
      <use xlink:href="#Corbel-4f" x="385.298828"/>
      <use xlink:href="#Corbel-4e" x="458.345703"/>
      <use xlink:href="#Corbel-5f" x="527.974609"/>
      <use xlink:href="#Corbel-53" x="576.802734"/>
      <use xlink:href="#Corbel-4b" x="631.978516"/>
      <use xlink:href="#Corbel-45" x="692.476562"/>
      <use xlink:href="#Corbel-4c" x="747.603516"/>
     </g>
    </g>
   </g>
  </g>
 </g>
 <defs>
  <clipPath id="pfd0d202aae">
   <path d="M 206.181818 127.26 
C 206.181818 117.267833 204.213579 107.372828 200.389743 98.14127 
C 196.565906 88.909712 190.960836 80.521131 183.895307 73.455602 
C 176.829778 66.390073 168.441198 60.785003 159.209639 56.961166 
C 149.978081 53.13733 140.083076 51.169091 130.090909 51.169091 
C 120.098742 51.169091 110.203737 53.13733 100.972179 56.961166 
C 91.740621 60.785003 83.35204 66.390073 76.286511 73.455602 
C 69.220983 80.521131 63.615912 88.909712 59.792076 98.14127 
C 55.968239 107.372828 54 117.267833 54 127.26 
C 54 137.252167 55.968239 147.147172 59.792076 156.37873 
C 63.615912 165.610288 69.220983 173.998869 76.286511 181.064398 
C 83.35204 188.129927 91.740621 193.734997 100.972179 197.558834 
C 110.203737 201.38267 120.098742 203.350909 130.090909 203.350909 
C 140.083076 203.350909 149.978081 201.38267 159.209639 197.558834 
C 168.441198 193.734997 176.829778 188.129927 183.895307 181.064398 
C 190.960836 173.998869 196.565906 165.610288 200.389743 156.37873 
C 204.213579 147.147172 206.181818 137.252167 206.181818 127.26 
M 130.090909 127.26 
C 130.090909 127.26 130.090909 127.26 130.090909 127.26 
C 130.090909 127.26 130.090909 127.26 130.090909 127.26 
C 130.090909 127.26 130.090909 127.26 130.090909 127.26 
C 130.090909 127.26 130.090909 127.26 130.090909 127.26 
C 130.090909 127.26 130.090909 127.26 130.090909 127.26 
C 130.090909 127.26 130.090909 127.26 130.090909 127.26 
C 130.090909 127.26 130.090909 127.26 130.090909 127.26 
C 130.090909 127.26 130.090909 127.26 130.090909 127.26 
C 130.090909 127.26 130.090909 127.26 130.090909 127.26 
C 130.090909 127.26 130.090909 127.26 130.090909 127.26 
C 130.090909 127.26 130.090909 127.26 130.090909 127.26 
C 130.090909 127.26 130.090909 127.26 130.090909 127.26 
C 130.090909 127.26 130.090909 127.26 130.090909 127.26 
C 130.090909 127.26 130.090909 127.26 130.090909 127.26 
C 130.090909 127.26 130.090909 127.26 130.090909 127.26 
C 130.090909 127.26 130.090909 127.26 130.090909 127.26 
M 206.181818 127.26 
z
"/>
  </clipPath>
 </defs>
</svg>
