<?xml version="1.0" encoding="utf-8" standalone="no"?>
<!DOCTYPE svg PUBLIC "-//W3C//DTD SVG 1.1//EN"
  "http://www.w3.org/Graphics/SVG/1.1/DTD/svg11.dtd">
<svg xmlns:xlink="http://www.w3.org/1999/xlink" width="432pt" height="216pt" viewBox="0 0 432 216" xmlns="http://www.w3.org/2000/svg" version="1.1">
 <metadata>
  <rdf:RDF xmlns:dc="http://purl.org/dc/elements/1.1/" xmlns:cc="http://creativecommons.org/ns#" xmlns:rdf="http://www.w3.org/1999/02/22-rdf-syntax-ns#">
   <cc:Work>
    <dc:type rdf:resource="http://purl.org/dc/dcmitype/StillImage"/>
    <dc:date>2023-01-11T11:17:53.535838</dc:date>
    <dc:format>image/svg+xml</dc:format>
    <dc:creator>
     <cc:Agent>
      <dc:title>Matplotlib v3.5.1, https://matplotlib.org/</dc:title>
     </cc:Agent>
    </dc:creator>
   </cc:Work>
  </rdf:RDF>
 </metadata>
 <defs>
  <style type="text/css">*{stroke-linejoin: round; stroke-linecap: butt}</style>
 </defs>
 <g id="figure_1">
  <g id="patch_1">
   <path d="M 0 216 
L 432 216 
L 432 0 
L 0 0 
z
" style="fill: #ffffff"/>
  </g>
  <g id="axes_1">
   <g id="patch_2">
    <path d="M 43.2 194.4 
L 259.2 194.4 
L 259.2 21.6 
L 43.2 21.6 
z
" style="fill: #ffffff"/>
   </g>
   <g id="patch_3">
    <path d="M 53.018182 194.4 
L 146.032536 194.4 
L 146.032536 77.472 
L 53.018182 77.472 
z
" clip-path="url(#p6b283a5f3e)" style="fill: #666666"/>
   </g>
   <g id="patch_4">
    <path d="M 156.367464 194.4 
L 249.381818 194.4 
L 249.381818 146.448 
L 156.367464 146.448 
z
" clip-path="url(#p6b283a5f3e)" style="fill: #beaed4"/>
   </g>
   <g id="matplotlib.axis_1"/>
   <g id="matplotlib.axis_2">
    <g id="ytick_1">
     <g id="line2d_1">
      <defs>
       <path id="me57a60e867" d="M 0 0 
L -3.5 0 
" style="stroke: #000000; stroke-width: 0.8"/>
      </defs>
      <g>
       <use xlink:href="#me57a60e867" x="43.2" y="194.4" style="stroke: #000000; stroke-width: 0.8"/>
      </g>
     </g>
     <g id="text_1">
      <!-- 0 -->
      <g transform="translate(31.0625 197.935156)scale(0.1 -0.1)">
       <defs>
        <path id="Corbel-30" d="M 2500 1481 
Q 2500 1750 2439 1964 
Q 2378 2178 2267 2326 
Q 2156 2475 1998 2554 
Q 1841 2634 1644 2634 
Q 1447 2634 1289 2554 
Q 1131 2475 1018 2326 
Q 906 2178 847 1964 
Q 788 1750 788 1481 
Q 788 1216 848 1002 
Q 909 788 1020 641 
Q 1131 494 1290 414 
Q 1450 334 1647 334 
Q 1844 334 2001 414 
Q 2159 494 2270 641 
Q 2381 788 2440 1002 
Q 2500 1216 2500 1481 
z
M 3006 1481 
Q 3006 1150 2914 864 
Q 2822 578 2647 368 
Q 2472 159 2220 40 
Q 1969 -78 1647 -78 
Q 1316 -78 1061 40 
Q 806 159 632 368 
Q 459 578 370 864 
Q 281 1150 281 1481 
Q 281 1816 373 2102 
Q 466 2388 641 2598 
Q 816 2809 1069 2928 
Q 1322 3047 1644 3047 
Q 1972 3047 2226 2928 
Q 2481 2809 2654 2598 
Q 2828 2388 2917 2102 
Q 3006 1816 3006 1481 
z
" transform="scale(0.015625)"/>
       </defs>
       <use xlink:href="#Corbel-30"/>
      </g>
     </g>
    </g>
   </g>
   <g id="patch_5">
    <path d="M 43.2 194.4 
L 259.2 194.4 
" style="fill: none; stroke: #000000; stroke-width: 0.8; stroke-linejoin: miter; stroke-linecap: square"/>
   </g>
   <g id="text_2">
    <!-- 8.12 -->
    <g transform="translate(90.835515 75.201688)scale(0.1 -0.1)">
     <defs>
      <path id="Corbel-38" d="M 1647 -78 
Q 1344 -78 1095 11 
Q 847 100 669 256 
Q 491 413 394 627 
Q 297 841 297 1091 
Q 297 1322 362 1500 
Q 428 1678 539 1809 
Q 650 1941 798 2027 
Q 947 2113 1113 2153 
L 1113 2166 
Q 956 2219 823 2309 
Q 691 2400 592 2526 
Q 494 2653 439 2814 
Q 384 2975 384 3169 
Q 384 3434 490 3637 
Q 597 3841 773 3980 
Q 950 4119 1176 4189 
Q 1403 4259 1647 4259 
Q 1891 4259 2117 4189 
Q 2344 4119 2520 3980 
Q 2697 3841 2803 3637 
Q 2909 3434 2909 3169 
Q 2909 2975 2848 2814 
Q 2788 2653 2684 2526 
Q 2581 2400 2443 2309 
Q 2306 2219 2150 2166 
L 2150 2153 
Q 2316 2113 2469 2027 
Q 2622 1941 2739 1809 
Q 2856 1678 2926 1500 
Q 2997 1322 2997 1091 
Q 2997 841 2900 627 
Q 2803 413 2625 256 
Q 2447 100 2198 11 
Q 1950 -78 1647 -78 
z
M 1647 3847 
Q 1484 3847 1345 3801 
Q 1206 3756 1104 3667 
Q 1003 3578 947 3450 
Q 891 3322 891 3153 
Q 891 2834 1089 2634 
Q 1288 2434 1647 2363 
Q 2006 2434 2204 2634 
Q 2403 2834 2403 3153 
Q 2403 3322 2347 3450 
Q 2291 3578 2189 3667 
Q 2088 3756 1950 3801 
Q 1813 3847 1647 3847 
z
M 1647 1934 
Q 1472 1916 1319 1858 
Q 1166 1800 1050 1698 
Q 934 1597 868 1450 
Q 803 1303 803 1106 
Q 803 928 867 784 
Q 931 641 1043 541 
Q 1156 441 1311 387 
Q 1466 334 1647 334 
Q 1831 334 1986 387 
Q 2141 441 2253 541 
Q 2366 641 2428 784 
Q 2491 928 2491 1106 
Q 2491 1303 2425 1450 
Q 2359 1597 2243 1698 
Q 2128 1800 1975 1858 
Q 1822 1916 1647 1934 
z
" transform="scale(0.015625)"/>
      <path id="Corbel-2e" d="M 547 0 
L 547 609 
L 1144 609 
L 1144 0 
L 547 0 
z
" transform="scale(0.015625)"/>
      <path id="Corbel-31" d="M 1409 447 
L 1409 2453 
L 281 2100 
L 281 2550 
L 1475 2969 
L 1894 2969 
L 1894 447 
L 2713 447 
L 2713 0 
L 413 0 
L 413 447 
L 1409 447 
z
" transform="scale(0.015625)"/>
      <path id="Corbel-32" d="M 1275 428 
Q 1634 447 1922 447 
L 2897 447 
L 2897 0 
L 484 0 
L 484 322 
Q 844 588 1147 817 
Q 1450 1047 1670 1258 
Q 1891 1469 2016 1669 
Q 2141 1869 2141 2072 
Q 2141 2344 1966 2487 
Q 1791 2631 1463 2631 
Q 1219 2628 989 2559 
Q 759 2491 516 2378 
L 516 2791 
Q 694 2894 955 2970 
Q 1216 3047 1528 3047 
Q 1775 3047 1979 2984 
Q 2184 2922 2332 2801 
Q 2481 2681 2562 2504 
Q 2644 2328 2644 2097 
Q 2644 1850 2537 1636 
Q 2431 1422 2247 1225 
Q 2063 1028 1813 836 
Q 1563 644 1275 441 
L 1275 428 
z
" transform="scale(0.015625)"/>
     </defs>
     <use xlink:href="#Corbel-38"/>
     <use xlink:href="#Corbel-2e" x="51.464844"/>
     <use xlink:href="#Corbel-31" x="77.880859"/>
     <use xlink:href="#Corbel-32" x="122.705078"/>
    </g>
   </g>
   <g id="text_3">
    <!-- 3.33 -->
    <g transform="translate(194.756672 144.177687)scale(0.1 -0.1)">
     <defs>
      <path id="Corbel-33" d="M 1744 963 
Q 1909 947 2061 881 
Q 2213 816 2330 694 
Q 2447 572 2517 394 
Q 2588 216 2588 -25 
Q 2588 -313 2491 -547 
Q 2394 -781 2206 -947 
Q 2019 -1113 1742 -1202 
Q 1466 -1291 1103 -1291 
Q 850 -1291 620 -1244 
Q 391 -1197 213 -1106 
L 213 -694 
Q 438 -791 656 -833 
Q 875 -875 1069 -875 
Q 1356 -875 1550 -804 
Q 1744 -734 1861 -618 
Q 1978 -503 2029 -351 
Q 2081 -200 2081 -34 
Q 2081 372 1822 551 
Q 1563 731 1072 731 
L 741 731 
L 741 1147 
L 934 1147 
Q 1203 1147 1395 1208 
Q 1588 1269 1713 1376 
Q 1838 1484 1895 1629 
Q 1953 1775 1953 1944 
Q 1953 2122 1889 2251 
Q 1825 2381 1714 2465 
Q 1603 2550 1453 2590 
Q 1303 2631 1131 2631 
Q 919 2631 703 2581 
Q 488 2531 278 2447 
L 278 2859 
Q 534 2966 767 3006 
Q 1000 3047 1178 3047 
Q 1481 3047 1718 2965 
Q 1956 2884 2120 2737 
Q 2284 2591 2371 2391 
Q 2459 2191 2459 1950 
Q 2459 1791 2421 1641 
Q 2384 1491 2298 1362 
Q 2213 1234 2077 1134 
Q 1941 1034 1744 975 
L 1744 963 
z
" transform="scale(0.015625)"/>
     </defs>
     <use xlink:href="#Corbel-33"/>
     <use xlink:href="#Corbel-2e" x="45.3125"/>
     <use xlink:href="#Corbel-33" x="71.728516"/>
     <use xlink:href="#Corbel-33" x="117.041016"/>
    </g>
   </g>
   <g id="text_4">
    <!-- sprinting speed $[m/s]$ -->
    <g transform="translate(97.56 15.6)scale(0.12 -0.12)">
     <defs>
      <path id="Corbel-73" d="M 781 2178 
Q 781 2056 834 1978 
Q 888 1900 977 1851 
Q 1066 1803 1183 1772 
Q 1300 1741 1425 1716 
Q 1597 1678 1750 1633 
Q 1903 1588 2033 1497 
Q 2163 1406 2242 1251 
Q 2322 1097 2322 850 
Q 2322 625 2234 451 
Q 2147 278 1987 161 
Q 1828 44 1606 -17 
Q 1384 -78 1119 -78 
Q 956 -78 823 -61 
Q 691 -44 589 -17 
Q 488 9 416 37 
Q 344 66 297 91 
L 297 497 
Q 484 422 668 378 
Q 853 334 1075 334 
Q 1250 334 1390 365 
Q 1531 397 1632 458 
Q 1734 519 1789 611 
Q 1844 703 1844 825 
Q 1844 950 1794 1031 
Q 1744 1113 1659 1166 
Q 1575 1219 1464 1253 
Q 1353 1288 1231 1316 
Q 1072 1350 908 1397 
Q 744 1444 609 1528 
Q 475 1613 392 1758 
Q 309 1903 309 2131 
Q 309 2366 393 2537 
Q 478 2709 622 2821 
Q 766 2934 956 2990 
Q 1147 3047 1359 3047 
Q 1606 3047 1817 3000 
Q 2028 2953 2200 2881 
L 2200 2469 
Q 2013 2541 1820 2586 
Q 1628 2631 1425 2634 
Q 1253 2634 1131 2600 
Q 1009 2566 931 2505 
Q 853 2444 817 2361 
Q 781 2278 781 2178 
z
" transform="scale(0.015625)"/>
      <path id="Corbel-70" d="M 2594 1513 
Q 2594 1772 2539 1978 
Q 2484 2184 2375 2329 
Q 2266 2475 2106 2553 
Q 1947 2631 1738 2631 
Q 1588 2631 1464 2590 
Q 1341 2550 1241 2487 
Q 1141 2425 1069 2353 
Q 997 2281 953 2225 
L 953 672 
Q 1106 516 1301 425 
Q 1497 334 1722 334 
Q 1859 334 2012 386 
Q 2166 438 2295 570 
Q 2425 703 2509 931 
Q 2594 1159 2594 1513 
z
M 3100 1519 
Q 3100 1209 3039 970 
Q 2978 731 2878 553 
Q 2778 375 2643 254 
Q 2509 134 2365 60 
Q 2222 -13 2073 -45 
Q 1925 -78 1794 -78 
Q 1522 -78 1322 11 
Q 1122 100 963 275 
L 953 275 
L 953 -1453 
L 469 -1453 
L 469 2969 
L 834 2969 
L 938 2631 
L 947 2631 
Q 988 2694 1052 2753 
Q 1116 2813 1223 2880 
Q 1331 2947 1482 2997 
Q 1634 3047 1813 3047 
Q 2063 3047 2295 2962 
Q 2528 2878 2706 2693 
Q 2884 2509 2992 2220 
Q 3100 1931 3100 1519 
z
" transform="scale(0.015625)"/>
      <path id="Corbel-72" d="M 2097 2575 
L 2059 2575 
Q 1888 2575 1722 2544 
Q 1556 2513 1411 2448 
Q 1266 2384 1148 2290 
Q 1031 2197 953 2069 
L 953 0 
L 469 0 
L 469 2969 
L 844 2969 
L 938 2497 
L 947 2497 
Q 1019 2613 1123 2713 
Q 1228 2813 1359 2888 
Q 1491 2963 1647 3005 
Q 1803 3047 1975 3047 
Q 2006 3047 2039 3045 
Q 2072 3044 2097 3041 
L 2097 2575 
z
" transform="scale(0.015625)"/>
      <path id="Corbel-69" d="M 500 0 
L 500 2969 
L 984 2969 
L 984 0 
L 500 0 
z
M 488 3659 
L 488 4200 
L 997 4200 
L 997 3659 
L 488 3659 
z
" transform="scale(0.015625)"/>
      <path id="Corbel-6e" d="M 938 2556 
L 947 2556 
Q 1028 2659 1126 2748 
Q 1225 2838 1347 2905 
Q 1469 2972 1614 3009 
Q 1759 3047 1931 3047 
Q 2134 3047 2312 2990 
Q 2491 2934 2622 2809 
Q 2753 2684 2829 2482 
Q 2906 2281 2906 1988 
L 2906 0 
L 2422 0 
L 2422 1909 
Q 2422 2294 2273 2462 
Q 2125 2631 1841 2631 
Q 1591 2631 1356 2492 
Q 1122 2353 953 2109 
L 953 0 
L 469 0 
L 469 2969 
L 844 2969 
L 938 2556 
z
" transform="scale(0.015625)"/>
      <path id="Corbel-74" d="M 2034 -6 
Q 1972 -31 1844 -53 
Q 1716 -75 1538 -78 
Q 1303 -78 1131 -20 
Q 959 38 845 145 
Q 731 253 675 406 
Q 619 559 619 747 
L 619 2553 
L 47 2553 
L 47 2969 
L 619 2969 
L 619 3781 
L 1103 3781 
L 1103 2969 
L 1991 2969 
L 1991 2553 
L 1103 2553 
L 1103 822 
Q 1103 719 1133 631 
Q 1163 544 1227 480 
Q 1291 416 1391 380 
Q 1491 344 1631 344 
Q 1728 344 1836 359 
Q 1944 375 2034 400 
L 2034 -6 
z
" transform="scale(0.015625)"/>
      <path id="Corbel-67" d="M 803 1466 
Q 803 1116 887 894 
Q 972 672 1101 548 
Q 1231 425 1384 379 
Q 1538 334 1675 334 
Q 1900 334 2097 425 
Q 2294 516 2444 672 
L 2444 2225 
Q 2403 2281 2331 2353 
Q 2259 2425 2164 2486 
Q 2069 2547 1947 2589 
Q 1825 2631 1681 2631 
Q 1466 2631 1302 2545 
Q 1138 2459 1027 2306 
Q 916 2153 859 1939 
Q 803 1725 803 1466 
z
M 1619 3047 
Q 1813 3044 1956 2997 
Q 2100 2950 2203 2879 
Q 2306 2809 2367 2740 
Q 2428 2672 2450 2631 
L 2463 2631 
L 2563 2969 
L 2928 2969 
L 2928 -175 
Q 2928 -519 2815 -773 
Q 2703 -1028 2500 -1197 
Q 2297 -1366 2011 -1448 
Q 1725 -1531 1378 -1531 
Q 1084 -1531 853 -1479 
Q 622 -1428 491 -1356 
L 491 -947 
Q 597 -991 697 -1020 
Q 797 -1050 903 -1070 
Q 1009 -1091 1120 -1100 
Q 1231 -1109 1366 -1109 
Q 1888 -1109 2166 -865 
Q 2444 -622 2444 -122 
L 2444 275 
L 2434 275 
Q 2275 100 2064 11 
Q 1853 -78 1581 -78 
Q 1456 -78 1312 -50 
Q 1169 -22 1025 45 
Q 881 113 750 223 
Q 619 334 519 501 
Q 419 669 358 897 
Q 297 1125 297 1425 
Q 297 1841 409 2145 
Q 522 2450 706 2650 
Q 891 2850 1128 2948 
Q 1366 3047 1619 3047 
z
" transform="scale(0.015625)"/>
      <path id="Corbel-20" transform="scale(0.015625)"/>
      <path id="Corbel-65" d="M 1631 2631 
Q 1466 2631 1323 2565 
Q 1181 2500 1075 2387 
Q 969 2275 903 2123 
Q 838 1972 822 1800 
L 2322 1800 
Q 2322 1975 2276 2126 
Q 2231 2278 2143 2390 
Q 2056 2503 1928 2567 
Q 1800 2631 1631 2631 
z
M 1897 344 
Q 2138 344 2336 383 
Q 2534 422 2731 494 
L 2731 91 
Q 2572 13 2337 -32 
Q 2103 -78 1834 -78 
Q 1516 -78 1236 3 
Q 956 84 747 265 
Q 538 447 417 739 
Q 297 1031 297 1444 
Q 297 1850 409 2148 
Q 522 2447 709 2647 
Q 897 2847 1140 2947 
Q 1384 3047 1650 3047 
Q 1900 3047 2117 2964 
Q 2334 2881 2493 2703 
Q 2653 2525 2745 2244 
Q 2838 1963 2838 1569 
Q 2838 1531 2838 1504 
Q 2838 1478 2834 1384 
L 797 1384 
Q 797 1100 883 901 
Q 969 703 1117 579 
Q 1266 456 1466 400 
Q 1666 344 1897 344 
z
" transform="scale(0.015625)"/>
      <path id="Corbel-64" d="M 803 1453 
Q 803 1197 861 989 
Q 919 781 1028 636 
Q 1138 491 1297 412 
Q 1456 334 1663 334 
Q 1816 334 1941 375 
Q 2066 416 2164 478 
Q 2263 541 2333 611 
Q 2403 681 2444 741 
L 2444 2294 
Q 2294 2447 2097 2539 
Q 1900 2631 1672 2631 
Q 1534 2631 1382 2579 
Q 1231 2528 1101 2393 
Q 972 2259 887 2032 
Q 803 1806 803 1453 
z
M 297 1447 
Q 297 1756 358 1995 
Q 419 2234 519 2412 
Q 619 2591 753 2711 
Q 888 2831 1031 2906 
Q 1175 2981 1323 3014 
Q 1472 3047 1603 3047 
Q 1875 3047 2075 2956 
Q 2275 2866 2434 2691 
L 2444 2691 
L 2444 4525 
L 2928 4525 
L 2928 0 
L 2563 0 
L 2463 331 
L 2450 331 
Q 2394 259 2319 186 
Q 2244 113 2142 53 
Q 2041 -6 1908 -42 
Q 1775 -78 1600 -78 
Q 1356 -78 1122 5 
Q 888 88 705 270 
Q 522 453 409 742 
Q 297 1031 297 1447 
z
" transform="scale(0.015625)"/>
      <path id="Cmr10-5b" d="M 756 -1600 
L 756 4800 
L 1631 4800 
L 1631 4544 
L 1013 4544 
L 1013 -1344 
L 1631 -1344 
L 1631 -1600 
L 756 -1600 
z
" transform="scale(0.015625)"/>
      <path id="Cmmi10-6d" d="M 494 109 
Q 494 147 500 166 
L 978 2075 
Q 1025 2253 1025 2388 
Q 1025 2663 838 2663 
Q 638 2663 541 2423 
Q 444 2184 353 1819 
Q 353 1800 334 1789 
Q 316 1778 300 1778 
L 225 1778 
Q 203 1778 187 1801 
Q 172 1825 172 1844 
Q 241 2122 305 2315 
Q 369 2509 505 2668 
Q 641 2828 844 2828 
Q 1084 2828 1268 2676 
Q 1453 2525 1453 2291 
Q 1644 2541 1900 2684 
Q 2156 2828 2444 2828 
Q 2747 2828 2967 2673 
Q 3188 2519 3188 2234 
Q 3384 2513 3648 2670 
Q 3913 2828 4225 2828 
Q 4556 2828 4757 2648 
Q 4959 2469 4959 2138 
Q 4959 1875 4842 1503 
Q 4725 1131 4550 672 
Q 4459 450 4459 288 
Q 4459 97 4609 97 
Q 4859 97 5025 365 
Q 5191 634 5259 941 
Q 5278 978 5313 978 
L 5388 978 
Q 5413 978 5430 961 
Q 5447 944 5447 922 
Q 5447 916 5441 903 
Q 5353 541 5136 234 
Q 4919 -72 4594 -72 
Q 4369 -72 4209 83 
Q 4050 238 4050 459 
Q 4050 572 4103 709 
Q 4284 1191 4404 1569 
Q 4525 1947 4525 2234 
Q 4525 2413 4453 2538 
Q 4381 2663 4213 2663 
Q 3863 2663 3606 2448 
Q 3350 2234 3163 1881 
Q 3150 1819 3144 1784 
L 2731 141 
Q 2709 53 2632 -9 
Q 2556 -72 2463 -72 
Q 2388 -72 2330 -22 
Q 2272 28 2272 109 
Q 2272 147 2278 166 
L 2688 1797 
Q 2753 2059 2753 2234 
Q 2753 2413 2679 2538 
Q 2606 2663 2431 2663 
Q 2197 2663 2000 2559 
Q 1803 2456 1656 2286 
Q 1509 2116 1388 1881 
L 953 141 
Q 931 53 854 -9 
Q 778 -72 684 -72 
Q 606 -72 550 -22 
Q 494 28 494 109 
z
" transform="scale(0.015625)"/>
      <path id="Cmmi10-3d" d="M 359 -1472 
Q 359 -1453 366 -1447 
L 2591 4722 
Q 2603 4759 2634 4779 
Q 2666 4800 2706 4800 
Q 2763 4800 2798 4765 
Q 2834 4731 2834 4672 
L 2834 4647 
L 609 -1522 
Q 572 -1600 488 -1600 
Q 434 -1600 396 -1562 
Q 359 -1525 359 -1472 
z
" transform="scale(0.015625)"/>
      <path id="Cmmi10-73" d="M 556 391 
Q 728 97 1247 97 
Q 1472 97 1675 173 
Q 1878 250 2011 403 
Q 2144 556 2144 775 
Q 2144 941 2025 1047 
Q 1906 1153 1734 1191 
L 1388 1259 
Q 1150 1319 997 1481 
Q 844 1644 844 1875 
Q 844 2159 998 2378 
Q 1153 2597 1406 2712 
Q 1659 2828 1931 2828 
Q 2222 2828 2451 2689 
Q 2681 2550 2681 2278 
Q 2681 2131 2598 2018 
Q 2516 1906 2369 1906 
Q 2284 1906 2223 1961 
Q 2163 2016 2163 2100 
Q 2163 2175 2205 2245 
Q 2247 2316 2317 2358 
Q 2388 2400 2463 2400 
Q 2406 2538 2251 2600 
Q 2097 2663 1919 2663 
Q 1756 2663 1593 2597 
Q 1431 2531 1332 2404 
Q 1234 2278 1234 2106 
Q 1234 1991 1315 1903 
Q 1397 1816 1516 1778 
L 1888 1703 
Q 2066 1666 2214 1570 
Q 2363 1475 2448 1329 
Q 2534 1184 2534 997 
Q 2534 759 2401 528 
Q 2269 297 2075 159 
Q 1734 -72 1241 -72 
Q 900 -72 615 84 
Q 331 241 331 550 
Q 331 725 432 854 
Q 534 984 709 984 
Q 813 984 883 921 
Q 953 859 953 756 
Q 953 609 843 500 
Q 734 391 588 391 
L 556 391 
z
" transform="scale(0.015625)"/>
      <path id="Cmr10-5d" d="M 141 -1600 
L 141 -1344 
L 763 -1344 
L 763 4544 
L 141 4544 
L 141 4800 
L 1019 4800 
L 1019 -1600 
L 141 -1600 
z
" transform="scale(0.015625)"/>
     </defs>
     <use xlink:href="#Corbel-73"/>
     <use xlink:href="#Corbel-70" transform="translate(40.429688 0)"/>
     <use xlink:href="#Corbel-72" transform="translate(93.505859 0)"/>
     <use xlink:href="#Corbel-69" transform="translate(127.001953 0)"/>
     <use xlink:href="#Corbel-6e" transform="translate(150.195312 0)"/>
     <use xlink:href="#Corbel-74" transform="translate(202.929688 0)"/>
     <use xlink:href="#Corbel-69" transform="translate(237.646484 0)"/>
     <use xlink:href="#Corbel-6e" transform="translate(260.839844 0)"/>
     <use xlink:href="#Corbel-67" transform="translate(313.574219 0)"/>
     <use xlink:href="#Corbel-20" transform="translate(366.650391 0)"/>
     <use xlink:href="#Corbel-73" transform="translate(386.669922 0)"/>
     <use xlink:href="#Corbel-70" transform="translate(427.099609 0)"/>
     <use xlink:href="#Corbel-65" transform="translate(480.175781 0)"/>
     <use xlink:href="#Corbel-65" transform="translate(529.931641 0)"/>
     <use xlink:href="#Corbel-64" transform="translate(579.6875 0)"/>
     <use xlink:href="#Corbel-20" transform="translate(633.251953 0)"/>
     <use xlink:href="#Cmr10-5b" transform="translate(653.271484 0)"/>
     <use xlink:href="#Cmmi10-6d" transform="translate(680.957031 0)"/>
     <use xlink:href="#Cmmi10-3d" transform="translate(768.75 0)"/>
     <use xlink:href="#Cmmi10-73" transform="translate(818.75 0)"/>
     <use xlink:href="#Cmr10-5d" transform="translate(865.527344 0)"/>
    </g>
   </g>
   <g id="legend_1">
    <g id="patch_6">
     <path d="M 266.2 144.68125 
L 357.476562 144.68125 
Q 359.476562 144.68125 359.476562 142.68125 
L 359.476562 115 
Q 359.476562 113 357.476562 113 
L 266.2 113 
Q 264.2 113 264.2 115 
L 264.2 142.68125 
Q 264.2 144.68125 266.2 144.68125 
z
" style="fill: #ffffff; opacity: 0.8; stroke: #cccccc; stroke-linejoin: miter"/>
    </g>
    <g id="patch_7">
     <path d="M 268.2 124.070312 
L 288.2 124.070312 
L 288.2 117.070312 
L 268.2 117.070312 
z
" style="fill: #666666"/>
    </g>
    <g id="text_5">
     <!-- GEN -->
     <g transform="translate(296.2 124.070312)scale(0.1 -0.1)">
      <defs>
       <path id="Corbel-47" d="M 3266 1691 
L 2313 1691 
L 2313 2150 
L 3775 2150 
L 3775 128 
Q 3709 94 3582 58 
Q 3456 22 3293 -9 
Q 3131 -41 2945 -59 
Q 2759 -78 2578 -78 
Q 2041 -78 1630 69 
Q 1219 216 941 484 
Q 663 753 519 1137 
Q 375 1522 375 1994 
Q 375 2506 542 2925 
Q 709 3344 1014 3641 
Q 1319 3938 1742 4098 
Q 2166 4259 2675 4259 
Q 2813 4259 2950 4248 
Q 3088 4238 3213 4217 
Q 3338 4197 3444 4169 
Q 3550 4141 3622 4109 
L 3622 3659 
Q 3434 3722 3190 3764 
Q 2947 3806 2703 3806 
Q 2347 3806 2023 3698 
Q 1700 3591 1453 3372 
Q 1206 3153 1059 2823 
Q 913 2494 913 2050 
Q 913 1616 1033 1300 
Q 1153 984 1373 778 
Q 1594 572 1908 473 
Q 2222 375 2606 375 
Q 2784 375 2957 394 
Q 3131 413 3266 447 
L 3266 1691 
z
" transform="scale(0.015625)"/>
       <path id="Corbel-45" d="M 1041 459 
L 3184 459 
L 3184 0 
L 531 0 
L 531 4181 
L 3069 4181 
L 3069 3722 
L 1041 3722 
L 1041 2372 
L 2844 2372 
L 2844 1913 
L 1041 1913 
L 1041 459 
z
" transform="scale(0.015625)"/>
       <path id="Corbel-4e" d="M 2678 1850 
Q 3063 1297 3438 713 
L 3456 713 
Q 3416 1322 3416 1956 
L 3416 4181 
L 3925 4181 
L 3925 0 
L 3419 0 
L 1778 2331 
Q 1353 2941 1019 3469 
L 1000 3469 
Q 1041 2897 1041 2134 
L 1041 0 
L 531 0 
L 531 4181 
L 1038 4181 
L 2678 1850 
z
" transform="scale(0.015625)"/>
      </defs>
      <use xlink:href="#Corbel-47"/>
      <use xlink:href="#Corbel-45" x="66.796875"/>
      <use xlink:href="#Corbel-4e" x="121.923828"/>
     </g>
    </g>
    <g id="patch_8">
     <path d="M 268.2 138.410937 
L 288.2 138.410937 
L 288.2 131.410937 
L 268.2 131.410937 
z
" style="fill: #beaed4"/>
    </g>
    <g id="text_6">
     <!-- SPRINT_SKEL -->
     <g transform="translate(296.2 138.410937)scale(0.1 -0.1)">
      <defs>
       <path id="Corbel-53" d="M 919 3075 
Q 919 2891 994 2770 
Q 1069 2650 1195 2572 
Q 1322 2494 1489 2444 
Q 1656 2394 1838 2350 
Q 2081 2291 2317 2219 
Q 2553 2147 2737 2020 
Q 2922 1894 3036 1691 
Q 3150 1488 3150 1169 
Q 3150 844 3029 608 
Q 2909 372 2695 220 
Q 2481 69 2184 -4 
Q 1888 -78 1534 -78 
Q 1372 -78 1201 -58 
Q 1031 -38 876 -3 
Q 722 31 597 75 
Q 472 119 400 163 
L 400 628 
Q 513 572 653 525 
Q 794 478 944 445 
Q 1094 413 1247 394 
Q 1400 375 1534 375 
Q 1753 375 1951 412 
Q 2150 450 2300 537 
Q 2450 625 2537 776 
Q 2625 928 2625 1156 
Q 2625 1344 2548 1466 
Q 2472 1588 2344 1667 
Q 2216 1747 2048 1797 
Q 1881 1847 1697 1891 
Q 1453 1947 1220 2017 
Q 988 2088 805 2213 
Q 622 2338 511 2534 
Q 400 2731 400 3038 
Q 400 3356 512 3586 
Q 625 3816 819 3966 
Q 1013 4116 1272 4187 
Q 1531 4259 1825 4259 
Q 2159 4259 2448 4195 
Q 2738 4131 2978 4028 
L 2978 3556 
Q 2719 3666 2442 3734 
Q 2166 3803 1850 3806 
Q 1613 3806 1438 3754 
Q 1263 3703 1147 3608 
Q 1031 3513 975 3377 
Q 919 3241 919 3075 
z
" transform="scale(0.015625)"/>
       <path id="Corbel-50" d="M 1041 0 
L 531 0 
L 531 4181 
L 1691 4181 
Q 1950 4181 2170 4150 
Q 2391 4119 2575 4053 
Q 2950 3919 3144 3651 
Q 3338 3384 3338 2994 
Q 3338 2675 3211 2433 
Q 3084 2191 2843 2028 
Q 2603 1866 2258 1783 
Q 1913 1700 1475 1700 
Q 1266 1700 1041 1719 
L 1041 0 
z
M 1041 2184 
Q 1144 2172 1256 2165 
Q 1369 2159 1469 2159 
Q 1828 2159 2081 2215 
Q 2334 2272 2493 2380 
Q 2653 2488 2725 2642 
Q 2797 2797 2797 2994 
Q 2797 3238 2680 3394 
Q 2563 3550 2347 3631 
Q 2213 3681 2038 3701 
Q 1863 3722 1631 3722 
L 1041 3722 
L 1041 2184 
z
" transform="scale(0.015625)"/>
       <path id="Corbel-52" d="M 1041 1731 
L 1041 0 
L 531 0 
L 531 4181 
L 1616 4181 
Q 1891 4181 2083 4161 
Q 2275 4141 2434 4097 
Q 2872 3978 3103 3692 
Q 3334 3406 3334 2978 
Q 3334 2725 3253 2525 
Q 3172 2325 3025 2178 
Q 2878 2031 2673 1937 
Q 2469 1844 2219 1800 
L 2219 1788 
L 3584 0 
L 2944 0 
L 1656 1731 
L 1041 1731 
z
M 1041 3722 
L 1041 2191 
L 1544 2191 
Q 1778 2191 1943 2206 
Q 2109 2222 2241 2263 
Q 2506 2344 2650 2522 
Q 2794 2700 2794 2988 
Q 2791 3256 2656 3420 
Q 2522 3584 2284 3656 
Q 2172 3691 2015 3706 
Q 1859 3722 1619 3722 
L 1041 3722 
z
" transform="scale(0.015625)"/>
       <path id="Corbel-49" d="M 531 0 
L 531 4181 
L 1041 4181 
L 1041 0 
L 531 0 
z
" transform="scale(0.015625)"/>
       <path id="Corbel-54" d="M 2031 0 
L 1522 0 
L 1522 3722 
L 125 3722 
L 125 4181 
L 3428 4181 
L 3428 3722 
L 2031 3722 
L 2031 0 
z
" transform="scale(0.015625)"/>
       <path id="Corbel-5f" d="M 0 -444 
L 3125 -444 
L 3125 -859 
L 0 -859 
L 0 -444 
z
" transform="scale(0.015625)"/>
       <path id="Corbel-4b" d="M 531 0 
L 531 4181 
L 1041 4181 
L 1041 2116 
L 1047 2116 
L 2969 4181 
L 3597 4181 
L 1647 2100 
L 3747 0 
L 3084 0 
L 1047 2047 
L 1041 2047 
L 1041 0 
L 531 0 
z
" transform="scale(0.015625)"/>
       <path id="Corbel-4c" d="M 1041 4181 
L 1041 459 
L 3081 459 
L 3081 0 
L 531 0 
L 531 4181 
L 1041 4181 
z
" transform="scale(0.015625)"/>
      </defs>
      <use xlink:href="#Corbel-53"/>
      <use xlink:href="#Corbel-50" x="55.175781"/>
      <use xlink:href="#Corbel-52" x="112.207031"/>
      <use xlink:href="#Corbel-49" x="171.386719"/>
      <use xlink:href="#Corbel-4e" x="195.947266"/>
      <use xlink:href="#Corbel-54" x="265.576172"/>
      <use xlink:href="#Corbel-5f" x="321.09375"/>
      <use xlink:href="#Corbel-53" x="369.921875"/>
      <use xlink:href="#Corbel-4b" x="425.097656"/>
      <use xlink:href="#Corbel-45" x="485.595703"/>
      <use xlink:href="#Corbel-4c" x="540.722656"/>
     </g>
    </g>
   </g>
  </g>
 </g>
 <defs>
  <clipPath id="p6b283a5f3e">
   <rect x="43.2" y="21.6" width="216" height="172.8"/>
  </clipPath>
 </defs>
</svg>
