<?xml version="1.0" encoding="utf-8" standalone="no"?>
<!DOCTYPE svg PUBLIC "-//W3C//DTD SVG 1.1//EN"
  "http://www.w3.org/Graphics/SVG/1.1/DTD/svg11.dtd">
<svg xmlns:xlink="http://www.w3.org/1999/xlink" width="432pt" height="216pt" viewBox="0 0 432 216" xmlns="http://www.w3.org/2000/svg" version="1.1">
 <metadata>
  <rdf:RDF xmlns:dc="http://purl.org/dc/elements/1.1/" xmlns:cc="http://creativecommons.org/ns#" xmlns:rdf="http://www.w3.org/1999/02/22-rdf-syntax-ns#">
   <cc:Work>
    <dc:type rdf:resource="http://purl.org/dc/dcmitype/StillImage"/>
    <dc:date>2022-12-21T07:10:46.150975</dc:date>
    <dc:format>image/svg+xml</dc:format>
    <dc:creator>
     <cc:Agent>
      <dc:title>Matplotlib v3.5.1, https://matplotlib.org/</dc:title>
     </cc:Agent>
    </dc:creator>
   </cc:Work>
  </rdf:RDF>
 </metadata>
 <defs>
  <style type="text/css">*{stroke-linejoin: round; stroke-linecap: butt}</style>
 </defs>
 <g id="figure_1">
  <g id="patch_1">
   <path d="M 0 216 
L 432 216 
L 432 0 
L 0 0 
z
" style="fill: #ffffff"/>
  </g>
  <g id="axes_1">
   <g id="patch_2">
    <path d="M 43.2 194.4 
L 259.2 194.4 
L 259.2 21.6 
L 43.2 21.6 
z
" style="fill: #ffffff"/>
   </g>
   <g id="patch_3">
    <path d="M 53.018182 194.4 
L 113.958621 194.4 
L 113.958621 53.018182 
L 53.018182 53.018182 
z
" clip-path="url(#pc9848e956b)" style="fill: #666666"/>
   </g>
   <g id="patch_4">
    <path d="M 120.729781 194.4 
L 181.670219 194.4 
L 181.670219 37.309091 
L 120.729781 37.309091 
z
" clip-path="url(#pc9848e956b)" style="fill: #386cb0"/>
   </g>
   <g id="patch_5">
    <path d="M 188.441379 194.4 
L 249.381818 194.4 
L 249.381818 71.869091 
L 188.441379 71.869091 
z
" clip-path="url(#pc9848e956b)" style="fill: #7fc97f"/>
   </g>
   <g id="matplotlib.axis_1"/>
   <g id="matplotlib.axis_2">
    <g id="ytick_1">
     <g id="line2d_1">
      <defs>
       <path id="m1fcd158d76" d="M 0 0 
L -3.5 0 
" style="stroke: #000000; stroke-width: 0.8"/>
      </defs>
      <g>
       <use xlink:href="#m1fcd158d76" x="43.2" y="194.4" style="stroke: #000000; stroke-width: 0.8"/>
      </g>
     </g>
     <g id="text_1">
      <!-- 0 -->
      <g transform="translate(31.0625 197.935156)scale(0.1 -0.1)">
       <defs>
        <path id="Corbel-30" d="M 2500 1481 
Q 2500 1750 2439 1964 
Q 2378 2178 2267 2326 
Q 2156 2475 1998 2554 
Q 1841 2634 1644 2634 
Q 1447 2634 1289 2554 
Q 1131 2475 1018 2326 
Q 906 2178 847 1964 
Q 788 1750 788 1481 
Q 788 1216 848 1002 
Q 909 788 1020 641 
Q 1131 494 1290 414 
Q 1450 334 1647 334 
Q 1844 334 2001 414 
Q 2159 494 2270 641 
Q 2381 788 2440 1002 
Q 2500 1216 2500 1481 
z
M 3006 1481 
Q 3006 1150 2914 864 
Q 2822 578 2647 368 
Q 2472 159 2220 40 
Q 1969 -78 1647 -78 
Q 1316 -78 1061 40 
Q 806 159 632 368 
Q 459 578 370 864 
Q 281 1150 281 1481 
Q 281 1816 373 2102 
Q 466 2388 641 2598 
Q 816 2809 1069 2928 
Q 1322 3047 1644 3047 
Q 1972 3047 2226 2928 
Q 2481 2809 2654 2598 
Q 2828 2388 2917 2102 
Q 3006 1816 3006 1481 
z
" transform="scale(0.015625)"/>
       </defs>
       <use xlink:href="#Corbel-30"/>
      </g>
     </g>
    </g>
   </g>
   <g id="patch_6">
    <path d="M 43.2 194.4 
L 259.2 194.4 
" style="fill: none; stroke: #000000; stroke-width: 0.8; stroke-linejoin: miter; stroke-linecap: square"/>
   </g>
   <g id="text_2">
    <!-- 45 -->
    <g transform="translate(78.505589 50.747869)scale(0.1 -0.1)">
     <defs>
      <path id="Corbel-34" d="M 841 416 
L 841 403 
L 1303 416 
L 1988 416 
L 1988 1366 
L 2472 1366 
L 2472 416 
L 3088 416 
L 3088 0 
L 2472 0 
L 2472 -1209 
L 1988 -1209 
L 1988 0 
L 288 0 
L 288 356 
L 1519 2969 
L 2041 2969 
L 841 416 
z
" transform="scale(0.015625)"/>
      <path id="Corbel-35" d="M 2744 41 
Q 2744 -247 2639 -490 
Q 2534 -734 2336 -912 
Q 2138 -1091 1853 -1191 
Q 1569 -1291 1206 -1291 
Q 969 -1291 753 -1245 
Q 538 -1200 366 -1106 
L 366 -694 
Q 597 -797 803 -833 
Q 1009 -869 1184 -869 
Q 1450 -869 1647 -798 
Q 1844 -728 1975 -606 
Q 2106 -484 2172 -323 
Q 2238 -163 2238 16 
Q 2238 231 2170 389 
Q 2103 547 1959 651 
Q 1816 756 1591 807 
Q 1366 859 1047 859 
Q 822 859 503 828 
L 800 2969 
L 2741 2969 
L 2741 2522 
L 1228 2522 
L 1053 1281 
Q 1163 1288 1228 1288 
Q 1594 1288 1876 1203 
Q 2159 1119 2351 959 
Q 2544 800 2644 569 
Q 2744 338 2744 41 
z
" transform="scale(0.015625)"/>
     </defs>
     <use xlink:href="#Corbel-34"/>
     <use xlink:href="#Corbel-35" x="51.660156"/>
    </g>
   </g>
   <g id="text_3">
    <!-- 50 -->
    <g transform="translate(146.23125 35.038778)scale(0.1 -0.1)">
     <use xlink:href="#Corbel-35"/>
     <use xlink:href="#Corbel-30" x="47.998047"/>
    </g>
   </g>
   <g id="text_4">
    <!-- 39 -->
    <g transform="translate(214.024099 69.598778)scale(0.1 -0.1)">
     <defs>
      <path id="Corbel-33" d="M 1744 963 
Q 1909 947 2061 881 
Q 2213 816 2330 694 
Q 2447 572 2517 394 
Q 2588 216 2588 -25 
Q 2588 -313 2491 -547 
Q 2394 -781 2206 -947 
Q 2019 -1113 1742 -1202 
Q 1466 -1291 1103 -1291 
Q 850 -1291 620 -1244 
Q 391 -1197 213 -1106 
L 213 -694 
Q 438 -791 656 -833 
Q 875 -875 1069 -875 
Q 1356 -875 1550 -804 
Q 1744 -734 1861 -618 
Q 1978 -503 2029 -351 
Q 2081 -200 2081 -34 
Q 2081 372 1822 551 
Q 1563 731 1072 731 
L 741 731 
L 741 1147 
L 934 1147 
Q 1203 1147 1395 1208 
Q 1588 1269 1713 1376 
Q 1838 1484 1895 1629 
Q 1953 1775 1953 1944 
Q 1953 2122 1889 2251 
Q 1825 2381 1714 2465 
Q 1603 2550 1453 2590 
Q 1303 2631 1131 2631 
Q 919 2631 703 2581 
Q 488 2531 278 2447 
L 278 2859 
Q 534 2966 767 3006 
Q 1000 3047 1178 3047 
Q 1481 3047 1718 2965 
Q 1956 2884 2120 2737 
Q 2284 2591 2371 2391 
Q 2459 2191 2459 1950 
Q 2459 1791 2421 1641 
Q 2384 1491 2298 1362 
Q 2213 1234 2077 1134 
Q 1941 1034 1744 975 
L 1744 963 
z
" transform="scale(0.015625)"/>
      <path id="Corbel-39" d="M 1200 -1291 
Q 963 -1291 758 -1242 
Q 553 -1194 397 -1109 
L 397 -694 
Q 553 -775 751 -822 
Q 950 -869 1159 -869 
Q 1447 -869 1680 -781 
Q 1913 -694 2084 -505 
Q 2256 -316 2361 -19 
Q 2466 278 2497 697 
L 2484 697 
Q 2397 644 2286 598 
Q 2175 553 2051 520 
Q 1928 488 1798 469 
Q 1669 450 1544 450 
Q 1288 450 1064 529 
Q 841 609 673 764 
Q 506 919 409 1150 
Q 313 1381 313 1684 
Q 313 1972 398 2222 
Q 484 2472 648 2655 
Q 813 2838 1055 2942 
Q 1297 3047 1606 3047 
Q 1947 3047 2209 2917 
Q 2472 2788 2650 2536 
Q 2828 2284 2920 1915 
Q 3013 1547 3013 1069 
Q 3013 747 2969 448 
Q 2925 150 2834 -112 
Q 2744 -375 2598 -592 
Q 2453 -809 2253 -964 
Q 2053 -1119 1790 -1205 
Q 1528 -1291 1200 -1291 
z
M 1613 881 
Q 1850 881 2084 954 
Q 2319 1028 2506 1141 
Q 2503 1534 2436 1817 
Q 2369 2100 2250 2281 
Q 2131 2463 1964 2548 
Q 1797 2634 1594 2634 
Q 1425 2634 1283 2575 
Q 1141 2516 1037 2400 
Q 934 2284 876 2115 
Q 819 1947 819 1731 
Q 819 1500 875 1339 
Q 931 1178 1034 1076 
Q 1138 975 1284 928 
Q 1431 881 1613 881 
z
" transform="scale(0.015625)"/>
     </defs>
     <use xlink:href="#Corbel-33"/>
     <use xlink:href="#Corbel-39" x="45.3125"/>
    </g>
   </g>
   <g id="text_5">
    <!-- normalized marathon energy cost $[kcal/kg]$ -->
    <g transform="translate(43.44 15.6)scale(0.12 -0.12)">
     <defs>
      <path id="Corbel-6e" d="M 938 2556 
L 947 2556 
Q 1028 2659 1126 2748 
Q 1225 2838 1347 2905 
Q 1469 2972 1614 3009 
Q 1759 3047 1931 3047 
Q 2134 3047 2312 2990 
Q 2491 2934 2622 2809 
Q 2753 2684 2829 2482 
Q 2906 2281 2906 1988 
L 2906 0 
L 2422 0 
L 2422 1909 
Q 2422 2294 2273 2462 
Q 2125 2631 1841 2631 
Q 1591 2631 1356 2492 
Q 1122 2353 953 2109 
L 953 0 
L 469 0 
L 469 2969 
L 844 2969 
L 938 2556 
z
" transform="scale(0.015625)"/>
      <path id="Corbel-6f" d="M 2609 1481 
Q 2609 1756 2542 1970 
Q 2475 2184 2354 2332 
Q 2234 2481 2068 2557 
Q 1903 2634 1706 2634 
Q 1509 2634 1343 2557 
Q 1178 2481 1058 2332 
Q 938 2184 870 1970 
Q 803 1756 803 1481 
Q 803 1209 870 995 
Q 938 781 1059 634 
Q 1181 488 1347 411 
Q 1513 334 1709 334 
Q 1906 334 2070 411 
Q 2234 488 2354 634 
Q 2475 781 2542 995 
Q 2609 1209 2609 1481 
z
M 3116 1481 
Q 3116 1131 3016 843 
Q 2916 556 2733 351 
Q 2550 147 2290 34 
Q 2031 -78 1709 -78 
Q 1378 -78 1117 34 
Q 856 147 673 351 
Q 491 556 394 843 
Q 297 1131 297 1481 
Q 297 1834 397 2121 
Q 497 2409 680 2615 
Q 863 2822 1123 2934 
Q 1384 3047 1706 3047 
Q 2034 3047 2296 2934 
Q 2559 2822 2740 2615 
Q 2922 2409 3019 2121 
Q 3116 1834 3116 1481 
z
" transform="scale(0.015625)"/>
      <path id="Corbel-72" d="M 2097 2575 
L 2059 2575 
Q 1888 2575 1722 2544 
Q 1556 2513 1411 2448 
Q 1266 2384 1148 2290 
Q 1031 2197 953 2069 
L 953 0 
L 469 0 
L 469 2969 
L 844 2969 
L 938 2497 
L 947 2497 
Q 1019 2613 1123 2713 
Q 1228 2813 1359 2888 
Q 1491 2963 1647 3005 
Q 1803 3047 1975 3047 
Q 2006 3047 2039 3045 
Q 2072 3044 2097 3041 
L 2097 2575 
z
" transform="scale(0.015625)"/>
      <path id="Corbel-6d" d="M 2894 0 
L 2409 0 
L 2409 1909 
Q 2409 2103 2367 2239 
Q 2325 2375 2245 2462 
Q 2166 2550 2055 2590 
Q 1944 2631 1806 2631 
Q 1547 2631 1334 2492 
Q 1122 2353 953 2109 
L 953 0 
L 469 0 
L 469 2969 
L 844 2969 
L 938 2556 
L 947 2556 
Q 1028 2659 1123 2748 
Q 1219 2838 1336 2905 
Q 1453 2972 1593 3009 
Q 1734 3047 1900 3047 
Q 2231 3047 2450 2887 
Q 2669 2728 2788 2453 
L 2800 2453 
Q 2997 2731 3250 2889 
Q 3503 3047 3841 3047 
Q 3997 3047 4172 3003 
Q 4347 2959 4494 2842 
Q 4641 2725 4737 2519 
Q 4834 2313 4834 1988 
L 4834 0 
L 4353 0 
L 4353 1909 
Q 4353 2103 4311 2239 
Q 4269 2375 4189 2462 
Q 4109 2550 3998 2590 
Q 3888 2631 3750 2631 
Q 3491 2631 3277 2492 
Q 3063 2353 2894 2109 
L 2894 0 
z
" transform="scale(0.015625)"/>
      <path id="Corbel-61" d="M 2206 328 
L 2194 328 
Q 2134 253 2043 179 
Q 1953 106 1834 48 
Q 1716 -9 1575 -43 
Q 1434 -78 1275 -78 
Q 1059 -78 879 -14 
Q 700 50 570 173 
Q 441 297 369 475 
Q 297 653 297 878 
Q 297 1100 376 1275 
Q 456 1450 600 1572 
Q 744 1694 945 1759 
Q 1147 1825 1391 1825 
Q 1622 1822 1819 1784 
Q 2016 1747 2169 1691 
L 2181 1691 
L 2181 1897 
Q 2181 2019 2165 2112 
Q 2150 2206 2113 2278 
Q 2031 2428 1853 2526 
Q 1675 2625 1372 2625 
Q 1147 2625 948 2583 
Q 750 2541 553 2466 
L 553 2872 
Q 628 2909 729 2942 
Q 831 2975 943 2998 
Q 1056 3022 1181 3034 
Q 1306 3047 1431 3047 
Q 1881 3047 2167 2887 
Q 2453 2728 2578 2466 
Q 2625 2366 2645 2245 
Q 2666 2125 2666 1981 
L 2666 0 
L 2259 0 
L 2206 328 
z
M 2181 1303 
Q 2047 1341 1862 1375 
Q 1678 1409 1456 1413 
Q 1147 1413 972 1281 
Q 797 1150 797 878 
Q 797 741 840 637 
Q 884 534 961 467 
Q 1038 400 1142 367 
Q 1247 334 1366 334 
Q 1522 334 1656 379 
Q 1791 425 1895 487 
Q 2000 550 2073 612 
Q 2147 675 2181 709 
L 2181 1303 
z
" transform="scale(0.015625)"/>
      <path id="Corbel-6c" d="M 500 0 
L 500 4525 
L 984 4525 
L 984 0 
L 500 0 
z
" transform="scale(0.015625)"/>
      <path id="Corbel-69" d="M 500 0 
L 500 2969 
L 984 2969 
L 984 0 
L 500 0 
z
M 488 3659 
L 488 4200 
L 997 4200 
L 997 3659 
L 488 3659 
z
" transform="scale(0.015625)"/>
      <path id="Corbel-7a" d="M 1900 2541 
L 1900 2553 
L 269 2553 
L 269 2969 
L 2516 2969 
L 2516 2663 
L 866 428 
L 866 416 
L 2625 416 
L 2625 0 
L 219 0 
L 219 263 
L 1900 2541 
z
" transform="scale(0.015625)"/>
      <path id="Corbel-65" d="M 1631 2631 
Q 1466 2631 1323 2565 
Q 1181 2500 1075 2387 
Q 969 2275 903 2123 
Q 838 1972 822 1800 
L 2322 1800 
Q 2322 1975 2276 2126 
Q 2231 2278 2143 2390 
Q 2056 2503 1928 2567 
Q 1800 2631 1631 2631 
z
M 1897 344 
Q 2138 344 2336 383 
Q 2534 422 2731 494 
L 2731 91 
Q 2572 13 2337 -32 
Q 2103 -78 1834 -78 
Q 1516 -78 1236 3 
Q 956 84 747 265 
Q 538 447 417 739 
Q 297 1031 297 1444 
Q 297 1850 409 2148 
Q 522 2447 709 2647 
Q 897 2847 1140 2947 
Q 1384 3047 1650 3047 
Q 1900 3047 2117 2964 
Q 2334 2881 2493 2703 
Q 2653 2525 2745 2244 
Q 2838 1963 2838 1569 
Q 2838 1531 2838 1504 
Q 2838 1478 2834 1384 
L 797 1384 
Q 797 1100 883 901 
Q 969 703 1117 579 
Q 1266 456 1466 400 
Q 1666 344 1897 344 
z
" transform="scale(0.015625)"/>
      <path id="Corbel-64" d="M 803 1453 
Q 803 1197 861 989 
Q 919 781 1028 636 
Q 1138 491 1297 412 
Q 1456 334 1663 334 
Q 1816 334 1941 375 
Q 2066 416 2164 478 
Q 2263 541 2333 611 
Q 2403 681 2444 741 
L 2444 2294 
Q 2294 2447 2097 2539 
Q 1900 2631 1672 2631 
Q 1534 2631 1382 2579 
Q 1231 2528 1101 2393 
Q 972 2259 887 2032 
Q 803 1806 803 1453 
z
M 297 1447 
Q 297 1756 358 1995 
Q 419 2234 519 2412 
Q 619 2591 753 2711 
Q 888 2831 1031 2906 
Q 1175 2981 1323 3014 
Q 1472 3047 1603 3047 
Q 1875 3047 2075 2956 
Q 2275 2866 2434 2691 
L 2444 2691 
L 2444 4525 
L 2928 4525 
L 2928 0 
L 2563 0 
L 2463 331 
L 2450 331 
Q 2394 259 2319 186 
Q 2244 113 2142 53 
Q 2041 -6 1908 -42 
Q 1775 -78 1600 -78 
Q 1356 -78 1122 5 
Q 888 88 705 270 
Q 522 453 409 742 
Q 297 1031 297 1447 
z
" transform="scale(0.015625)"/>
      <path id="Corbel-20" transform="scale(0.015625)"/>
      <path id="Corbel-74" d="M 2034 -6 
Q 1972 -31 1844 -53 
Q 1716 -75 1538 -78 
Q 1303 -78 1131 -20 
Q 959 38 845 145 
Q 731 253 675 406 
Q 619 559 619 747 
L 619 2553 
L 47 2553 
L 47 2969 
L 619 2969 
L 619 3781 
L 1103 3781 
L 1103 2969 
L 1991 2969 
L 1991 2553 
L 1103 2553 
L 1103 822 
Q 1103 719 1133 631 
Q 1163 544 1227 480 
Q 1291 416 1391 380 
Q 1491 344 1631 344 
Q 1728 344 1836 359 
Q 1944 375 2034 400 
L 2034 -6 
z
" transform="scale(0.015625)"/>
      <path id="Corbel-68" d="M 984 2563 
L 994 2563 
Q 1075 2666 1175 2755 
Q 1275 2844 1397 2908 
Q 1519 2972 1659 3009 
Q 1800 3047 1963 3047 
Q 2131 3047 2300 3001 
Q 2469 2956 2612 2840 
Q 2756 2725 2847 2519 
Q 2938 2313 2938 1988 
L 2938 0 
L 2453 0 
L 2453 1909 
Q 2453 2269 2317 2450 
Q 2181 2631 1872 2631 
Q 1616 2631 1384 2492 
Q 1153 2353 984 2109 
L 984 0 
L 500 0 
L 500 4525 
L 984 4525 
L 984 2563 
z
" transform="scale(0.015625)"/>
      <path id="Corbel-67" d="M 803 1466 
Q 803 1116 887 894 
Q 972 672 1101 548 
Q 1231 425 1384 379 
Q 1538 334 1675 334 
Q 1900 334 2097 425 
Q 2294 516 2444 672 
L 2444 2225 
Q 2403 2281 2331 2353 
Q 2259 2425 2164 2486 
Q 2069 2547 1947 2589 
Q 1825 2631 1681 2631 
Q 1466 2631 1302 2545 
Q 1138 2459 1027 2306 
Q 916 2153 859 1939 
Q 803 1725 803 1466 
z
M 1619 3047 
Q 1813 3044 1956 2997 
Q 2100 2950 2203 2879 
Q 2306 2809 2367 2740 
Q 2428 2672 2450 2631 
L 2463 2631 
L 2563 2969 
L 2928 2969 
L 2928 -175 
Q 2928 -519 2815 -773 
Q 2703 -1028 2500 -1197 
Q 2297 -1366 2011 -1448 
Q 1725 -1531 1378 -1531 
Q 1084 -1531 853 -1479 
Q 622 -1428 491 -1356 
L 491 -947 
Q 597 -991 697 -1020 
Q 797 -1050 903 -1070 
Q 1009 -1091 1120 -1100 
Q 1231 -1109 1366 -1109 
Q 1888 -1109 2166 -865 
Q 2444 -622 2444 -122 
L 2444 275 
L 2434 275 
Q 2275 100 2064 11 
Q 1853 -78 1581 -78 
Q 1456 -78 1312 -50 
Q 1169 -22 1025 45 
Q 881 113 750 223 
Q 619 334 519 501 
Q 419 669 358 897 
Q 297 1125 297 1425 
Q 297 1841 409 2145 
Q 522 2450 706 2650 
Q 891 2850 1128 2948 
Q 1366 3047 1619 3047 
z
" transform="scale(0.015625)"/>
      <path id="Corbel-79" d="M 94 2969 
L 591 2969 
L 1513 641 
L 1531 641 
L 2466 2969 
L 2975 2969 
L 1122 -1453 
L 641 -1453 
L 1275 59 
L 94 2969 
z
" transform="scale(0.015625)"/>
      <path id="Corbel-63" d="M 1744 3047 
Q 1959 3047 2156 3001 
Q 2353 2956 2494 2875 
L 2494 2472 
Q 2297 2547 2131 2584 
Q 1966 2622 1794 2622 
Q 1613 2622 1434 2562 
Q 1256 2503 1115 2367 
Q 975 2231 889 2007 
Q 803 1784 803 1453 
Q 803 1213 867 1009 
Q 931 806 1057 657 
Q 1184 509 1375 426 
Q 1566 344 1816 344 
Q 1997 344 2181 383 
Q 2366 422 2541 494 
L 2541 91 
Q 2488 59 2402 28 
Q 2316 -3 2212 -26 
Q 2109 -50 1993 -64 
Q 1878 -78 1763 -78 
Q 1463 -78 1195 12 
Q 928 103 728 290 
Q 528 478 412 765 
Q 297 1053 297 1447 
Q 297 1741 358 1975 
Q 419 2209 525 2387 
Q 631 2566 773 2691 
Q 916 2816 1077 2895 
Q 1238 2975 1409 3011 
Q 1581 3047 1744 3047 
z
" transform="scale(0.015625)"/>
      <path id="Corbel-73" d="M 781 2178 
Q 781 2056 834 1978 
Q 888 1900 977 1851 
Q 1066 1803 1183 1772 
Q 1300 1741 1425 1716 
Q 1597 1678 1750 1633 
Q 1903 1588 2033 1497 
Q 2163 1406 2242 1251 
Q 2322 1097 2322 850 
Q 2322 625 2234 451 
Q 2147 278 1987 161 
Q 1828 44 1606 -17 
Q 1384 -78 1119 -78 
Q 956 -78 823 -61 
Q 691 -44 589 -17 
Q 488 9 416 37 
Q 344 66 297 91 
L 297 497 
Q 484 422 668 378 
Q 853 334 1075 334 
Q 1250 334 1390 365 
Q 1531 397 1632 458 
Q 1734 519 1789 611 
Q 1844 703 1844 825 
Q 1844 950 1794 1031 
Q 1744 1113 1659 1166 
Q 1575 1219 1464 1253 
Q 1353 1288 1231 1316 
Q 1072 1350 908 1397 
Q 744 1444 609 1528 
Q 475 1613 392 1758 
Q 309 1903 309 2131 
Q 309 2366 393 2537 
Q 478 2709 622 2821 
Q 766 2934 956 2990 
Q 1147 3047 1359 3047 
Q 1606 3047 1817 3000 
Q 2028 2953 2200 2881 
L 2200 2469 
Q 2013 2541 1820 2586 
Q 1628 2631 1425 2634 
Q 1253 2634 1131 2600 
Q 1009 2566 931 2505 
Q 853 2444 817 2361 
Q 781 2278 781 2178 
z
" transform="scale(0.015625)"/>
      <path id="Cmr10-5b" d="M 756 -1600 
L 756 4800 
L 1631 4800 
L 1631 4544 
L 1013 4544 
L 1013 -1344 
L 1631 -1344 
L 1631 -1600 
L 756 -1600 
z
" transform="scale(0.015625)"/>
      <path id="Cmmi10-6b" d="M 341 116 
Q 341 153 347 172 
L 1275 3872 
Q 1300 3981 1306 4044 
Q 1306 4147 891 4147 
Q 825 4147 825 4231 
Q 828 4247 839 4287 
Q 850 4328 867 4350 
Q 884 4372 916 4372 
L 1778 4441 
L 1797 4441 
Q 1797 4434 1819 4423 
Q 1841 4413 1844 4409 
Q 1856 4378 1856 4359 
L 1184 1684 
Q 1416 1781 1767 2145 
Q 2119 2509 2317 2668 
Q 2516 2828 2816 2828 
Q 2994 2828 3119 2706 
Q 3244 2584 3244 2406 
Q 3244 2294 3197 2198 
Q 3150 2103 3065 2043 
Q 2981 1984 2869 1984 
Q 2766 1984 2695 2048 
Q 2625 2113 2625 2216 
Q 2625 2369 2733 2473 
Q 2841 2578 2994 2578 
Q 2931 2663 2803 2663 
Q 2613 2663 2436 2553 
Q 2259 2444 2054 2239 
Q 1850 2034 1681 1864 
Q 1513 1694 1369 1606 
Q 1747 1563 2025 1408 
Q 2303 1253 2303 934 
Q 2303 869 2278 769 
Q 2222 528 2222 384 
Q 2222 97 2419 97 
Q 2650 97 2770 350 
Q 2891 603 2969 941 
Q 2981 978 3022 978 
L 3097 978 
Q 3122 978 3139 962 
Q 3156 947 3156 922 
Q 3156 916 3150 903 
Q 2909 -72 2406 -72 
Q 2225 -72 2086 12 
Q 1947 97 1872 242 
Q 1797 388 1797 569 
Q 1797 672 1825 781 
Q 1844 856 1844 922 
Q 1844 1169 1625 1297 
Q 1406 1425 1125 1453 
L 800 147 
Q 775 50 703 -11 
Q 631 -72 538 -72 
Q 456 -72 398 -17 
Q 341 38 341 116 
z
" transform="scale(0.015625)"/>
      <path id="Cmmi10-63" d="M 750 763 
Q 750 484 892 290 
Q 1034 97 1300 97 
Q 1681 97 2032 272 
Q 2384 447 2606 756 
Q 2625 775 2656 775 
Q 2688 775 2720 739 
Q 2753 703 2753 672 
Q 2753 647 2741 634 
Q 2506 306 2109 117 
Q 1713 -72 1288 -72 
Q 981 -72 747 73 
Q 513 219 384 462 
Q 256 706 256 1013 
Q 256 1444 497 1869 
Q 738 2294 1138 2561 
Q 1538 2828 1978 2828 
Q 2266 2828 2495 2689 
Q 2725 2550 2725 2278 
Q 2725 2103 2623 1979 
Q 2522 1856 2350 1856 
Q 2247 1856 2176 1920 
Q 2106 1984 2106 2088 
Q 2106 2238 2215 2344 
Q 2325 2450 2472 2450 
L 2484 2450 
Q 2409 2559 2267 2611 
Q 2125 2663 1972 2663 
Q 1597 2663 1315 2342 
Q 1034 2022 892 1576 
Q 750 1131 750 763 
z
" transform="scale(0.015625)"/>
      <path id="Cmmi10-61" d="M 1113 -72 
Q 709 -72 476 233 
Q 244 538 244 953 
Q 244 1363 456 1803 
Q 669 2244 1030 2536 
Q 1391 2828 1806 2828 
Q 1997 2828 2147 2725 
Q 2297 2622 2381 2444 
Q 2453 2700 2663 2700 
Q 2744 2700 2798 2651 
Q 2853 2603 2853 2522 
Q 2853 2503 2851 2493 
Q 2850 2484 2847 2472 
L 2400 684 
Q 2356 494 2356 372 
Q 2356 97 2541 97 
Q 2741 97 2845 351 
Q 2950 606 3022 941 
Q 3034 978 3072 978 
L 3150 978 
Q 3175 978 3190 956 
Q 3206 934 3206 916 
Q 3094 469 2961 198 
Q 2828 -72 2528 -72 
Q 2313 -72 2147 54 
Q 1981 181 1941 391 
Q 1528 -72 1113 -72 
z
M 1119 97 
Q 1350 97 1567 270 
Q 1784 444 1941 678 
Q 1947 684 1947 697 
L 2291 2088 
L 2297 2106 
Q 2259 2334 2132 2498 
Q 2006 2663 1791 2663 
Q 1575 2663 1389 2486 
Q 1203 2309 1075 2069 
Q 950 1813 836 1366 
Q 722 919 722 672 
Q 722 450 817 273 
Q 913 97 1119 97 
z
" transform="scale(0.015625)"/>
      <path id="Cmmi10-6c" d="M 281 519 
Q 281 538 286 575 
Q 291 613 295 648 
Q 300 684 300 703 
L 1094 3872 
Q 1119 3981 1125 4044 
Q 1125 4147 709 4147 
Q 647 4147 647 4231 
Q 650 4247 661 4287 
Q 672 4328 689 4350 
Q 706 4372 738 4372 
L 1600 4441 
Q 1678 4441 1678 4359 
L 756 678 
Q 709 575 709 372 
Q 709 97 897 97 
Q 1094 97 1192 342 
Q 1291 588 1369 941 
Q 1381 978 1422 978 
L 1497 978 
Q 1522 978 1539 958 
Q 1556 938 1556 916 
Q 1481 606 1420 426 
Q 1359 247 1225 87 
Q 1091 -72 884 -72 
Q 628 -72 454 93 
Q 281 259 281 519 
z
" transform="scale(0.015625)"/>
      <path id="Cmmi10-3d" d="M 359 -1472 
Q 359 -1453 366 -1447 
L 2591 4722 
Q 2603 4759 2634 4779 
Q 2666 4800 2706 4800 
Q 2763 4800 2798 4765 
Q 2834 4731 2834 4672 
L 2834 4647 
L 609 -1522 
Q 572 -1600 488 -1600 
Q 434 -1600 396 -1562 
Q 359 -1525 359 -1472 
z
" transform="scale(0.015625)"/>
      <path id="Cmmi10-67" d="M 91 -916 
Q 91 -759 198 -642 
Q 306 -525 459 -525 
Q 563 -525 633 -589 
Q 703 -653 703 -756 
Q 703 -872 637 -964 
Q 572 -1056 469 -1094 
Q 641 -1147 1006 -1147 
Q 1300 -1147 1544 -920 
Q 1788 -694 1863 -397 
L 2047 353 
Q 1700 0 1325 0 
Q 1050 0 854 140 
Q 659 281 556 515 
Q 453 750 453 1013 
Q 453 1306 573 1628 
Q 694 1950 911 2225 
Q 1128 2500 1409 2664 
Q 1691 2828 2003 2828 
Q 2191 2828 2341 2725 
Q 2491 2622 2578 2450 
Q 2641 2700 2853 2700 
Q 2934 2700 2990 2651 
Q 3047 2603 3047 2522 
Q 3047 2503 3045 2493 
Q 3044 2484 3041 2472 
L 2309 -434 
Q 2259 -634 2125 -800 
Q 1991 -966 1809 -1077 
Q 1628 -1188 1412 -1250 
Q 1197 -1313 997 -1313 
Q 631 -1313 361 -1242 
Q 91 -1172 91 -916 
z
M 1338 166 
Q 1747 166 2144 728 
L 2497 2125 
Q 2453 2347 2322 2505 
Q 2191 2663 1991 2663 
Q 1778 2663 1589 2489 
Q 1400 2316 1275 2075 
Q 1156 1844 1045 1411 
Q 934 978 934 728 
Q 934 509 1034 337 
Q 1134 166 1338 166 
z
" transform="scale(0.015625)"/>
      <path id="Cmr10-5d" d="M 141 -1600 
L 141 -1344 
L 763 -1344 
L 763 4544 
L 141 4544 
L 141 4800 
L 1019 4800 
L 1019 -1600 
L 141 -1600 
z
" transform="scale(0.015625)"/>
     </defs>
     <use xlink:href="#Corbel-6e"/>
     <use xlink:href="#Corbel-6f" transform="translate(52.734375 0)"/>
     <use xlink:href="#Corbel-72" transform="translate(106.054688 0)"/>
     <use xlink:href="#Corbel-6d" transform="translate(139.550781 0)"/>
     <use xlink:href="#Corbel-61" transform="translate(222.412109 0)"/>
     <use xlink:href="#Corbel-6c" transform="translate(271.386719 0)"/>
     <use xlink:href="#Corbel-69" transform="translate(294.580078 0)"/>
     <use xlink:href="#Corbel-7a" transform="translate(317.773438 0)"/>
     <use xlink:href="#Corbel-65" transform="translate(362.207031 0)"/>
     <use xlink:href="#Corbel-64" transform="translate(411.962891 0)"/>
     <use xlink:href="#Corbel-20" transform="translate(465.527344 0)"/>
     <use xlink:href="#Corbel-6d" transform="translate(485.546875 0)"/>
     <use xlink:href="#Corbel-61" transform="translate(568.408203 0)"/>
     <use xlink:href="#Corbel-72" transform="translate(617.382812 0)"/>
     <use xlink:href="#Corbel-61" transform="translate(650.878906 0)"/>
     <use xlink:href="#Corbel-74" transform="translate(699.853516 0)"/>
     <use xlink:href="#Corbel-68" transform="translate(734.570312 0)"/>
     <use xlink:href="#Corbel-6f" transform="translate(787.792969 0)"/>
     <use xlink:href="#Corbel-6e" transform="translate(841.113281 0)"/>
     <use xlink:href="#Corbel-20" transform="translate(893.847656 0)"/>
     <use xlink:href="#Corbel-65" transform="translate(913.867188 0)"/>
     <use xlink:href="#Corbel-6e" transform="translate(963.623047 0)"/>
     <use xlink:href="#Corbel-65" transform="translate(1016.357422 0)"/>
     <use xlink:href="#Corbel-72" transform="translate(1066.113281 0)"/>
     <use xlink:href="#Corbel-67" transform="translate(1099.609375 0)"/>
     <use xlink:href="#Corbel-79" transform="translate(1152.685547 0)"/>
     <use xlink:href="#Corbel-20" transform="translate(1200.634766 0)"/>
     <use xlink:href="#Corbel-63" transform="translate(1220.654297 0)"/>
     <use xlink:href="#Corbel-6f" transform="translate(1264.501953 0)"/>
     <use xlink:href="#Corbel-73" transform="translate(1317.822266 0)"/>
     <use xlink:href="#Corbel-74" transform="translate(1358.251953 0)"/>
     <use xlink:href="#Corbel-20" transform="translate(1392.96875 0)"/>
     <use xlink:href="#Cmr10-5b" transform="translate(1412.988281 0)"/>
     <use xlink:href="#Cmmi10-6b" transform="translate(1440.673828 0)"/>
     <use xlink:href="#Cmmi10-63" transform="translate(1492.675781 0)"/>
     <use xlink:href="#Cmmi10-61" transform="translate(1535.888672 0)"/>
     <use xlink:href="#Cmmi10-6c" transform="translate(1588.671875 0)"/>
     <use xlink:href="#Cmmi10-3d" transform="translate(1618.457031 0)"/>
     <use xlink:href="#Cmmi10-6b" transform="translate(1668.457031 0)"/>
     <use xlink:href="#Cmmi10-67" transform="translate(1720.458984 0)"/>
     <use xlink:href="#Cmr10-5d" transform="translate(1768.164062 0)"/>
    </g>
   </g>
   <g id="legend_1">
    <g id="patch_7">
     <path d="M 266.2 159.021875 
L 378.165625 159.021875 
Q 380.165625 159.021875 380.165625 157.021875 
L 380.165625 115 
Q 380.165625 113 378.165625 113 
L 266.2 113 
Q 264.2 113 264.2 115 
L 264.2 157.021875 
Q 264.2 159.021875 266.2 159.021875 
z
" style="fill: #ffffff; opacity: 0.8; stroke: #cccccc; stroke-linejoin: miter"/>
    </g>
    <g id="patch_8">
     <path d="M 268.2 124.070312 
L 288.2 124.070312 
L 288.2 117.070312 
L 268.2 117.070312 
z
" style="fill: #666666"/>
    </g>
    <g id="text_6">
     <!-- GEN -->
     <g transform="translate(296.2 124.070312)scale(0.1 -0.1)">
      <defs>
       <path id="Corbel-47" d="M 3266 1691 
L 2313 1691 
L 2313 2150 
L 3775 2150 
L 3775 128 
Q 3709 94 3582 58 
Q 3456 22 3293 -9 
Q 3131 -41 2945 -59 
Q 2759 -78 2578 -78 
Q 2041 -78 1630 69 
Q 1219 216 941 484 
Q 663 753 519 1137 
Q 375 1522 375 1994 
Q 375 2506 542 2925 
Q 709 3344 1014 3641 
Q 1319 3938 1742 4098 
Q 2166 4259 2675 4259 
Q 2813 4259 2950 4248 
Q 3088 4238 3213 4217 
Q 3338 4197 3444 4169 
Q 3550 4141 3622 4109 
L 3622 3659 
Q 3434 3722 3190 3764 
Q 2947 3806 2703 3806 
Q 2347 3806 2023 3698 
Q 1700 3591 1453 3372 
Q 1206 3153 1059 2823 
Q 913 2494 913 2050 
Q 913 1616 1033 1300 
Q 1153 984 1373 778 
Q 1594 572 1908 473 
Q 2222 375 2606 375 
Q 2784 375 2957 394 
Q 3131 413 3266 447 
L 3266 1691 
z
" transform="scale(0.015625)"/>
       <path id="Corbel-45" d="M 1041 459 
L 3184 459 
L 3184 0 
L 531 0 
L 531 4181 
L 3069 4181 
L 3069 3722 
L 1041 3722 
L 1041 2372 
L 2844 2372 
L 2844 1913 
L 1041 1913 
L 1041 459 
z
" transform="scale(0.015625)"/>
       <path id="Corbel-4e" d="M 2678 1850 
Q 3063 1297 3438 713 
L 3456 713 
Q 3416 1322 3416 1956 
L 3416 4181 
L 3925 4181 
L 3925 0 
L 3419 0 
L 1778 2331 
Q 1353 2941 1019 3469 
L 1000 3469 
Q 1041 2897 1041 2134 
L 1041 0 
L 531 0 
L 531 4181 
L 1038 4181 
L 2678 1850 
z
" transform="scale(0.015625)"/>
      </defs>
      <use xlink:href="#Corbel-47"/>
      <use xlink:href="#Corbel-45" x="66.796875"/>
      <use xlink:href="#Corbel-4e" x="121.923828"/>
     </g>
    </g>
    <g id="patch_9">
     <path d="M 268.2 138.410937 
L 288.2 138.410937 
L 288.2 131.410937 
L 268.2 131.410937 
z
" style="fill: #386cb0"/>
    </g>
    <g id="text_7">
     <!-- SPRINT_SKEL -->
     <g transform="translate(296.2 138.410937)scale(0.1 -0.1)">
      <defs>
       <path id="Corbel-53" d="M 919 3075 
Q 919 2891 994 2770 
Q 1069 2650 1195 2572 
Q 1322 2494 1489 2444 
Q 1656 2394 1838 2350 
Q 2081 2291 2317 2219 
Q 2553 2147 2737 2020 
Q 2922 1894 3036 1691 
Q 3150 1488 3150 1169 
Q 3150 844 3029 608 
Q 2909 372 2695 220 
Q 2481 69 2184 -4 
Q 1888 -78 1534 -78 
Q 1372 -78 1201 -58 
Q 1031 -38 876 -3 
Q 722 31 597 75 
Q 472 119 400 163 
L 400 628 
Q 513 572 653 525 
Q 794 478 944 445 
Q 1094 413 1247 394 
Q 1400 375 1534 375 
Q 1753 375 1951 412 
Q 2150 450 2300 537 
Q 2450 625 2537 776 
Q 2625 928 2625 1156 
Q 2625 1344 2548 1466 
Q 2472 1588 2344 1667 
Q 2216 1747 2048 1797 
Q 1881 1847 1697 1891 
Q 1453 1947 1220 2017 
Q 988 2088 805 2213 
Q 622 2338 511 2534 
Q 400 2731 400 3038 
Q 400 3356 512 3586 
Q 625 3816 819 3966 
Q 1013 4116 1272 4187 
Q 1531 4259 1825 4259 
Q 2159 4259 2448 4195 
Q 2738 4131 2978 4028 
L 2978 3556 
Q 2719 3666 2442 3734 
Q 2166 3803 1850 3806 
Q 1613 3806 1438 3754 
Q 1263 3703 1147 3608 
Q 1031 3513 975 3377 
Q 919 3241 919 3075 
z
" transform="scale(0.015625)"/>
       <path id="Corbel-50" d="M 1041 0 
L 531 0 
L 531 4181 
L 1691 4181 
Q 1950 4181 2170 4150 
Q 2391 4119 2575 4053 
Q 2950 3919 3144 3651 
Q 3338 3384 3338 2994 
Q 3338 2675 3211 2433 
Q 3084 2191 2843 2028 
Q 2603 1866 2258 1783 
Q 1913 1700 1475 1700 
Q 1266 1700 1041 1719 
L 1041 0 
z
M 1041 2184 
Q 1144 2172 1256 2165 
Q 1369 2159 1469 2159 
Q 1828 2159 2081 2215 
Q 2334 2272 2493 2380 
Q 2653 2488 2725 2642 
Q 2797 2797 2797 2994 
Q 2797 3238 2680 3394 
Q 2563 3550 2347 3631 
Q 2213 3681 2038 3701 
Q 1863 3722 1631 3722 
L 1041 3722 
L 1041 2184 
z
" transform="scale(0.015625)"/>
       <path id="Corbel-52" d="M 1041 1731 
L 1041 0 
L 531 0 
L 531 4181 
L 1616 4181 
Q 1891 4181 2083 4161 
Q 2275 4141 2434 4097 
Q 2872 3978 3103 3692 
Q 3334 3406 3334 2978 
Q 3334 2725 3253 2525 
Q 3172 2325 3025 2178 
Q 2878 2031 2673 1937 
Q 2469 1844 2219 1800 
L 2219 1788 
L 3584 0 
L 2944 0 
L 1656 1731 
L 1041 1731 
z
M 1041 3722 
L 1041 2191 
L 1544 2191 
Q 1778 2191 1943 2206 
Q 2109 2222 2241 2263 
Q 2506 2344 2650 2522 
Q 2794 2700 2794 2988 
Q 2791 3256 2656 3420 
Q 2522 3584 2284 3656 
Q 2172 3691 2015 3706 
Q 1859 3722 1619 3722 
L 1041 3722 
z
" transform="scale(0.015625)"/>
       <path id="Corbel-49" d="M 531 0 
L 531 4181 
L 1041 4181 
L 1041 0 
L 531 0 
z
" transform="scale(0.015625)"/>
       <path id="Corbel-54" d="M 2031 0 
L 1522 0 
L 1522 3722 
L 125 3722 
L 125 4181 
L 3428 4181 
L 3428 3722 
L 2031 3722 
L 2031 0 
z
" transform="scale(0.015625)"/>
       <path id="Corbel-5f" d="M 0 -444 
L 3125 -444 
L 3125 -859 
L 0 -859 
L 0 -444 
z
" transform="scale(0.015625)"/>
       <path id="Corbel-4b" d="M 531 0 
L 531 4181 
L 1041 4181 
L 1041 2116 
L 1047 2116 
L 2969 4181 
L 3597 4181 
L 1647 2100 
L 3747 0 
L 3084 0 
L 1047 2047 
L 1041 2047 
L 1041 0 
L 531 0 
z
" transform="scale(0.015625)"/>
       <path id="Corbel-4c" d="M 1041 4181 
L 1041 459 
L 3081 459 
L 3081 0 
L 531 0 
L 531 4181 
L 1041 4181 
z
" transform="scale(0.015625)"/>
      </defs>
      <use xlink:href="#Corbel-53"/>
      <use xlink:href="#Corbel-50" x="55.175781"/>
      <use xlink:href="#Corbel-52" x="112.207031"/>
      <use xlink:href="#Corbel-49" x="171.386719"/>
      <use xlink:href="#Corbel-4e" x="195.947266"/>
      <use xlink:href="#Corbel-54" x="265.576172"/>
      <use xlink:href="#Corbel-5f" x="321.09375"/>
      <use xlink:href="#Corbel-53" x="369.921875"/>
      <use xlink:href="#Corbel-4b" x="425.097656"/>
      <use xlink:href="#Corbel-45" x="485.595703"/>
      <use xlink:href="#Corbel-4c" x="540.722656"/>
     </g>
    </g>
    <g id="patch_10">
     <path d="M 268.2 152.751563 
L 288.2 152.751563 
L 288.2 145.751563 
L 268.2 145.751563 
z
" style="fill: #7fc97f"/>
    </g>
    <g id="text_8">
     <!-- MARATHON_SKEL -->
     <g transform="translate(296.2 152.751563)scale(0.1 -0.1)">
      <defs>
       <path id="Corbel-4d" d="M 2747 0 
L 2513 0 
L 1459 2497 
Q 1241 3013 1022 3619 
L 997 3619 
Q 1041 2747 1041 2022 
L 1041 0 
L 531 0 
L 531 4181 
L 1266 4181 
L 2250 1816 
Q 2419 1409 2622 838 
L 2638 838 
Q 2863 1472 3009 1816 
L 3994 4181 
L 4728 4181 
L 4728 0 
L 4219 0 
L 4219 2022 
Q 4219 2731 4263 3619 
L 4238 3619 
Q 4006 2978 3800 2497 
L 2747 0 
z
" transform="scale(0.015625)"/>
       <path id="Corbel-41" d="M 109 0 
L 1813 4181 
L 2253 4181 
L 3956 0 
L 3403 0 
L 2903 1259 
L 1156 1259 
L 656 0 
L 109 0 
z
M 2028 3531 
Q 1750 2750 1494 2113 
L 1338 1719 
L 2722 1719 
L 2566 2113 
Q 2309 2763 2041 3531 
L 2028 3531 
z
" transform="scale(0.015625)"/>
       <path id="Corbel-48" d="M 1041 2372 
L 3231 2372 
L 3231 4181 
L 3741 4181 
L 3741 0 
L 3231 0 
L 3231 1913 
L 1041 1913 
L 1041 0 
L 531 0 
L 531 4181 
L 1041 4181 
L 1041 2372 
z
" transform="scale(0.015625)"/>
       <path id="Corbel-4f" d="M 3763 2088 
Q 3763 2509 3653 2831 
Q 3544 3153 3351 3368 
Q 3159 3584 2898 3695 
Q 2638 3806 2338 3806 
Q 2038 3806 1777 3695 
Q 1516 3584 1323 3368 
Q 1131 3153 1022 2831 
Q 913 2509 913 2088 
Q 913 1666 1023 1345 
Q 1134 1025 1326 809 
Q 1519 594 1780 484 
Q 2041 375 2344 375 
Q 2644 375 2901 484 
Q 3159 594 3351 809 
Q 3544 1025 3653 1345 
Q 3763 1666 3763 2088 
z
M 4300 2088 
Q 4300 1613 4162 1216 
Q 4025 819 3769 531 
Q 3513 244 3152 83 
Q 2791 -78 2344 -78 
Q 1881 -78 1515 83 
Q 1150 244 897 531 
Q 644 819 509 1216 
Q 375 1613 375 2088 
Q 375 2566 514 2964 
Q 653 3363 908 3650 
Q 1163 3938 1525 4098 
Q 1888 4259 2338 4259 
Q 2797 4259 3161 4098 
Q 3525 3938 3778 3650 
Q 4031 3363 4165 2964 
Q 4300 2566 4300 2088 
z
" transform="scale(0.015625)"/>
      </defs>
      <use xlink:href="#Corbel-4d"/>
      <use xlink:href="#Corbel-41" x="82.177734"/>
      <use xlink:href="#Corbel-52" x="145.703125"/>
      <use xlink:href="#Corbel-41" x="204.882812"/>
      <use xlink:href="#Corbel-54" x="263.033203"/>
      <use xlink:href="#Corbel-48" x="318.550781"/>
      <use xlink:href="#Corbel-4f" x="385.298828"/>
      <use xlink:href="#Corbel-4e" x="458.345703"/>
      <use xlink:href="#Corbel-5f" x="527.974609"/>
      <use xlink:href="#Corbel-53" x="576.802734"/>
      <use xlink:href="#Corbel-4b" x="631.978516"/>
      <use xlink:href="#Corbel-45" x="692.476562"/>
      <use xlink:href="#Corbel-4c" x="747.603516"/>
     </g>
    </g>
   </g>
  </g>
 </g>
 <defs>
  <clipPath id="pc9848e956b">
   <rect x="43.2" y="21.6" width="216" height="172.8"/>
  </clipPath>
 </defs>
</svg>
