<?xml version="1.0" encoding="utf-8" standalone="no"?>
<!DOCTYPE svg PUBLIC "-//W3C//DTD SVG 1.1//EN"
  "http://www.w3.org/Graphics/SVG/1.1/DTD/svg11.dtd">
<svg xmlns:xlink="http://www.w3.org/1999/xlink" width="432pt" height="216pt" viewBox="0 0 432 216" xmlns="http://www.w3.org/2000/svg" version="1.1">
 <metadata>
  <rdf:RDF xmlns:dc="http://purl.org/dc/elements/1.1/" xmlns:cc="http://creativecommons.org/ns#" xmlns:rdf="http://www.w3.org/1999/02/22-rdf-syntax-ns#">
   <cc:Work>
    <dc:type rdf:resource="http://purl.org/dc/dcmitype/StillImage"/>
    <dc:date>2022-12-21T07:10:47.045343</dc:date>
    <dc:format>image/svg+xml</dc:format>
    <dc:creator>
     <cc:Agent>
      <dc:title>Matplotlib v3.5.1, https://matplotlib.org/</dc:title>
     </cc:Agent>
    </dc:creator>
   </cc:Work>
  </rdf:RDF>
 </metadata>
 <defs>
  <style type="text/css">*{stroke-linejoin: round; stroke-linecap: butt}</style>
 </defs>
 <g id="figure_1">
  <g id="patch_1">
   <path d="M 0 216 
L 432 216 
L 432 0 
L 0 0 
z
" style="fill: #ffffff"/>
  </g>
  <g id="axes_1">
   <g id="patch_2">
    <path d="M 43.2 194.4 
L 259.2 194.4 
L 259.2 21.6 
L 43.2 21.6 
z
" style="fill: #ffffff"/>
   </g>
   <g id="patch_3">
    <path d="M 53.018182 885.6 
L 85.745455 885.6 
L 85.745455 103.68 
L 53.018182 103.68 
z
" clip-path="url(#p94daa6c962)" style="fill: #666666"/>
   </g>
   <g id="patch_4">
    <path d="M 108.803306 885.6 
L 141.530579 885.6 
L 141.530579 103.68 
L 108.803306 103.68 
z
" clip-path="url(#p94daa6c962)" style="fill: #386cb0"/>
   </g>
   <g id="patch_5">
    <path d="M 183.183471 885.6 
L 215.910744 885.6 
L 215.910744 129.6 
L 183.183471 129.6 
z
" clip-path="url(#p94daa6c962)" style="fill: #7fc97f"/>
   </g>
   <g id="PathCollection_1">
    <defs>
     <path id="m677dea4d1e" d="M 0 1.581139 
C 0.419323 1.581139 0.821528 1.41454 1.118034 1.118034 
C 1.41454 0.821528 1.581139 0.419323 1.581139 0 
C 1.581139 -0.419323 1.41454 -0.821528 1.118034 -1.118034 
C 0.821528 -1.41454 0.419323 -1.581139 0 -1.581139 
C -0.419323 -1.581139 -0.821528 -1.41454 -1.118034 -1.118034 
C -1.41454 -0.821528 -1.581139 -0.419323 -1.581139 0 
C -1.581139 0.419323 -1.41454 0.821528 -1.118034 1.118034 
C -0.821528 1.41454 -0.419323 1.581139 0 1.581139 
z
" style="stroke: #386cb0"/>
    </defs>
    <g clip-path="url(#p94daa6c962)">
     <use xlink:href="#m677dea4d1e" x="148.224793" y="38.88" style="fill: #386cb0; stroke: #386cb0"/>
    </g>
   </g>
   <g id="PathCollection_2">
    <g clip-path="url(#p94daa6c962)">
     <use xlink:href="#m677dea4d1e" x="152.687603" y="116.64" style="fill: #386cb0; stroke: #386cb0"/>
    </g>
   </g>
   <g id="PathCollection_3">
    <g clip-path="url(#p94daa6c962)">
     <use xlink:href="#m677dea4d1e" x="157.150413" y="108" style="fill: #386cb0; stroke: #386cb0"/>
    </g>
   </g>
   <g id="PathCollection_4">
    <g clip-path="url(#p94daa6c962)">
     <use xlink:href="#m677dea4d1e" x="161.613223" y="64.8" style="fill: #386cb0; stroke: #386cb0"/>
    </g>
   </g>
   <g id="PathCollection_5">
    <g clip-path="url(#p94daa6c962)">
     <use xlink:href="#m677dea4d1e" x="166.076033" y="86.4" style="fill: #386cb0; stroke: #386cb0"/>
    </g>
   </g>
   <g id="PathCollection_6">
    <g clip-path="url(#p94daa6c962)">
     <use xlink:href="#m677dea4d1e" x="170.538843" y="129.6" style="fill: #386cb0; stroke: #386cb0"/>
    </g>
   </g>
   <g id="PathCollection_7">
    <g clip-path="url(#p94daa6c962)">
     <use xlink:href="#m677dea4d1e" x="175.001653" y="129.6" style="fill: #386cb0; stroke: #386cb0"/>
    </g>
   </g>
   <g id="PathCollection_8">
    <defs>
     <path id="m5823c706e9" d="M 0 1.581139 
C 0.419323 1.581139 0.821528 1.41454 1.118034 1.118034 
C 1.41454 0.821528 1.581139 0.419323 1.581139 0 
C 1.581139 -0.419323 1.41454 -0.821528 1.118034 -1.118034 
C 0.821528 -1.41454 0.419323 -1.581139 0 -1.581139 
C -0.419323 -1.581139 -0.821528 -1.41454 -1.118034 -1.118034 
C -1.41454 -0.821528 -1.581139 -0.419323 -1.581139 0 
C -1.581139 0.419323 -1.41454 0.821528 -1.118034 1.118034 
C -0.821528 1.41454 -0.419323 1.581139 0 1.581139 
z
" style="stroke: #7fc97f"/>
    </defs>
    <g clip-path="url(#p94daa6c962)">
     <use xlink:href="#m5823c706e9" x="222.604959" y="164.16" style="fill: #7fc97f; stroke: #7fc97f"/>
    </g>
   </g>
   <g id="PathCollection_9">
    <g clip-path="url(#p94daa6c962)">
     <use xlink:href="#m5823c706e9" x="227.067769" y="172.8" style="fill: #7fc97f; stroke: #7fc97f"/>
    </g>
   </g>
   <g id="PathCollection_10">
    <g clip-path="url(#p94daa6c962)">
     <use xlink:href="#m5823c706e9" x="231.530579" y="138.24" style="fill: #7fc97f; stroke: #7fc97f"/>
    </g>
   </g>
   <g id="PathCollection_11">
    <g clip-path="url(#p94daa6c962)">
     <use xlink:href="#m5823c706e9" x="235.993388" y="125.28" style="fill: #7fc97f; stroke: #7fc97f"/>
    </g>
   </g>
   <g id="PathCollection_12">
    <g clip-path="url(#p94daa6c962)">
     <use xlink:href="#m5823c706e9" x="240.456198" y="133.92" style="fill: #7fc97f; stroke: #7fc97f"/>
    </g>
   </g>
   <g id="PathCollection_13">
    <g clip-path="url(#p94daa6c962)">
     <use xlink:href="#m5823c706e9" x="244.919008" y="138.24" style="fill: #7fc97f; stroke: #7fc97f"/>
    </g>
   </g>
   <g id="PathCollection_14">
    <g clip-path="url(#p94daa6c962)">
     <use xlink:href="#m5823c706e9" x="249.381818" y="151.2" style="fill: #7fc97f; stroke: #7fc97f"/>
    </g>
   </g>
   <g id="matplotlib.axis_1"/>
   <g id="matplotlib.axis_2">
    <g id="ytick_1">
     <g id="line2d_1">
      <defs>
       <path id="mbfd9e0dc80" d="M 0 0 
L -3.5 0 
" style="stroke: #000000; stroke-width: 0.8"/>
      </defs>
      <g>
       <use xlink:href="#mbfd9e0dc80" x="43.2" y="194.4" style="stroke: #000000; stroke-width: 0.8"/>
      </g>
     </g>
     <g id="text_1">
      <!-- 1.6 -->
      <g transform="translate(23.83125 197.935156)scale(0.1 -0.1)">
       <defs>
        <path id="Corbel-31" d="M 1409 447 
L 1409 2453 
L 281 2100 
L 281 2550 
L 1475 2969 
L 1894 2969 
L 1894 447 
L 2713 447 
L 2713 0 
L 413 0 
L 413 447 
L 1409 447 
z
" transform="scale(0.015625)"/>
        <path id="Corbel-2e" d="M 547 0 
L 547 609 
L 1144 609 
L 1144 0 
L 547 0 
z
" transform="scale(0.015625)"/>
        <path id="Corbel-36" d="M 1763 2519 
Q 2041 2519 2277 2439 
Q 2513 2359 2683 2203 
Q 2853 2047 2948 1817 
Q 3044 1588 3044 1288 
Q 3044 988 2955 736 
Q 2866 484 2697 304 
Q 2528 125 2284 23 
Q 2041 -78 1731 -78 
Q 1403 -78 1145 53 
Q 888 184 709 428 
Q 531 672 437 1019 
Q 344 1366 344 1797 
Q 344 2128 395 2439 
Q 447 2750 548 3023 
Q 650 3297 798 3523 
Q 947 3750 1144 3914 
Q 1341 4078 1584 4168 
Q 1828 4259 2116 4259 
Q 2353 4256 2525 4212 
Q 2697 4169 2813 4113 
L 2813 3706 
Q 2688 3756 2513 3797 
Q 2338 3838 2150 3838 
Q 1925 3838 1714 3745 
Q 1503 3653 1331 3461 
Q 1159 3269 1039 2973 
Q 919 2678 872 2272 
L 884 2272 
Q 1081 2384 1312 2451 
Q 1544 2519 1763 2519 
z
M 1750 334 
Q 1916 334 2059 393 
Q 2203 453 2309 568 
Q 2416 684 2477 854 
Q 2538 1025 2538 1244 
Q 2538 1478 2473 1639 
Q 2409 1800 2298 1900 
Q 2188 2000 2039 2044 
Q 1891 2088 1722 2088 
Q 1500 2088 1269 2009 
Q 1038 1931 850 1819 
Q 847 1444 914 1164 
Q 981 884 1100 700 
Q 1219 516 1386 425 
Q 1553 334 1750 334 
z
" transform="scale(0.015625)"/>
       </defs>
       <use xlink:href="#Corbel-31"/>
       <use xlink:href="#Corbel-2e" x="44.824219"/>
       <use xlink:href="#Corbel-36" x="71.240234"/>
      </g>
     </g>
    </g>
   </g>
   <g id="patch_6">
    <path d="M 43.2 194.4 
L 259.2 194.4 
" style="fill: none; stroke: #000000; stroke-width: 0.8; stroke-linejoin: miter; stroke-linecap: square"/>
   </g>
   <g id="text_2">
    <!-- 1.81 -->
    <g transform="translate(61.004474 101.409687)scale(0.1 -0.1)">
     <defs>
      <path id="Corbel-38" d="M 1647 -78 
Q 1344 -78 1095 11 
Q 847 100 669 256 
Q 491 413 394 627 
Q 297 841 297 1091 
Q 297 1322 362 1500 
Q 428 1678 539 1809 
Q 650 1941 798 2027 
Q 947 2113 1113 2153 
L 1113 2166 
Q 956 2219 823 2309 
Q 691 2400 592 2526 
Q 494 2653 439 2814 
Q 384 2975 384 3169 
Q 384 3434 490 3637 
Q 597 3841 773 3980 
Q 950 4119 1176 4189 
Q 1403 4259 1647 4259 
Q 1891 4259 2117 4189 
Q 2344 4119 2520 3980 
Q 2697 3841 2803 3637 
Q 2909 3434 2909 3169 
Q 2909 2975 2848 2814 
Q 2788 2653 2684 2526 
Q 2581 2400 2443 2309 
Q 2306 2219 2150 2166 
L 2150 2153 
Q 2316 2113 2469 2027 
Q 2622 1941 2739 1809 
Q 2856 1678 2926 1500 
Q 2997 1322 2997 1091 
Q 2997 841 2900 627 
Q 2803 413 2625 256 
Q 2447 100 2198 11 
Q 1950 -78 1647 -78 
z
M 1647 3847 
Q 1484 3847 1345 3801 
Q 1206 3756 1104 3667 
Q 1003 3578 947 3450 
Q 891 3322 891 3153 
Q 891 2834 1089 2634 
Q 1288 2434 1647 2363 
Q 2006 2434 2204 2634 
Q 2403 2834 2403 3153 
Q 2403 3322 2347 3450 
Q 2291 3578 2189 3667 
Q 2088 3756 1950 3801 
Q 1813 3847 1647 3847 
z
M 1647 1934 
Q 1472 1916 1319 1858 
Q 1166 1800 1050 1698 
Q 934 1597 868 1450 
Q 803 1303 803 1106 
Q 803 928 867 784 
Q 931 641 1043 541 
Q 1156 441 1311 387 
Q 1466 334 1647 334 
Q 1831 334 1986 387 
Q 2141 441 2253 541 
Q 2366 641 2428 784 
Q 2491 928 2491 1106 
Q 2491 1303 2425 1450 
Q 2359 1597 2243 1698 
Q 2128 1800 1975 1858 
Q 1822 1916 1647 1934 
z
" transform="scale(0.015625)"/>
     </defs>
     <use xlink:href="#Corbel-31"/>
     <use xlink:href="#Corbel-2e" x="44.824219"/>
     <use xlink:href="#Corbel-38" x="71.240234"/>
     <use xlink:href="#Corbel-31" x="122.705078"/>
    </g>
   </g>
   <g id="text_3">
    <!-- 1.81 -->
    <g transform="translate(116.789598 101.409687)scale(0.1 -0.1)">
     <use xlink:href="#Corbel-31"/>
     <use xlink:href="#Corbel-2e" x="44.824219"/>
     <use xlink:href="#Corbel-38" x="71.240234"/>
     <use xlink:href="#Corbel-31" x="122.705078"/>
    </g>
   </g>
   <g id="text_4">
    <!-- 1.75 -->
    <g transform="translate(191.445545 127.329687)scale(0.1 -0.1)">
     <defs>
      <path id="Corbel-37" d="M 122 2522 
L 122 2969 
L 2572 2969 
L 2572 2644 
L 850 -1209 
L 344 -1209 
L 2013 2522 
L 122 2522 
z
" transform="scale(0.015625)"/>
      <path id="Corbel-35" d="M 2744 41 
Q 2744 -247 2639 -490 
Q 2534 -734 2336 -912 
Q 2138 -1091 1853 -1191 
Q 1569 -1291 1206 -1291 
Q 969 -1291 753 -1245 
Q 538 -1200 366 -1106 
L 366 -694 
Q 597 -797 803 -833 
Q 1009 -869 1184 -869 
Q 1450 -869 1647 -798 
Q 1844 -728 1975 -606 
Q 2106 -484 2172 -323 
Q 2238 -163 2238 16 
Q 2238 231 2170 389 
Q 2103 547 1959 651 
Q 1816 756 1591 807 
Q 1366 859 1047 859 
Q 822 859 503 828 
L 800 2969 
L 2741 2969 
L 2741 2522 
L 1228 2522 
L 1053 1281 
Q 1163 1288 1228 1288 
Q 1594 1288 1876 1203 
Q 2159 1119 2351 959 
Q 2544 800 2644 569 
Q 2744 338 2744 41 
z
" transform="scale(0.015625)"/>
     </defs>
     <use xlink:href="#Corbel-31"/>
     <use xlink:href="#Corbel-2e" x="44.824219"/>
     <use xlink:href="#Corbel-37" x="71.240234"/>
     <use xlink:href="#Corbel-35" x="114.013672"/>
    </g>
   </g>
   <g id="text_5">
    <!-- Bolt -->
    <g transform="translate(140.786777 36.72)scale(0.06 -0.06)">
     <defs>
      <path id="Corbel-42" d="M 2594 2163 
Q 2788 2134 2942 2059 
Q 3097 1984 3208 1867 
Q 3319 1750 3378 1589 
Q 3438 1428 3438 1222 
Q 3438 1075 3394 914 
Q 3350 753 3248 601 
Q 3147 450 2983 322 
Q 2819 194 2575 113 
Q 2388 50 2159 25 
Q 1931 0 1613 0 
L 531 0 
L 531 4181 
L 1575 4181 
Q 1719 4181 1836 4176 
Q 1953 4172 2051 4162 
Q 2150 4153 2234 4139 
Q 2319 4125 2394 4106 
Q 2591 4053 2752 3961 
Q 2913 3869 3025 3741 
Q 3138 3613 3198 3450 
Q 3259 3288 3259 3097 
Q 3259 2944 3223 2803 
Q 3188 2663 3108 2544 
Q 3028 2425 2901 2331 
Q 2775 2238 2594 2175 
L 2594 2163 
z
M 1816 2372 
Q 1966 2372 2075 2386 
Q 2184 2400 2272 2428 
Q 2506 2506 2614 2672 
Q 2722 2838 2722 3063 
Q 2722 3294 2609 3441 
Q 2497 3588 2256 3659 
Q 2138 3694 1981 3708 
Q 1825 3722 1613 3722 
L 1041 3722 
L 1041 2372 
L 1816 2372 
z
M 1041 1913 
L 1041 459 
L 1656 459 
Q 1875 459 2062 479 
Q 2250 500 2381 544 
Q 2525 591 2625 664 
Q 2725 738 2786 827 
Q 2847 916 2873 1016 
Q 2900 1116 2900 1219 
Q 2900 1338 2872 1442 
Q 2844 1547 2780 1630 
Q 2716 1713 2611 1775 
Q 2506 1838 2350 1872 
Q 2256 1894 2136 1903 
Q 2016 1913 1838 1913 
L 1041 1913 
z
" transform="scale(0.015625)"/>
      <path id="Corbel-6f" d="M 2609 1481 
Q 2609 1756 2542 1970 
Q 2475 2184 2354 2332 
Q 2234 2481 2068 2557 
Q 1903 2634 1706 2634 
Q 1509 2634 1343 2557 
Q 1178 2481 1058 2332 
Q 938 2184 870 1970 
Q 803 1756 803 1481 
Q 803 1209 870 995 
Q 938 781 1059 634 
Q 1181 488 1347 411 
Q 1513 334 1709 334 
Q 1906 334 2070 411 
Q 2234 488 2354 634 
Q 2475 781 2542 995 
Q 2609 1209 2609 1481 
z
M 3116 1481 
Q 3116 1131 3016 843 
Q 2916 556 2733 351 
Q 2550 147 2290 34 
Q 2031 -78 1709 -78 
Q 1378 -78 1117 34 
Q 856 147 673 351 
Q 491 556 394 843 
Q 297 1131 297 1481 
Q 297 1834 397 2121 
Q 497 2409 680 2615 
Q 863 2822 1123 2934 
Q 1384 3047 1706 3047 
Q 2034 3047 2296 2934 
Q 2559 2822 2740 2615 
Q 2922 2409 3019 2121 
Q 3116 1834 3116 1481 
z
" transform="scale(0.015625)"/>
      <path id="Corbel-6c" d="M 500 0 
L 500 4525 
L 984 4525 
L 984 0 
L 500 0 
z
" transform="scale(0.015625)"/>
      <path id="Corbel-74" d="M 2034 -6 
Q 1972 -31 1844 -53 
Q 1716 -75 1538 -78 
Q 1303 -78 1131 -20 
Q 959 38 845 145 
Q 731 253 675 406 
Q 619 559 619 747 
L 619 2553 
L 47 2553 
L 47 2969 
L 619 2969 
L 619 3781 
L 1103 3781 
L 1103 2969 
L 1991 2969 
L 1991 2553 
L 1103 2553 
L 1103 822 
Q 1103 719 1133 631 
Q 1163 544 1227 480 
Q 1291 416 1391 380 
Q 1491 344 1631 344 
Q 1728 344 1836 359 
Q 1944 375 2034 400 
L 2034 -6 
z
" transform="scale(0.015625)"/>
     </defs>
     <use xlink:href="#Corbel-42"/>
     <use xlink:href="#Corbel-6f" x="59.326172"/>
     <use xlink:href="#Corbel-6c" x="112.646484"/>
     <use xlink:href="#Corbel-74" x="135.839844"/>
    </g>
   </g>
   <g id="text_6">
    <!-- Gay -->
    <g transform="translate(145.249587 114.48)scale(0.06 -0.06)">
     <defs>
      <path id="Corbel-47" d="M 3266 1691 
L 2313 1691 
L 2313 2150 
L 3775 2150 
L 3775 128 
Q 3709 94 3582 58 
Q 3456 22 3293 -9 
Q 3131 -41 2945 -59 
Q 2759 -78 2578 -78 
Q 2041 -78 1630 69 
Q 1219 216 941 484 
Q 663 753 519 1137 
Q 375 1522 375 1994 
Q 375 2506 542 2925 
Q 709 3344 1014 3641 
Q 1319 3938 1742 4098 
Q 2166 4259 2675 4259 
Q 2813 4259 2950 4248 
Q 3088 4238 3213 4217 
Q 3338 4197 3444 4169 
Q 3550 4141 3622 4109 
L 3622 3659 
Q 3434 3722 3190 3764 
Q 2947 3806 2703 3806 
Q 2347 3806 2023 3698 
Q 1700 3591 1453 3372 
Q 1206 3153 1059 2823 
Q 913 2494 913 2050 
Q 913 1616 1033 1300 
Q 1153 984 1373 778 
Q 1594 572 1908 473 
Q 2222 375 2606 375 
Q 2784 375 2957 394 
Q 3131 413 3266 447 
L 3266 1691 
z
" transform="scale(0.015625)"/>
      <path id="Corbel-61" d="M 2206 328 
L 2194 328 
Q 2134 253 2043 179 
Q 1953 106 1834 48 
Q 1716 -9 1575 -43 
Q 1434 -78 1275 -78 
Q 1059 -78 879 -14 
Q 700 50 570 173 
Q 441 297 369 475 
Q 297 653 297 878 
Q 297 1100 376 1275 
Q 456 1450 600 1572 
Q 744 1694 945 1759 
Q 1147 1825 1391 1825 
Q 1622 1822 1819 1784 
Q 2016 1747 2169 1691 
L 2181 1691 
L 2181 1897 
Q 2181 2019 2165 2112 
Q 2150 2206 2113 2278 
Q 2031 2428 1853 2526 
Q 1675 2625 1372 2625 
Q 1147 2625 948 2583 
Q 750 2541 553 2466 
L 553 2872 
Q 628 2909 729 2942 
Q 831 2975 943 2998 
Q 1056 3022 1181 3034 
Q 1306 3047 1431 3047 
Q 1881 3047 2167 2887 
Q 2453 2728 2578 2466 
Q 2625 2366 2645 2245 
Q 2666 2125 2666 1981 
L 2666 0 
L 2259 0 
L 2206 328 
z
M 2181 1303 
Q 2047 1341 1862 1375 
Q 1678 1409 1456 1413 
Q 1147 1413 972 1281 
Q 797 1150 797 878 
Q 797 741 840 637 
Q 884 534 961 467 
Q 1038 400 1142 367 
Q 1247 334 1366 334 
Q 1522 334 1656 379 
Q 1791 425 1895 487 
Q 2000 550 2073 612 
Q 2147 675 2181 709 
L 2181 1303 
z
" transform="scale(0.015625)"/>
      <path id="Corbel-79" d="M 94 2969 
L 591 2969 
L 1513 641 
L 1531 641 
L 2466 2969 
L 2975 2969 
L 1122 -1453 
L 641 -1453 
L 1275 59 
L 94 2969 
z
" transform="scale(0.015625)"/>
     </defs>
     <use xlink:href="#Corbel-47"/>
     <use xlink:href="#Corbel-61" x="66.796875"/>
     <use xlink:href="#Corbel-79" x="115.771484"/>
    </g>
   </g>
   <g id="text_7">
    <!-- Blake -->
    <g transform="translate(149.712397 105.84)scale(0.06 -0.06)">
     <defs>
      <path id="Corbel-6b" d="M 2391 2969 
L 3022 2969 
L 1572 1603 
L 3019 0 
L 2416 0 
L 991 1581 
L 984 1581 
L 984 0 
L 500 0 
L 500 4525 
L 984 4525 
L 984 1644 
L 991 1644 
L 2391 2969 
z
" transform="scale(0.015625)"/>
      <path id="Corbel-65" d="M 1631 2631 
Q 1466 2631 1323 2565 
Q 1181 2500 1075 2387 
Q 969 2275 903 2123 
Q 838 1972 822 1800 
L 2322 1800 
Q 2322 1975 2276 2126 
Q 2231 2278 2143 2390 
Q 2056 2503 1928 2567 
Q 1800 2631 1631 2631 
z
M 1897 344 
Q 2138 344 2336 383 
Q 2534 422 2731 494 
L 2731 91 
Q 2572 13 2337 -32 
Q 2103 -78 1834 -78 
Q 1516 -78 1236 3 
Q 956 84 747 265 
Q 538 447 417 739 
Q 297 1031 297 1444 
Q 297 1850 409 2148 
Q 522 2447 709 2647 
Q 897 2847 1140 2947 
Q 1384 3047 1650 3047 
Q 1900 3047 2117 2964 
Q 2334 2881 2493 2703 
Q 2653 2525 2745 2244 
Q 2838 1963 2838 1569 
Q 2838 1531 2838 1504 
Q 2838 1478 2834 1384 
L 797 1384 
Q 797 1100 883 901 
Q 969 703 1117 579 
Q 1266 456 1466 400 
Q 1666 344 1897 344 
z
" transform="scale(0.015625)"/>
     </defs>
     <use xlink:href="#Corbel-42"/>
     <use xlink:href="#Corbel-6c" x="59.326172"/>
     <use xlink:href="#Corbel-61" x="82.519531"/>
     <use xlink:href="#Corbel-6b" x="131.494141"/>
     <use xlink:href="#Corbel-65" x="180.175781"/>
    </g>
   </g>
   <g id="text_8">
    <!-- Powell -->
    <g transform="translate(154.175207 62.64)scale(0.06 -0.06)">
     <defs>
      <path id="Corbel-50" d="M 1041 0 
L 531 0 
L 531 4181 
L 1691 4181 
Q 1950 4181 2170 4150 
Q 2391 4119 2575 4053 
Q 2950 3919 3144 3651 
Q 3338 3384 3338 2994 
Q 3338 2675 3211 2433 
Q 3084 2191 2843 2028 
Q 2603 1866 2258 1783 
Q 1913 1700 1475 1700 
Q 1266 1700 1041 1719 
L 1041 0 
z
M 1041 2184 
Q 1144 2172 1256 2165 
Q 1369 2159 1469 2159 
Q 1828 2159 2081 2215 
Q 2334 2272 2493 2380 
Q 2653 2488 2725 2642 
Q 2797 2797 2797 2994 
Q 2797 3238 2680 3394 
Q 2563 3550 2347 3631 
Q 2213 3681 2038 3701 
Q 1863 3722 1631 3722 
L 1041 3722 
L 1041 2184 
z
" transform="scale(0.015625)"/>
      <path id="Corbel-77" d="M 2269 2478 
Q 2172 2069 2088 1772 
L 1600 0 
L 1103 0 
L 125 2969 
L 616 2969 
L 1166 1119 
Q 1275 753 1331 534 
L 1344 534 
Q 1394 759 1509 1184 
L 2006 2969 
L 2550 2969 
L 3047 1184 
Q 3147 822 3213 534 
L 3225 534 
Q 3300 822 3391 1119 
L 3941 2969 
L 4431 2969 
L 3453 0 
L 2950 0 
L 2463 1772 
Q 2375 2088 2281 2478 
L 2269 2478 
z
" transform="scale(0.015625)"/>
     </defs>
     <use xlink:href="#Corbel-50"/>
     <use xlink:href="#Corbel-6f" x="52.65625"/>
     <use xlink:href="#Corbel-77" x="105.976562"/>
     <use xlink:href="#Corbel-65" x="177.167969"/>
     <use xlink:href="#Corbel-6c" x="226.923828"/>
     <use xlink:href="#Corbel-6c" x="250.117188"/>
    </g>
   </g>
   <g id="text_9">
    <!-- Gatlin -->
    <g transform="translate(158.638017 84.24)scale(0.06 -0.06)">
     <defs>
      <path id="Corbel-69" d="M 500 0 
L 500 2969 
L 984 2969 
L 984 0 
L 500 0 
z
M 488 3659 
L 488 4200 
L 997 4200 
L 997 3659 
L 488 3659 
z
" transform="scale(0.015625)"/>
      <path id="Corbel-6e" d="M 938 2556 
L 947 2556 
Q 1028 2659 1126 2748 
Q 1225 2838 1347 2905 
Q 1469 2972 1614 3009 
Q 1759 3047 1931 3047 
Q 2134 3047 2312 2990 
Q 2491 2934 2622 2809 
Q 2753 2684 2829 2482 
Q 2906 2281 2906 1988 
L 2906 0 
L 2422 0 
L 2422 1909 
Q 2422 2294 2273 2462 
Q 2125 2631 1841 2631 
Q 1591 2631 1356 2492 
Q 1122 2353 953 2109 
L 953 0 
L 469 0 
L 469 2969 
L 844 2969 
L 938 2556 
z
" transform="scale(0.015625)"/>
     </defs>
     <use xlink:href="#Corbel-47"/>
     <use xlink:href="#Corbel-61" x="66.796875"/>
     <use xlink:href="#Corbel-74" x="115.771484"/>
     <use xlink:href="#Corbel-6c" x="150.488281"/>
     <use xlink:href="#Corbel-69" x="173.681641"/>
     <use xlink:href="#Corbel-6e" x="196.875"/>
    </g>
   </g>
   <g id="text_10">
    <!-- Coleman -->
    <g transform="translate(155.66281 127.44)scale(0.06 -0.06)">
     <defs>
      <path id="Corbel-43" d="M 2563 3806 
Q 2216 3806 1914 3695 
Q 1613 3584 1391 3364 
Q 1169 3144 1041 2817 
Q 913 2491 913 2056 
Q 913 1625 1031 1308 
Q 1150 991 1369 783 
Q 1588 575 1895 475 
Q 2203 375 2581 375 
Q 2684 375 2800 386 
Q 2916 397 3033 417 
Q 3150 438 3261 464 
Q 3372 491 3459 522 
L 3459 72 
Q 3275 0 3031 -39 
Q 2788 -78 2531 -78 
Q 2009 -78 1606 67 
Q 1203 213 929 484 
Q 656 756 515 1148 
Q 375 1541 375 2038 
Q 375 2525 523 2934 
Q 672 3344 951 3637 
Q 1231 3931 1629 4095 
Q 2028 4259 2525 4259 
Q 2656 4259 2784 4248 
Q 2913 4238 3030 4217 
Q 3147 4197 3247 4169 
Q 3347 4141 3419 4109 
L 3419 3659 
Q 3231 3722 3009 3764 
Q 2788 3806 2563 3806 
z
" transform="scale(0.015625)"/>
      <path id="Corbel-6d" d="M 2894 0 
L 2409 0 
L 2409 1909 
Q 2409 2103 2367 2239 
Q 2325 2375 2245 2462 
Q 2166 2550 2055 2590 
Q 1944 2631 1806 2631 
Q 1547 2631 1334 2492 
Q 1122 2353 953 2109 
L 953 0 
L 469 0 
L 469 2969 
L 844 2969 
L 938 2556 
L 947 2556 
Q 1028 2659 1123 2748 
Q 1219 2838 1336 2905 
Q 1453 2972 1593 3009 
Q 1734 3047 1900 3047 
Q 2231 3047 2450 2887 
Q 2669 2728 2788 2453 
L 2800 2453 
Q 2997 2731 3250 2889 
Q 3503 3047 3841 3047 
Q 3997 3047 4172 3003 
Q 4347 2959 4494 2842 
Q 4641 2725 4737 2519 
Q 4834 2313 4834 1988 
L 4834 0 
L 4353 0 
L 4353 1909 
Q 4353 2103 4311 2239 
Q 4269 2375 4189 2462 
Q 4109 2550 3998 2590 
Q 3888 2631 3750 2631 
Q 3491 2631 3277 2492 
Q 3063 2353 2894 2109 
L 2894 0 
z
" transform="scale(0.015625)"/>
     </defs>
     <use xlink:href="#Corbel-43"/>
     <use xlink:href="#Corbel-6f" x="58.935547"/>
     <use xlink:href="#Corbel-6c" x="112.255859"/>
     <use xlink:href="#Corbel-65" x="135.449219"/>
     <use xlink:href="#Corbel-6d" x="185.205078"/>
     <use xlink:href="#Corbel-61" x="268.066406"/>
     <use xlink:href="#Corbel-6e" x="317.041016"/>
    </g>
   </g>
   <g id="text_11">
    <!-- Bromell -->
    <g transform="translate(152.687603 136.08)scale(0.06 -0.06)">
     <defs>
      <path id="Corbel-72" d="M 2097 2575 
L 2059 2575 
Q 1888 2575 1722 2544 
Q 1556 2513 1411 2448 
Q 1266 2384 1148 2290 
Q 1031 2197 953 2069 
L 953 0 
L 469 0 
L 469 2969 
L 844 2969 
L 938 2497 
L 947 2497 
Q 1019 2613 1123 2713 
Q 1228 2813 1359 2888 
Q 1491 2963 1647 3005 
Q 1803 3047 1975 3047 
Q 2006 3047 2039 3045 
Q 2072 3044 2097 3041 
L 2097 2575 
z
" transform="scale(0.015625)"/>
     </defs>
     <use xlink:href="#Corbel-42"/>
     <use xlink:href="#Corbel-72" x="59.326172"/>
     <use xlink:href="#Corbel-6f" x="92.822266"/>
     <use xlink:href="#Corbel-6d" x="146.142578"/>
     <use xlink:href="#Corbel-65" x="229.003906"/>
     <use xlink:href="#Corbel-6c" x="278.759766"/>
     <use xlink:href="#Corbel-6c" x="301.953125"/>
    </g>
   </g>
   <g id="text_12">
    <!-- Kipchoge -->
    <g transform="translate(215.166942 162)scale(0.06 -0.06)">
     <defs>
      <path id="Corbel-4b" d="M 531 0 
L 531 4181 
L 1041 4181 
L 1041 2116 
L 1047 2116 
L 2969 4181 
L 3597 4181 
L 1647 2100 
L 3747 0 
L 3084 0 
L 1047 2047 
L 1041 2047 
L 1041 0 
L 531 0 
z
" transform="scale(0.015625)"/>
      <path id="Corbel-70" d="M 2594 1513 
Q 2594 1772 2539 1978 
Q 2484 2184 2375 2329 
Q 2266 2475 2106 2553 
Q 1947 2631 1738 2631 
Q 1588 2631 1464 2590 
Q 1341 2550 1241 2487 
Q 1141 2425 1069 2353 
Q 997 2281 953 2225 
L 953 672 
Q 1106 516 1301 425 
Q 1497 334 1722 334 
Q 1859 334 2012 386 
Q 2166 438 2295 570 
Q 2425 703 2509 931 
Q 2594 1159 2594 1513 
z
M 3100 1519 
Q 3100 1209 3039 970 
Q 2978 731 2878 553 
Q 2778 375 2643 254 
Q 2509 134 2365 60 
Q 2222 -13 2073 -45 
Q 1925 -78 1794 -78 
Q 1522 -78 1322 11 
Q 1122 100 963 275 
L 953 275 
L 953 -1453 
L 469 -1453 
L 469 2969 
L 834 2969 
L 938 2631 
L 947 2631 
Q 988 2694 1052 2753 
Q 1116 2813 1223 2880 
Q 1331 2947 1482 2997 
Q 1634 3047 1813 3047 
Q 2063 3047 2295 2962 
Q 2528 2878 2706 2693 
Q 2884 2509 2992 2220 
Q 3100 1931 3100 1519 
z
" transform="scale(0.015625)"/>
      <path id="Corbel-63" d="M 1744 3047 
Q 1959 3047 2156 3001 
Q 2353 2956 2494 2875 
L 2494 2472 
Q 2297 2547 2131 2584 
Q 1966 2622 1794 2622 
Q 1613 2622 1434 2562 
Q 1256 2503 1115 2367 
Q 975 2231 889 2007 
Q 803 1784 803 1453 
Q 803 1213 867 1009 
Q 931 806 1057 657 
Q 1184 509 1375 426 
Q 1566 344 1816 344 
Q 1997 344 2181 383 
Q 2366 422 2541 494 
L 2541 91 
Q 2488 59 2402 28 
Q 2316 -3 2212 -26 
Q 2109 -50 1993 -64 
Q 1878 -78 1763 -78 
Q 1463 -78 1195 12 
Q 928 103 728 290 
Q 528 478 412 765 
Q 297 1053 297 1447 
Q 297 1741 358 1975 
Q 419 2209 525 2387 
Q 631 2566 773 2691 
Q 916 2816 1077 2895 
Q 1238 2975 1409 3011 
Q 1581 3047 1744 3047 
z
" transform="scale(0.015625)"/>
      <path id="Corbel-68" d="M 984 2563 
L 994 2563 
Q 1075 2666 1175 2755 
Q 1275 2844 1397 2908 
Q 1519 2972 1659 3009 
Q 1800 3047 1963 3047 
Q 2131 3047 2300 3001 
Q 2469 2956 2612 2840 
Q 2756 2725 2847 2519 
Q 2938 2313 2938 1988 
L 2938 0 
L 2453 0 
L 2453 1909 
Q 2453 2269 2317 2450 
Q 2181 2631 1872 2631 
Q 1616 2631 1384 2492 
Q 1153 2353 984 2109 
L 984 0 
L 500 0 
L 500 4525 
L 984 4525 
L 984 2563 
z
" transform="scale(0.015625)"/>
      <path id="Corbel-67" d="M 803 1466 
Q 803 1116 887 894 
Q 972 672 1101 548 
Q 1231 425 1384 379 
Q 1538 334 1675 334 
Q 1900 334 2097 425 
Q 2294 516 2444 672 
L 2444 2225 
Q 2403 2281 2331 2353 
Q 2259 2425 2164 2486 
Q 2069 2547 1947 2589 
Q 1825 2631 1681 2631 
Q 1466 2631 1302 2545 
Q 1138 2459 1027 2306 
Q 916 2153 859 1939 
Q 803 1725 803 1466 
z
M 1619 3047 
Q 1813 3044 1956 2997 
Q 2100 2950 2203 2879 
Q 2306 2809 2367 2740 
Q 2428 2672 2450 2631 
L 2463 2631 
L 2563 2969 
L 2928 2969 
L 2928 -175 
Q 2928 -519 2815 -773 
Q 2703 -1028 2500 -1197 
Q 2297 -1366 2011 -1448 
Q 1725 -1531 1378 -1531 
Q 1084 -1531 853 -1479 
Q 622 -1428 491 -1356 
L 491 -947 
Q 597 -991 697 -1020 
Q 797 -1050 903 -1070 
Q 1009 -1091 1120 -1100 
Q 1231 -1109 1366 -1109 
Q 1888 -1109 2166 -865 
Q 2444 -622 2444 -122 
L 2444 275 
L 2434 275 
Q 2275 100 2064 11 
Q 1853 -78 1581 -78 
Q 1456 -78 1312 -50 
Q 1169 -22 1025 45 
Q 881 113 750 223 
Q 619 334 519 501 
Q 419 669 358 897 
Q 297 1125 297 1425 
Q 297 1841 409 2145 
Q 522 2450 706 2650 
Q 891 2850 1128 2948 
Q 1366 3047 1619 3047 
z
" transform="scale(0.015625)"/>
     </defs>
     <use xlink:href="#Corbel-4b"/>
     <use xlink:href="#Corbel-69" x="60.498047"/>
     <use xlink:href="#Corbel-70" x="83.691406"/>
     <use xlink:href="#Corbel-63" x="136.767578"/>
     <use xlink:href="#Corbel-68" x="180.615234"/>
     <use xlink:href="#Corbel-6f" x="233.837891"/>
     <use xlink:href="#Corbel-67" x="287.158203"/>
     <use xlink:href="#Corbel-65" x="340.234375"/>
    </g>
   </g>
   <g id="text_13">
    <!-- Bekele -->
    <g transform="translate(219.629752 170.64)scale(0.06 -0.06)">
     <use xlink:href="#Corbel-42"/>
     <use xlink:href="#Corbel-65" x="59.326172"/>
     <use xlink:href="#Corbel-6b" x="109.082031"/>
     <use xlink:href="#Corbel-65" x="157.763672"/>
     <use xlink:href="#Corbel-6c" x="207.519531"/>
     <use xlink:href="#Corbel-65" x="230.712891"/>
    </g>
   </g>
   <g id="text_14">
    <!-- Legese -->
    <g transform="translate(219.629752 136.08)scale(0.06 -0.06)">
     <defs>
      <path id="Corbel-4c" d="M 1041 4181 
L 1041 459 
L 3081 459 
L 3081 0 
L 531 0 
L 531 4181 
L 1041 4181 
z
" transform="scale(0.015625)"/>
      <path id="Corbel-73" d="M 781 2178 
Q 781 2056 834 1978 
Q 888 1900 977 1851 
Q 1066 1803 1183 1772 
Q 1300 1741 1425 1716 
Q 1597 1678 1750 1633 
Q 1903 1588 2033 1497 
Q 2163 1406 2242 1251 
Q 2322 1097 2322 850 
Q 2322 625 2234 451 
Q 2147 278 1987 161 
Q 1828 44 1606 -17 
Q 1384 -78 1119 -78 
Q 956 -78 823 -61 
Q 691 -44 589 -17 
Q 488 9 416 37 
Q 344 66 297 91 
L 297 497 
Q 484 422 668 378 
Q 853 334 1075 334 
Q 1250 334 1390 365 
Q 1531 397 1632 458 
Q 1734 519 1789 611 
Q 1844 703 1844 825 
Q 1844 950 1794 1031 
Q 1744 1113 1659 1166 
Q 1575 1219 1464 1253 
Q 1353 1288 1231 1316 
Q 1072 1350 908 1397 
Q 744 1444 609 1528 
Q 475 1613 392 1758 
Q 309 1903 309 2131 
Q 309 2366 393 2537 
Q 478 2709 622 2821 
Q 766 2934 956 2990 
Q 1147 3047 1359 3047 
Q 1606 3047 1817 3000 
Q 2028 2953 2200 2881 
L 2200 2469 
Q 2013 2541 1820 2586 
Q 1628 2631 1425 2634 
Q 1253 2634 1131 2600 
Q 1009 2566 931 2505 
Q 853 2444 817 2361 
Q 781 2278 781 2178 
z
" transform="scale(0.015625)"/>
     </defs>
     <use xlink:href="#Corbel-4c"/>
     <use xlink:href="#Corbel-65" x="52.050781"/>
     <use xlink:href="#Corbel-67" x="101.806641"/>
     <use xlink:href="#Corbel-65" x="154.882812"/>
     <use xlink:href="#Corbel-73" x="204.638672"/>
     <use xlink:href="#Corbel-65" x="245.068359"/>
    </g>
   </g>
   <g id="text_15">
    <!-- Geremew -->
    <g transform="translate(224.092562 123.12)scale(0.06 -0.06)">
     <use xlink:href="#Corbel-47"/>
     <use xlink:href="#Corbel-65" x="66.796875"/>
     <use xlink:href="#Corbel-72" x="116.552734"/>
     <use xlink:href="#Corbel-65" x="150.048828"/>
     <use xlink:href="#Corbel-6d" x="199.804688"/>
     <use xlink:href="#Corbel-65" x="282.666016"/>
     <use xlink:href="#Corbel-77" x="332.421875"/>
    </g>
   </g>
   <g id="text_16">
    <!-- Kimetto -->
    <g transform="translate(228.555372 131.76)scale(0.06 -0.06)">
     <use xlink:href="#Corbel-4b"/>
     <use xlink:href="#Corbel-69" x="60.498047"/>
     <use xlink:href="#Corbel-6d" x="83.691406"/>
     <use xlink:href="#Corbel-65" x="166.552734"/>
     <use xlink:href="#Corbel-74" x="216.308594"/>
     <use xlink:href="#Corbel-74" x="251.025391"/>
     <use xlink:href="#Corbel-6f" x="285.742188"/>
    </g>
   </g>
   <g id="text_17">
    <!-- Ekiru -->
    <g transform="translate(244.919008 136.08)scale(0.06 -0.06)">
     <defs>
      <path id="Corbel-45" d="M 1041 459 
L 3184 459 
L 3184 0 
L 531 0 
L 531 4181 
L 3069 4181 
L 3069 3722 
L 1041 3722 
L 1041 2372 
L 2844 2372 
L 2844 1913 
L 1041 1913 
L 1041 459 
z
" transform="scale(0.015625)"/>
      <path id="Corbel-75" d="M 1647 -78 
Q 1416 -78 1231 -28 
Q 1047 22 908 112 
Q 769 203 672 329 
Q 575 456 519 606 
Q 475 719 456 853 
Q 438 988 438 1147 
L 438 2969 
L 922 2969 
L 922 1150 
Q 922 903 988 738 
Q 1063 550 1230 442 
Q 1397 334 1656 334 
Q 1931 334 2098 453 
Q 2266 572 2338 772 
Q 2391 925 2391 1150 
L 2391 2969 
L 2875 2969 
L 2875 1144 
Q 2875 994 2858 864 
Q 2841 734 2803 625 
Q 2747 472 2648 342 
Q 2550 213 2406 119 
Q 2263 25 2073 -26 
Q 1884 -78 1647 -78 
z
" transform="scale(0.015625)"/>
     </defs>
     <use xlink:href="#Corbel-45"/>
     <use xlink:href="#Corbel-6b" x="55.126953"/>
     <use xlink:href="#Corbel-69" x="103.808594"/>
     <use xlink:href="#Corbel-72" x="127.001953"/>
     <use xlink:href="#Corbel-75" x="160.498047"/>
    </g>
   </g>
   <g id="text_18">
    <!-- Chebet -->
    <g transform="translate(237.480992 149.04)scale(0.06 -0.06)">
     <defs>
      <path id="Corbel-62" d="M 2625 1497 
Q 2625 1850 2542 2070 
Q 2459 2291 2329 2414 
Q 2200 2538 2053 2584 
Q 1906 2631 1759 2631 
Q 1534 2631 1336 2537 
Q 1138 2444 984 2294 
L 984 741 
Q 1028 681 1098 611 
Q 1169 541 1266 480 
Q 1363 419 1483 376 
Q 1603 334 1747 334 
Q 1963 334 2127 418 
Q 2291 503 2402 658 
Q 2513 813 2569 1027 
Q 2625 1241 2625 1497 
z
M 3131 1534 
Q 3131 1119 3018 816 
Q 2906 513 2722 314 
Q 2538 116 2300 19 
Q 2063 -78 1809 -78 
Q 1619 -78 1473 -29 
Q 1328 19 1226 86 
Q 1125 153 1064 222 
Q 1003 291 978 331 
L 969 331 
L 866 0 
L 500 0 
L 500 4525 
L 984 4525 
L 984 2691 
L 994 2691 
Q 1153 2859 1365 2953 
Q 1578 3047 1850 3047 
Q 1975 3047 2120 3019 
Q 2266 2991 2408 2922 
Q 2550 2853 2681 2740 
Q 2813 2628 2913 2461 
Q 3013 2294 3072 2064 
Q 3131 1834 3131 1534 
z
" transform="scale(0.015625)"/>
     </defs>
     <use xlink:href="#Corbel-43"/>
     <use xlink:href="#Corbel-68" x="58.935547"/>
     <use xlink:href="#Corbel-65" x="112.158203"/>
     <use xlink:href="#Corbel-62" x="161.914062"/>
     <use xlink:href="#Corbel-65" x="215.478516"/>
     <use xlink:href="#Corbel-74" x="265.234375"/>
    </g>
   </g>
   <g id="text_19">
    <!-- height $[m]$ -->
    <g transform="translate(125.34 15.6)scale(0.12 -0.12)">
     <defs>
      <path id="Corbel-20" transform="scale(0.015625)"/>
      <path id="Cmr10-5b" d="M 756 -1600 
L 756 4800 
L 1631 4800 
L 1631 4544 
L 1013 4544 
L 1013 -1344 
L 1631 -1344 
L 1631 -1600 
L 756 -1600 
z
" transform="scale(0.015625)"/>
      <path id="Cmmi10-6d" d="M 494 109 
Q 494 147 500 166 
L 978 2075 
Q 1025 2253 1025 2388 
Q 1025 2663 838 2663 
Q 638 2663 541 2423 
Q 444 2184 353 1819 
Q 353 1800 334 1789 
Q 316 1778 300 1778 
L 225 1778 
Q 203 1778 187 1801 
Q 172 1825 172 1844 
Q 241 2122 305 2315 
Q 369 2509 505 2668 
Q 641 2828 844 2828 
Q 1084 2828 1268 2676 
Q 1453 2525 1453 2291 
Q 1644 2541 1900 2684 
Q 2156 2828 2444 2828 
Q 2747 2828 2967 2673 
Q 3188 2519 3188 2234 
Q 3384 2513 3648 2670 
Q 3913 2828 4225 2828 
Q 4556 2828 4757 2648 
Q 4959 2469 4959 2138 
Q 4959 1875 4842 1503 
Q 4725 1131 4550 672 
Q 4459 450 4459 288 
Q 4459 97 4609 97 
Q 4859 97 5025 365 
Q 5191 634 5259 941 
Q 5278 978 5313 978 
L 5388 978 
Q 5413 978 5430 961 
Q 5447 944 5447 922 
Q 5447 916 5441 903 
Q 5353 541 5136 234 
Q 4919 -72 4594 -72 
Q 4369 -72 4209 83 
Q 4050 238 4050 459 
Q 4050 572 4103 709 
Q 4284 1191 4404 1569 
Q 4525 1947 4525 2234 
Q 4525 2413 4453 2538 
Q 4381 2663 4213 2663 
Q 3863 2663 3606 2448 
Q 3350 2234 3163 1881 
Q 3150 1819 3144 1784 
L 2731 141 
Q 2709 53 2632 -9 
Q 2556 -72 2463 -72 
Q 2388 -72 2330 -22 
Q 2272 28 2272 109 
Q 2272 147 2278 166 
L 2688 1797 
Q 2753 2059 2753 2234 
Q 2753 2413 2679 2538 
Q 2606 2663 2431 2663 
Q 2197 2663 2000 2559 
Q 1803 2456 1656 2286 
Q 1509 2116 1388 1881 
L 953 141 
Q 931 53 854 -9 
Q 778 -72 684 -72 
Q 606 -72 550 -22 
Q 494 28 494 109 
z
" transform="scale(0.015625)"/>
      <path id="Cmr10-5d" d="M 141 -1600 
L 141 -1344 
L 763 -1344 
L 763 4544 
L 141 4544 
L 141 4800 
L 1019 4800 
L 1019 -1600 
L 141 -1600 
z
" transform="scale(0.015625)"/>
     </defs>
     <use xlink:href="#Corbel-68"/>
     <use xlink:href="#Corbel-65" transform="translate(53.222656 0)"/>
     <use xlink:href="#Corbel-69" transform="translate(102.978516 0)"/>
     <use xlink:href="#Corbel-67" transform="translate(126.171875 0)"/>
     <use xlink:href="#Corbel-68" transform="translate(179.248047 0)"/>
     <use xlink:href="#Corbel-74" transform="translate(232.470703 0)"/>
     <use xlink:href="#Corbel-20" transform="translate(267.1875 0)"/>
     <use xlink:href="#Cmr10-5b" transform="translate(287.207031 0)"/>
     <use xlink:href="#Cmmi10-6d" transform="translate(314.892578 0)"/>
     <use xlink:href="#Cmr10-5d" transform="translate(402.685547 0)"/>
    </g>
   </g>
   <g id="legend_1">
    <g id="patch_7">
     <path d="M 266.2 159.021875 
L 378.165625 159.021875 
Q 380.165625 159.021875 380.165625 157.021875 
L 380.165625 115 
Q 380.165625 113 378.165625 113 
L 266.2 113 
Q 264.2 113 264.2 115 
L 264.2 157.021875 
Q 264.2 159.021875 266.2 159.021875 
z
" style="fill: #ffffff; opacity: 0.8; stroke: #cccccc; stroke-linejoin: miter"/>
    </g>
    <g id="PathCollection_15">
     <g>
      <use xlink:href="#m677dea4d1e" x="278.2" y="121.445312" style="fill: #386cb0; stroke: #386cb0"/>
     </g>
    </g>
    <g id="text_20">
     <!-- GEN -->
     <g transform="translate(296.2 124.070312)scale(0.1 -0.1)">
      <defs>
       <path id="Corbel-4e" d="M 2678 1850 
Q 3063 1297 3438 713 
L 3456 713 
Q 3416 1322 3416 1956 
L 3416 4181 
L 3925 4181 
L 3925 0 
L 3419 0 
L 1778 2331 
Q 1353 2941 1019 3469 
L 1000 3469 
Q 1041 2897 1041 2134 
L 1041 0 
L 531 0 
L 531 4181 
L 1038 4181 
L 2678 1850 
z
" transform="scale(0.015625)"/>
      </defs>
      <use xlink:href="#Corbel-47"/>
      <use xlink:href="#Corbel-45" x="66.796875"/>
      <use xlink:href="#Corbel-4e" x="121.923828"/>
     </g>
    </g>
    <g id="PathCollection_16">
     <g>
      <use xlink:href="#m677dea4d1e" x="278.2" y="135.785937" style="fill: #386cb0; stroke: #386cb0"/>
     </g>
    </g>
    <g id="text_21">
     <!-- SPRINT_SKEL -->
     <g transform="translate(296.2 138.410937)scale(0.1 -0.1)">
      <defs>
       <path id="Corbel-53" d="M 919 3075 
Q 919 2891 994 2770 
Q 1069 2650 1195 2572 
Q 1322 2494 1489 2444 
Q 1656 2394 1838 2350 
Q 2081 2291 2317 2219 
Q 2553 2147 2737 2020 
Q 2922 1894 3036 1691 
Q 3150 1488 3150 1169 
Q 3150 844 3029 608 
Q 2909 372 2695 220 
Q 2481 69 2184 -4 
Q 1888 -78 1534 -78 
Q 1372 -78 1201 -58 
Q 1031 -38 876 -3 
Q 722 31 597 75 
Q 472 119 400 163 
L 400 628 
Q 513 572 653 525 
Q 794 478 944 445 
Q 1094 413 1247 394 
Q 1400 375 1534 375 
Q 1753 375 1951 412 
Q 2150 450 2300 537 
Q 2450 625 2537 776 
Q 2625 928 2625 1156 
Q 2625 1344 2548 1466 
Q 2472 1588 2344 1667 
Q 2216 1747 2048 1797 
Q 1881 1847 1697 1891 
Q 1453 1947 1220 2017 
Q 988 2088 805 2213 
Q 622 2338 511 2534 
Q 400 2731 400 3038 
Q 400 3356 512 3586 
Q 625 3816 819 3966 
Q 1013 4116 1272 4187 
Q 1531 4259 1825 4259 
Q 2159 4259 2448 4195 
Q 2738 4131 2978 4028 
L 2978 3556 
Q 2719 3666 2442 3734 
Q 2166 3803 1850 3806 
Q 1613 3806 1438 3754 
Q 1263 3703 1147 3608 
Q 1031 3513 975 3377 
Q 919 3241 919 3075 
z
" transform="scale(0.015625)"/>
       <path id="Corbel-52" d="M 1041 1731 
L 1041 0 
L 531 0 
L 531 4181 
L 1616 4181 
Q 1891 4181 2083 4161 
Q 2275 4141 2434 4097 
Q 2872 3978 3103 3692 
Q 3334 3406 3334 2978 
Q 3334 2725 3253 2525 
Q 3172 2325 3025 2178 
Q 2878 2031 2673 1937 
Q 2469 1844 2219 1800 
L 2219 1788 
L 3584 0 
L 2944 0 
L 1656 1731 
L 1041 1731 
z
M 1041 3722 
L 1041 2191 
L 1544 2191 
Q 1778 2191 1943 2206 
Q 2109 2222 2241 2263 
Q 2506 2344 2650 2522 
Q 2794 2700 2794 2988 
Q 2791 3256 2656 3420 
Q 2522 3584 2284 3656 
Q 2172 3691 2015 3706 
Q 1859 3722 1619 3722 
L 1041 3722 
z
" transform="scale(0.015625)"/>
       <path id="Corbel-49" d="M 531 0 
L 531 4181 
L 1041 4181 
L 1041 0 
L 531 0 
z
" transform="scale(0.015625)"/>
       <path id="Corbel-54" d="M 2031 0 
L 1522 0 
L 1522 3722 
L 125 3722 
L 125 4181 
L 3428 4181 
L 3428 3722 
L 2031 3722 
L 2031 0 
z
" transform="scale(0.015625)"/>
       <path id="Corbel-5f" d="M 0 -444 
L 3125 -444 
L 3125 -859 
L 0 -859 
L 0 -444 
z
" transform="scale(0.015625)"/>
      </defs>
      <use xlink:href="#Corbel-53"/>
      <use xlink:href="#Corbel-50" x="55.175781"/>
      <use xlink:href="#Corbel-52" x="112.207031"/>
      <use xlink:href="#Corbel-49" x="171.386719"/>
      <use xlink:href="#Corbel-4e" x="195.947266"/>
      <use xlink:href="#Corbel-54" x="265.576172"/>
      <use xlink:href="#Corbel-5f" x="321.09375"/>
      <use xlink:href="#Corbel-53" x="369.921875"/>
      <use xlink:href="#Corbel-4b" x="425.097656"/>
      <use xlink:href="#Corbel-45" x="485.595703"/>
      <use xlink:href="#Corbel-4c" x="540.722656"/>
     </g>
    </g>
    <g id="PathCollection_17">
     <g>
      <use xlink:href="#m677dea4d1e" x="278.2" y="150.126563" style="fill: #386cb0; stroke: #386cb0"/>
     </g>
    </g>
    <g id="text_22">
     <!-- MARATHON_SKEL -->
     <g transform="translate(296.2 152.751563)scale(0.1 -0.1)">
      <defs>
       <path id="Corbel-4d" d="M 2747 0 
L 2513 0 
L 1459 2497 
Q 1241 3013 1022 3619 
L 997 3619 
Q 1041 2747 1041 2022 
L 1041 0 
L 531 0 
L 531 4181 
L 1266 4181 
L 2250 1816 
Q 2419 1409 2622 838 
L 2638 838 
Q 2863 1472 3009 1816 
L 3994 4181 
L 4728 4181 
L 4728 0 
L 4219 0 
L 4219 2022 
Q 4219 2731 4263 3619 
L 4238 3619 
Q 4006 2978 3800 2497 
L 2747 0 
z
" transform="scale(0.015625)"/>
       <path id="Corbel-41" d="M 109 0 
L 1813 4181 
L 2253 4181 
L 3956 0 
L 3403 0 
L 2903 1259 
L 1156 1259 
L 656 0 
L 109 0 
z
M 2028 3531 
Q 1750 2750 1494 2113 
L 1338 1719 
L 2722 1719 
L 2566 2113 
Q 2309 2763 2041 3531 
L 2028 3531 
z
" transform="scale(0.015625)"/>
       <path id="Corbel-48" d="M 1041 2372 
L 3231 2372 
L 3231 4181 
L 3741 4181 
L 3741 0 
L 3231 0 
L 3231 1913 
L 1041 1913 
L 1041 0 
L 531 0 
L 531 4181 
L 1041 4181 
L 1041 2372 
z
" transform="scale(0.015625)"/>
       <path id="Corbel-4f" d="M 3763 2088 
Q 3763 2509 3653 2831 
Q 3544 3153 3351 3368 
Q 3159 3584 2898 3695 
Q 2638 3806 2338 3806 
Q 2038 3806 1777 3695 
Q 1516 3584 1323 3368 
Q 1131 3153 1022 2831 
Q 913 2509 913 2088 
Q 913 1666 1023 1345 
Q 1134 1025 1326 809 
Q 1519 594 1780 484 
Q 2041 375 2344 375 
Q 2644 375 2901 484 
Q 3159 594 3351 809 
Q 3544 1025 3653 1345 
Q 3763 1666 3763 2088 
z
M 4300 2088 
Q 4300 1613 4162 1216 
Q 4025 819 3769 531 
Q 3513 244 3152 83 
Q 2791 -78 2344 -78 
Q 1881 -78 1515 83 
Q 1150 244 897 531 
Q 644 819 509 1216 
Q 375 1613 375 2088 
Q 375 2566 514 2964 
Q 653 3363 908 3650 
Q 1163 3938 1525 4098 
Q 1888 4259 2338 4259 
Q 2797 4259 3161 4098 
Q 3525 3938 3778 3650 
Q 4031 3363 4165 2964 
Q 4300 2566 4300 2088 
z
" transform="scale(0.015625)"/>
      </defs>
      <use xlink:href="#Corbel-4d"/>
      <use xlink:href="#Corbel-41" x="82.177734"/>
      <use xlink:href="#Corbel-52" x="145.703125"/>
      <use xlink:href="#Corbel-41" x="204.882812"/>
      <use xlink:href="#Corbel-54" x="263.033203"/>
      <use xlink:href="#Corbel-48" x="318.550781"/>
      <use xlink:href="#Corbel-4f" x="385.298828"/>
      <use xlink:href="#Corbel-4e" x="458.345703"/>
      <use xlink:href="#Corbel-5f" x="527.974609"/>
      <use xlink:href="#Corbel-53" x="576.802734"/>
      <use xlink:href="#Corbel-4b" x="631.978516"/>
      <use xlink:href="#Corbel-45" x="692.476562"/>
      <use xlink:href="#Corbel-4c" x="747.603516"/>
     </g>
    </g>
   </g>
  </g>
 </g>
 <defs>
  <clipPath id="p94daa6c962">
   <rect x="43.2" y="21.6" width="216" height="172.8"/>
  </clipPath>
 </defs>
</svg>
