<?xml version="1.0" encoding="utf-8" standalone="no"?>
<!DOCTYPE svg PUBLIC "-//W3C//DTD SVG 1.1//EN"
  "http://www.w3.org/Graphics/SVG/1.1/DTD/svg11.dtd">
<svg xmlns:xlink="http://www.w3.org/1999/xlink" width="432pt" height="216pt" viewBox="0 0 432 216" xmlns="http://www.w3.org/2000/svg" version="1.1">
 <metadata>
  <rdf:RDF xmlns:dc="http://purl.org/dc/elements/1.1/" xmlns:cc="http://creativecommons.org/ns#" xmlns:rdf="http://www.w3.org/1999/02/22-rdf-syntax-ns#">
   <cc:Work>
    <dc:type rdf:resource="http://purl.org/dc/dcmitype/StillImage"/>
    <dc:date>2023-01-11T11:17:54.367492</dc:date>
    <dc:format>image/svg+xml</dc:format>
    <dc:creator>
     <cc:Agent>
      <dc:title>Matplotlib v3.5.1, https://matplotlib.org/</dc:title>
     </cc:Agent>
    </dc:creator>
   </cc:Work>
  </rdf:RDF>
 </metadata>
 <defs>
  <style type="text/css">*{stroke-linejoin: round; stroke-linecap: butt}</style>
 </defs>
 <g id="figure_1">
  <g id="patch_1">
   <path d="M 0 216 
L 432 216 
L 432 0 
L 0 0 
z
" style="fill: #ffffff"/>
  </g>
  <g id="axes_1">
   <g id="patch_2">
    <path d="M 43.2 194.4 
L 259.2 194.4 
L 259.2 21.6 
L 43.2 21.6 
z
" style="fill: #ffffff"/>
   </g>
   <g id="patch_3">
    <path d="M 53.018182 335.781818 
L 85.745455 335.781818 
L 85.745455 99.517091 
L 53.018182 99.517091 
z
" clip-path="url(#p40e902fad0)" style="fill: #666666"/>
   </g>
   <g id="patch_4">
    <path d="M 108.803306 335.781818 
L 141.530579 335.781818 
L 141.530579 73.754182 
L 108.803306 73.754182 
z
" clip-path="url(#p40e902fad0)" style="fill: #386cb0"/>
   </g>
   <g id="patch_5">
    <path d="M 183.183471 335.781818 
L 215.910744 335.781818 
L 215.910744 178.062545 
L 183.183471 178.062545 
z
" clip-path="url(#p40e902fad0)" style="fill: #7fc97f"/>
   </g>
   <g id="PathCollection_1">
    <defs>
     <path id="m8b2de5eacd" d="M 0 1.581139 
C 0.419323 1.581139 0.821528 1.41454 1.118034 1.118034 
C 1.41454 0.821528 1.581139 0.419323 1.581139 0 
C 1.581139 -0.419323 1.41454 -0.821528 1.118034 -1.118034 
C 0.821528 -1.41454 0.419323 -1.581139 0 -1.581139 
C -0.419323 -1.581139 -0.821528 -1.41454 -1.118034 -1.118034 
C -1.41454 -0.821528 -1.581139 -0.419323 -1.581139 0 
C -1.581139 0.419323 -1.41454 0.821528 -1.118034 1.118034 
C -0.821528 1.41454 -0.419323 1.581139 0 1.581139 
z
" style="stroke: #386cb0"/>
    </defs>
    <g clip-path="url(#p40e902fad0)">
     <use xlink:href="#m8b2de5eacd" x="148.224793" y="40.450909" style="fill: #386cb0; stroke: #386cb0"/>
    </g>
   </g>
   <g id="PathCollection_2">
    <g clip-path="url(#p40e902fad0)">
     <use xlink:href="#m8b2de5eacd" x="152.687603" y="100.145455" style="fill: #386cb0; stroke: #386cb0"/>
    </g>
   </g>
   <g id="PathCollection_3">
    <g clip-path="url(#p40e902fad0)">
     <use xlink:href="#m8b2de5eacd" x="157.150413" y="84.436364" style="fill: #386cb0; stroke: #386cb0"/>
    </g>
   </g>
   <g id="PathCollection_4">
    <g clip-path="url(#p40e902fad0)">
     <use xlink:href="#m8b2de5eacd" x="161.613223" y="62.443636" style="fill: #386cb0; stroke: #386cb0"/>
    </g>
   </g>
   <g id="PathCollection_5">
    <g clip-path="url(#p40e902fad0)">
     <use xlink:href="#m8b2de5eacd" x="166.076033" y="84.436364" style="fill: #386cb0; stroke: #386cb0"/>
    </g>
   </g>
   <g id="PathCollection_6">
    <g clip-path="url(#p40e902fad0)">
     <use xlink:href="#m8b2de5eacd" x="170.538843" y="109.570909" style="fill: #386cb0; stroke: #386cb0"/>
    </g>
   </g>
   <g id="PathCollection_7">
    <g clip-path="url(#p40e902fad0)">
     <use xlink:href="#m8b2de5eacd" x="175.001653" y="112.712727" style="fill: #386cb0; stroke: #386cb0"/>
    </g>
   </g>
   <g id="PathCollection_8">
    <defs>
     <path id="m58df9238a1" d="M 0 1.581139 
C 0.419323 1.581139 0.821528 1.41454 1.118034 1.118034 
C 1.41454 0.821528 1.581139 0.419323 1.581139 0 
C 1.581139 -0.419323 1.41454 -0.821528 1.118034 -1.118034 
C 0.821528 -1.41454 0.419323 -1.581139 0 -1.581139 
C -0.419323 -1.581139 -0.821528 -1.41454 -1.118034 -1.118034 
C -1.41454 -0.821528 -1.581139 -0.419323 -1.581139 0 
C -1.581139 0.419323 -1.41454 0.821528 -1.118034 1.118034 
C -0.821528 1.41454 -0.419323 1.581139 0 1.581139 
z
" style="stroke: #7fc97f"/>
    </defs>
    <g clip-path="url(#p40e902fad0)">
     <use xlink:href="#m58df9238a1" x="222.604959" y="172.407273" style="fill: #7fc97f; stroke: #7fc97f"/>
    </g>
   </g>
   <g id="PathCollection_9">
    <g clip-path="url(#p40e902fad0)">
     <use xlink:href="#m58df9238a1" x="227.067769" y="166.123636" style="fill: #7fc97f; stroke: #7fc97f"/>
    </g>
   </g>
   <g id="PathCollection_10">
    <g clip-path="url(#p40e902fad0)">
     <use xlink:href="#m58df9238a1" x="231.530579" y="159.84" style="fill: #7fc97f; stroke: #7fc97f"/>
    </g>
   </g>
   <g id="PathCollection_11">
    <g clip-path="url(#p40e902fad0)">
     <use xlink:href="#m58df9238a1" x="235.993388" y="156.698182" style="fill: #7fc97f; stroke: #7fc97f"/>
    </g>
   </g>
   <g id="PathCollection_12">
    <g clip-path="url(#p40e902fad0)">
     <use xlink:href="#m58df9238a1" x="240.456198" y="162.981818" style="fill: #7fc97f; stroke: #7fc97f"/>
    </g>
   </g>
   <g id="PathCollection_13">
    <g clip-path="url(#p40e902fad0)">
     <use xlink:href="#m58df9238a1" x="244.919008" y="153.556364" style="fill: #7fc97f; stroke: #7fc97f"/>
    </g>
   </g>
   <g id="PathCollection_14">
    <g clip-path="url(#p40e902fad0)">
     <use xlink:href="#m58df9238a1" x="249.381818" y="147.272727" style="fill: #7fc97f; stroke: #7fc97f"/>
    </g>
   </g>
   <g id="matplotlib.axis_1"/>
   <g id="matplotlib.axis_2">
    <g id="ytick_1">
     <g id="line2d_1">
      <defs>
       <path id="m890d92f97a" d="M 0 0 
L -3.5 0 
" style="stroke: #000000; stroke-width: 0.8"/>
      </defs>
      <g>
       <use xlink:href="#m890d92f97a" x="43.2" y="194.4" style="stroke: #000000; stroke-width: 0.8"/>
      </g>
     </g>
     <g id="text_1">
      <!-- 45 -->
      <g transform="translate(26.234375 197.935156)scale(0.1 -0.1)">
       <defs>
        <path id="Corbel-34" d="M 841 416 
L 841 403 
L 1303 416 
L 1988 416 
L 1988 1366 
L 2472 1366 
L 2472 416 
L 3088 416 
L 3088 0 
L 2472 0 
L 2472 -1209 
L 1988 -1209 
L 1988 0 
L 288 0 
L 288 356 
L 1519 2969 
L 2041 2969 
L 841 416 
z
" transform="scale(0.015625)"/>
        <path id="Corbel-35" d="M 2744 41 
Q 2744 -247 2639 -490 
Q 2534 -734 2336 -912 
Q 2138 -1091 1853 -1191 
Q 1569 -1291 1206 -1291 
Q 969 -1291 753 -1245 
Q 538 -1200 366 -1106 
L 366 -694 
Q 597 -797 803 -833 
Q 1009 -869 1184 -869 
Q 1450 -869 1647 -798 
Q 1844 -728 1975 -606 
Q 2106 -484 2172 -323 
Q 2238 -163 2238 16 
Q 2238 231 2170 389 
Q 2103 547 1959 651 
Q 1816 756 1591 807 
Q 1366 859 1047 859 
Q 822 859 503 828 
L 800 2969 
L 2741 2969 
L 2741 2522 
L 1228 2522 
L 1053 1281 
Q 1163 1288 1228 1288 
Q 1594 1288 1876 1203 
Q 2159 1119 2351 959 
Q 2544 800 2644 569 
Q 2744 338 2744 41 
z
" transform="scale(0.015625)"/>
       </defs>
       <use xlink:href="#Corbel-34"/>
       <use xlink:href="#Corbel-35" x="51.660156"/>
      </g>
     </g>
    </g>
   </g>
   <g id="patch_6">
    <path d="M 43.2 194.4 
L 259.2 194.4 
" style="fill: none; stroke: #000000; stroke-width: 0.8; stroke-linejoin: miter; stroke-linecap: square"/>
   </g>
   <g id="text_2">
    <!-- 75.2 -->
    <g transform="translate(60.967756 97.246778)scale(0.1 -0.1)">
     <defs>
      <path id="Corbel-37" d="M 122 2522 
L 122 2969 
L 2572 2969 
L 2572 2644 
L 850 -1209 
L 344 -1209 
L 2013 2522 
L 122 2522 
z
" transform="scale(0.015625)"/>
      <path id="Corbel-2e" d="M 547 0 
L 547 609 
L 1144 609 
L 1144 0 
L 547 0 
z
" transform="scale(0.015625)"/>
      <path id="Corbel-32" d="M 1275 428 
Q 1634 447 1922 447 
L 2897 447 
L 2897 0 
L 484 0 
L 484 322 
Q 844 588 1147 817 
Q 1450 1047 1670 1258 
Q 1891 1469 2016 1669 
Q 2141 1869 2141 2072 
Q 2141 2344 1966 2487 
Q 1791 2631 1463 2631 
Q 1219 2628 989 2559 
Q 759 2491 516 2378 
L 516 2791 
Q 694 2894 955 2970 
Q 1216 3047 1528 3047 
Q 1775 3047 1979 2984 
Q 2184 2922 2332 2801 
Q 2481 2681 2562 2504 
Q 2644 2328 2644 2097 
Q 2644 1850 2537 1636 
Q 2431 1422 2247 1225 
Q 2063 1028 1813 836 
Q 1563 644 1275 441 
L 1275 428 
z
" transform="scale(0.015625)"/>
     </defs>
     <use xlink:href="#Corbel-37"/>
     <use xlink:href="#Corbel-35" x="42.773438"/>
     <use xlink:href="#Corbel-2e" x="90.771484"/>
     <use xlink:href="#Corbel-32" x="117.1875"/>
    </g>
   </g>
   <g id="text_3">
    <!-- 83.4 -->
    <g transform="translate(116.423973 71.483869)scale(0.1 -0.1)">
     <defs>
      <path id="Corbel-38" d="M 1647 -78 
Q 1344 -78 1095 11 
Q 847 100 669 256 
Q 491 413 394 627 
Q 297 841 297 1091 
Q 297 1322 362 1500 
Q 428 1678 539 1809 
Q 650 1941 798 2027 
Q 947 2113 1113 2153 
L 1113 2166 
Q 956 2219 823 2309 
Q 691 2400 592 2526 
Q 494 2653 439 2814 
Q 384 2975 384 3169 
Q 384 3434 490 3637 
Q 597 3841 773 3980 
Q 950 4119 1176 4189 
Q 1403 4259 1647 4259 
Q 1891 4259 2117 4189 
Q 2344 4119 2520 3980 
Q 2697 3841 2803 3637 
Q 2909 3434 2909 3169 
Q 2909 2975 2848 2814 
Q 2788 2653 2684 2526 
Q 2581 2400 2443 2309 
Q 2306 2219 2150 2166 
L 2150 2153 
Q 2316 2113 2469 2027 
Q 2622 1941 2739 1809 
Q 2856 1678 2926 1500 
Q 2997 1322 2997 1091 
Q 2997 841 2900 627 
Q 2803 413 2625 256 
Q 2447 100 2198 11 
Q 1950 -78 1647 -78 
z
M 1647 3847 
Q 1484 3847 1345 3801 
Q 1206 3756 1104 3667 
Q 1003 3578 947 3450 
Q 891 3322 891 3153 
Q 891 2834 1089 2634 
Q 1288 2434 1647 2363 
Q 2006 2434 2204 2634 
Q 2403 2834 2403 3153 
Q 2403 3322 2347 3450 
Q 2291 3578 2189 3667 
Q 2088 3756 1950 3801 
Q 1813 3847 1647 3847 
z
M 1647 1934 
Q 1472 1916 1319 1858 
Q 1166 1800 1050 1698 
Q 934 1597 868 1450 
Q 803 1303 803 1106 
Q 803 928 867 784 
Q 931 641 1043 541 
Q 1156 441 1311 387 
Q 1466 334 1647 334 
Q 1831 334 1986 387 
Q 2141 441 2253 541 
Q 2366 641 2428 784 
Q 2491 928 2491 1106 
Q 2491 1303 2425 1450 
Q 2359 1597 2243 1698 
Q 2128 1800 1975 1858 
Q 1822 1916 1647 1934 
z
" transform="scale(0.015625)"/>
      <path id="Corbel-33" d="M 1744 963 
Q 1909 947 2061 881 
Q 2213 816 2330 694 
Q 2447 572 2517 394 
Q 2588 216 2588 -25 
Q 2588 -313 2491 -547 
Q 2394 -781 2206 -947 
Q 2019 -1113 1742 -1202 
Q 1466 -1291 1103 -1291 
Q 850 -1291 620 -1244 
Q 391 -1197 213 -1106 
L 213 -694 
Q 438 -791 656 -833 
Q 875 -875 1069 -875 
Q 1356 -875 1550 -804 
Q 1744 -734 1861 -618 
Q 1978 -503 2029 -351 
Q 2081 -200 2081 -34 
Q 2081 372 1822 551 
Q 1563 731 1072 731 
L 741 731 
L 741 1147 
L 934 1147 
Q 1203 1147 1395 1208 
Q 1588 1269 1713 1376 
Q 1838 1484 1895 1629 
Q 1953 1775 1953 1944 
Q 1953 2122 1889 2251 
Q 1825 2381 1714 2465 
Q 1603 2550 1453 2590 
Q 1303 2631 1131 2631 
Q 919 2631 703 2581 
Q 488 2531 278 2447 
L 278 2859 
Q 534 2966 767 3006 
Q 1000 3047 1178 3047 
Q 1481 3047 1718 2965 
Q 1956 2884 2120 2737 
Q 2284 2591 2371 2391 
Q 2459 2191 2459 1950 
Q 2459 1791 2421 1641 
Q 2384 1491 2298 1362 
Q 2213 1234 2077 1134 
Q 1941 1034 1744 975 
L 1744 963 
z
" transform="scale(0.015625)"/>
     </defs>
     <use xlink:href="#Corbel-38"/>
     <use xlink:href="#Corbel-33" x="51.464844"/>
     <use xlink:href="#Corbel-2e" x="96.777344"/>
     <use xlink:href="#Corbel-34" x="123.193359"/>
    </g>
   </g>
   <g id="text_4">
    <!-- 50.2 -->
    <g transform="translate(190.703357 175.792233)scale(0.1 -0.1)">
     <defs>
      <path id="Corbel-30" d="M 2500 1481 
Q 2500 1750 2439 1964 
Q 2378 2178 2267 2326 
Q 2156 2475 1998 2554 
Q 1841 2634 1644 2634 
Q 1447 2634 1289 2554 
Q 1131 2475 1018 2326 
Q 906 2178 847 1964 
Q 788 1750 788 1481 
Q 788 1216 848 1002 
Q 909 788 1020 641 
Q 1131 494 1290 414 
Q 1450 334 1647 334 
Q 1844 334 2001 414 
Q 2159 494 2270 641 
Q 2381 788 2440 1002 
Q 2500 1216 2500 1481 
z
M 3006 1481 
Q 3006 1150 2914 864 
Q 2822 578 2647 368 
Q 2472 159 2220 40 
Q 1969 -78 1647 -78 
Q 1316 -78 1061 40 
Q 806 159 632 368 
Q 459 578 370 864 
Q 281 1150 281 1481 
Q 281 1816 373 2102 
Q 466 2388 641 2598 
Q 816 2809 1069 2928 
Q 1322 3047 1644 3047 
Q 1972 3047 2226 2928 
Q 2481 2809 2654 2598 
Q 2828 2388 2917 2102 
Q 3006 1816 3006 1481 
z
" transform="scale(0.015625)"/>
     </defs>
     <use xlink:href="#Corbel-35"/>
     <use xlink:href="#Corbel-30" x="47.998047"/>
     <use xlink:href="#Corbel-2e" x="99.365234"/>
     <use xlink:href="#Corbel-32" x="125.78125"/>
    </g>
   </g>
   <g id="text_5">
    <!-- Bolt -->
    <g transform="translate(143.761983 38.251636)scale(0.08 -0.08)">
     <defs>
      <path id="Corbel-42" d="M 2594 2163 
Q 2788 2134 2942 2059 
Q 3097 1984 3208 1867 
Q 3319 1750 3378 1589 
Q 3438 1428 3438 1222 
Q 3438 1075 3394 914 
Q 3350 753 3248 601 
Q 3147 450 2983 322 
Q 2819 194 2575 113 
Q 2388 50 2159 25 
Q 1931 0 1613 0 
L 531 0 
L 531 4181 
L 1575 4181 
Q 1719 4181 1836 4176 
Q 1953 4172 2051 4162 
Q 2150 4153 2234 4139 
Q 2319 4125 2394 4106 
Q 2591 4053 2752 3961 
Q 2913 3869 3025 3741 
Q 3138 3613 3198 3450 
Q 3259 3288 3259 3097 
Q 3259 2944 3223 2803 
Q 3188 2663 3108 2544 
Q 3028 2425 2901 2331 
Q 2775 2238 2594 2175 
L 2594 2163 
z
M 1816 2372 
Q 1966 2372 2075 2386 
Q 2184 2400 2272 2428 
Q 2506 2506 2614 2672 
Q 2722 2838 2722 3063 
Q 2722 3294 2609 3441 
Q 2497 3588 2256 3659 
Q 2138 3694 1981 3708 
Q 1825 3722 1613 3722 
L 1041 3722 
L 1041 2372 
L 1816 2372 
z
M 1041 1913 
L 1041 459 
L 1656 459 
Q 1875 459 2062 479 
Q 2250 500 2381 544 
Q 2525 591 2625 664 
Q 2725 738 2786 827 
Q 2847 916 2873 1016 
Q 2900 1116 2900 1219 
Q 2900 1338 2872 1442 
Q 2844 1547 2780 1630 
Q 2716 1713 2611 1775 
Q 2506 1838 2350 1872 
Q 2256 1894 2136 1903 
Q 2016 1913 1838 1913 
L 1041 1913 
z
" transform="scale(0.015625)"/>
      <path id="Corbel-6f" d="M 2609 1481 
Q 2609 1756 2542 1970 
Q 2475 2184 2354 2332 
Q 2234 2481 2068 2557 
Q 1903 2634 1706 2634 
Q 1509 2634 1343 2557 
Q 1178 2481 1058 2332 
Q 938 2184 870 1970 
Q 803 1756 803 1481 
Q 803 1209 870 995 
Q 938 781 1059 634 
Q 1181 488 1347 411 
Q 1513 334 1709 334 
Q 1906 334 2070 411 
Q 2234 488 2354 634 
Q 2475 781 2542 995 
Q 2609 1209 2609 1481 
z
M 3116 1481 
Q 3116 1131 3016 843 
Q 2916 556 2733 351 
Q 2550 147 2290 34 
Q 2031 -78 1709 -78 
Q 1378 -78 1117 34 
Q 856 147 673 351 
Q 491 556 394 843 
Q 297 1131 297 1481 
Q 297 1834 397 2121 
Q 497 2409 680 2615 
Q 863 2822 1123 2934 
Q 1384 3047 1706 3047 
Q 2034 3047 2296 2934 
Q 2559 2822 2740 2615 
Q 2922 2409 3019 2121 
Q 3116 1834 3116 1481 
z
" transform="scale(0.015625)"/>
      <path id="Corbel-6c" d="M 500 0 
L 500 4525 
L 984 4525 
L 984 0 
L 500 0 
z
" transform="scale(0.015625)"/>
      <path id="Corbel-74" d="M 2034 -6 
Q 1972 -31 1844 -53 
Q 1716 -75 1538 -78 
Q 1303 -78 1131 -20 
Q 959 38 845 145 
Q 731 253 675 406 
Q 619 559 619 747 
L 619 2553 
L 47 2553 
L 47 2969 
L 619 2969 
L 619 3781 
L 1103 3781 
L 1103 2969 
L 1991 2969 
L 1991 2553 
L 1103 2553 
L 1103 822 
Q 1103 719 1133 631 
Q 1163 544 1227 480 
Q 1291 416 1391 380 
Q 1491 344 1631 344 
Q 1728 344 1836 359 
Q 1944 375 2034 400 
L 2034 -6 
z
" transform="scale(0.015625)"/>
     </defs>
     <use xlink:href="#Corbel-42"/>
     <use xlink:href="#Corbel-6f" x="59.326172"/>
     <use xlink:href="#Corbel-6c" x="112.646484"/>
     <use xlink:href="#Corbel-74" x="135.839844"/>
    </g>
   </g>
   <g id="text_6">
    <!-- Gay -->
    <g transform="translate(148.224793 97.946182)scale(0.08 -0.08)">
     <defs>
      <path id="Corbel-47" d="M 3266 1691 
L 2313 1691 
L 2313 2150 
L 3775 2150 
L 3775 128 
Q 3709 94 3582 58 
Q 3456 22 3293 -9 
Q 3131 -41 2945 -59 
Q 2759 -78 2578 -78 
Q 2041 -78 1630 69 
Q 1219 216 941 484 
Q 663 753 519 1137 
Q 375 1522 375 1994 
Q 375 2506 542 2925 
Q 709 3344 1014 3641 
Q 1319 3938 1742 4098 
Q 2166 4259 2675 4259 
Q 2813 4259 2950 4248 
Q 3088 4238 3213 4217 
Q 3338 4197 3444 4169 
Q 3550 4141 3622 4109 
L 3622 3659 
Q 3434 3722 3190 3764 
Q 2947 3806 2703 3806 
Q 2347 3806 2023 3698 
Q 1700 3591 1453 3372 
Q 1206 3153 1059 2823 
Q 913 2494 913 2050 
Q 913 1616 1033 1300 
Q 1153 984 1373 778 
Q 1594 572 1908 473 
Q 2222 375 2606 375 
Q 2784 375 2957 394 
Q 3131 413 3266 447 
L 3266 1691 
z
" transform="scale(0.015625)"/>
      <path id="Corbel-61" d="M 2206 328 
L 2194 328 
Q 2134 253 2043 179 
Q 1953 106 1834 48 
Q 1716 -9 1575 -43 
Q 1434 -78 1275 -78 
Q 1059 -78 879 -14 
Q 700 50 570 173 
Q 441 297 369 475 
Q 297 653 297 878 
Q 297 1100 376 1275 
Q 456 1450 600 1572 
Q 744 1694 945 1759 
Q 1147 1825 1391 1825 
Q 1622 1822 1819 1784 
Q 2016 1747 2169 1691 
L 2181 1691 
L 2181 1897 
Q 2181 2019 2165 2112 
Q 2150 2206 2113 2278 
Q 2031 2428 1853 2526 
Q 1675 2625 1372 2625 
Q 1147 2625 948 2583 
Q 750 2541 553 2466 
L 553 2872 
Q 628 2909 729 2942 
Q 831 2975 943 2998 
Q 1056 3022 1181 3034 
Q 1306 3047 1431 3047 
Q 1881 3047 2167 2887 
Q 2453 2728 2578 2466 
Q 2625 2366 2645 2245 
Q 2666 2125 2666 1981 
L 2666 0 
L 2259 0 
L 2206 328 
z
M 2181 1303 
Q 2047 1341 1862 1375 
Q 1678 1409 1456 1413 
Q 1147 1413 972 1281 
Q 797 1150 797 878 
Q 797 741 840 637 
Q 884 534 961 467 
Q 1038 400 1142 367 
Q 1247 334 1366 334 
Q 1522 334 1656 379 
Q 1791 425 1895 487 
Q 2000 550 2073 612 
Q 2147 675 2181 709 
L 2181 1303 
z
" transform="scale(0.015625)"/>
      <path id="Corbel-79" d="M 94 2969 
L 591 2969 
L 1513 641 
L 1531 641 
L 2466 2969 
L 2975 2969 
L 1122 -1453 
L 641 -1453 
L 1275 59 
L 94 2969 
z
" transform="scale(0.015625)"/>
     </defs>
     <use xlink:href="#Corbel-47"/>
     <use xlink:href="#Corbel-61" x="66.796875"/>
     <use xlink:href="#Corbel-79" x="115.771484"/>
    </g>
   </g>
   <g id="text_7">
    <!-- Blake -->
    <g transform="translate(137.81157 82.237091)scale(0.08 -0.08)">
     <defs>
      <path id="Corbel-6b" d="M 2391 2969 
L 3022 2969 
L 1572 1603 
L 3019 0 
L 2416 0 
L 991 1581 
L 984 1581 
L 984 0 
L 500 0 
L 500 4525 
L 984 4525 
L 984 1644 
L 991 1644 
L 2391 2969 
z
" transform="scale(0.015625)"/>
      <path id="Corbel-65" d="M 1631 2631 
Q 1466 2631 1323 2565 
Q 1181 2500 1075 2387 
Q 969 2275 903 2123 
Q 838 1972 822 1800 
L 2322 1800 
Q 2322 1975 2276 2126 
Q 2231 2278 2143 2390 
Q 2056 2503 1928 2567 
Q 1800 2631 1631 2631 
z
M 1897 344 
Q 2138 344 2336 383 
Q 2534 422 2731 494 
L 2731 91 
Q 2572 13 2337 -32 
Q 2103 -78 1834 -78 
Q 1516 -78 1236 3 
Q 956 84 747 265 
Q 538 447 417 739 
Q 297 1031 297 1444 
Q 297 1850 409 2148 
Q 522 2447 709 2647 
Q 897 2847 1140 2947 
Q 1384 3047 1650 3047 
Q 1900 3047 2117 2964 
Q 2334 2881 2493 2703 
Q 2653 2525 2745 2244 
Q 2838 1963 2838 1569 
Q 2838 1531 2838 1504 
Q 2838 1478 2834 1384 
L 797 1384 
Q 797 1100 883 901 
Q 969 703 1117 579 
Q 1266 456 1466 400 
Q 1666 344 1897 344 
z
" transform="scale(0.015625)"/>
     </defs>
     <use xlink:href="#Corbel-42"/>
     <use xlink:href="#Corbel-6c" x="59.326172"/>
     <use xlink:href="#Corbel-61" x="82.519531"/>
     <use xlink:href="#Corbel-6b" x="131.494141"/>
     <use xlink:href="#Corbel-65" x="180.175781"/>
    </g>
   </g>
   <g id="text_8">
    <!-- Powell -->
    <g transform="translate(157.150413 60.244364)scale(0.08 -0.08)">
     <defs>
      <path id="Corbel-50" d="M 1041 0 
L 531 0 
L 531 4181 
L 1691 4181 
Q 1950 4181 2170 4150 
Q 2391 4119 2575 4053 
Q 2950 3919 3144 3651 
Q 3338 3384 3338 2994 
Q 3338 2675 3211 2433 
Q 3084 2191 2843 2028 
Q 2603 1866 2258 1783 
Q 1913 1700 1475 1700 
Q 1266 1700 1041 1719 
L 1041 0 
z
M 1041 2184 
Q 1144 2172 1256 2165 
Q 1369 2159 1469 2159 
Q 1828 2159 2081 2215 
Q 2334 2272 2493 2380 
Q 2653 2488 2725 2642 
Q 2797 2797 2797 2994 
Q 2797 3238 2680 3394 
Q 2563 3550 2347 3631 
Q 2213 3681 2038 3701 
Q 1863 3722 1631 3722 
L 1041 3722 
L 1041 2184 
z
" transform="scale(0.015625)"/>
      <path id="Corbel-77" d="M 2269 2478 
Q 2172 2069 2088 1772 
L 1600 0 
L 1103 0 
L 125 2969 
L 616 2969 
L 1166 1119 
Q 1275 753 1331 534 
L 1344 534 
Q 1394 759 1509 1184 
L 2006 2969 
L 2550 2969 
L 3047 1184 
Q 3147 822 3213 534 
L 3225 534 
Q 3300 822 3391 1119 
L 3941 2969 
L 4431 2969 
L 3453 0 
L 2950 0 
L 2463 1772 
Q 2375 2088 2281 2478 
L 2269 2478 
z
" transform="scale(0.015625)"/>
     </defs>
     <use xlink:href="#Corbel-50"/>
     <use xlink:href="#Corbel-6f" x="52.65625"/>
     <use xlink:href="#Corbel-77" x="105.976562"/>
     <use xlink:href="#Corbel-65" x="177.167969"/>
     <use xlink:href="#Corbel-6c" x="226.923828"/>
     <use xlink:href="#Corbel-6c" x="250.117188"/>
    </g>
   </g>
   <g id="text_9">
    <!-- Gatlin -->
    <g transform="translate(166.076033 82.237091)scale(0.08 -0.08)">
     <defs>
      <path id="Corbel-69" d="M 500 0 
L 500 2969 
L 984 2969 
L 984 0 
L 500 0 
z
M 488 3659 
L 488 4200 
L 997 4200 
L 997 3659 
L 488 3659 
z
" transform="scale(0.015625)"/>
      <path id="Corbel-6e" d="M 938 2556 
L 947 2556 
Q 1028 2659 1126 2748 
Q 1225 2838 1347 2905 
Q 1469 2972 1614 3009 
Q 1759 3047 1931 3047 
Q 2134 3047 2312 2990 
Q 2491 2934 2622 2809 
Q 2753 2684 2829 2482 
Q 2906 2281 2906 1988 
L 2906 0 
L 2422 0 
L 2422 1909 
Q 2422 2294 2273 2462 
Q 2125 2631 1841 2631 
Q 1591 2631 1356 2492 
Q 1122 2353 953 2109 
L 953 0 
L 469 0 
L 469 2969 
L 844 2969 
L 938 2556 
z
" transform="scale(0.015625)"/>
     </defs>
     <use xlink:href="#Corbel-47"/>
     <use xlink:href="#Corbel-61" x="66.796875"/>
     <use xlink:href="#Corbel-74" x="115.771484"/>
     <use xlink:href="#Corbel-6c" x="150.488281"/>
     <use xlink:href="#Corbel-69" x="173.681641"/>
     <use xlink:href="#Corbel-6e" x="196.875"/>
    </g>
   </g>
   <g id="text_10">
    <!-- Coleman -->
    <g transform="translate(151.2 107.371636)scale(0.08 -0.08)">
     <defs>
      <path id="Corbel-43" d="M 2563 3806 
Q 2216 3806 1914 3695 
Q 1613 3584 1391 3364 
Q 1169 3144 1041 2817 
Q 913 2491 913 2056 
Q 913 1625 1031 1308 
Q 1150 991 1369 783 
Q 1588 575 1895 475 
Q 2203 375 2581 375 
Q 2684 375 2800 386 
Q 2916 397 3033 417 
Q 3150 438 3261 464 
Q 3372 491 3459 522 
L 3459 72 
Q 3275 0 3031 -39 
Q 2788 -78 2531 -78 
Q 2009 -78 1606 67 
Q 1203 213 929 484 
Q 656 756 515 1148 
Q 375 1541 375 2038 
Q 375 2525 523 2934 
Q 672 3344 951 3637 
Q 1231 3931 1629 4095 
Q 2028 4259 2525 4259 
Q 2656 4259 2784 4248 
Q 2913 4238 3030 4217 
Q 3147 4197 3247 4169 
Q 3347 4141 3419 4109 
L 3419 3659 
Q 3231 3722 3009 3764 
Q 2788 3806 2563 3806 
z
" transform="scale(0.015625)"/>
      <path id="Corbel-6d" d="M 2894 0 
L 2409 0 
L 2409 1909 
Q 2409 2103 2367 2239 
Q 2325 2375 2245 2462 
Q 2166 2550 2055 2590 
Q 1944 2631 1806 2631 
Q 1547 2631 1334 2492 
Q 1122 2353 953 2109 
L 953 0 
L 469 0 
L 469 2969 
L 844 2969 
L 938 2556 
L 947 2556 
Q 1028 2659 1123 2748 
Q 1219 2838 1336 2905 
Q 1453 2972 1593 3009 
Q 1734 3047 1900 3047 
Q 2231 3047 2450 2887 
Q 2669 2728 2788 2453 
L 2800 2453 
Q 2997 2731 3250 2889 
Q 3503 3047 3841 3047 
Q 3997 3047 4172 3003 
Q 4347 2959 4494 2842 
Q 4641 2725 4737 2519 
Q 4834 2313 4834 1988 
L 4834 0 
L 4353 0 
L 4353 1909 
Q 4353 2103 4311 2239 
Q 4269 2375 4189 2462 
Q 4109 2550 3998 2590 
Q 3888 2631 3750 2631 
Q 3491 2631 3277 2492 
Q 3063 2353 2894 2109 
L 2894 0 
z
" transform="scale(0.015625)"/>
     </defs>
     <use xlink:href="#Corbel-43"/>
     <use xlink:href="#Corbel-6f" x="58.935547"/>
     <use xlink:href="#Corbel-6c" x="112.255859"/>
     <use xlink:href="#Corbel-65" x="135.449219"/>
     <use xlink:href="#Corbel-6d" x="185.205078"/>
     <use xlink:href="#Corbel-61" x="268.066406"/>
     <use xlink:href="#Corbel-6e" x="317.041016"/>
    </g>
   </g>
   <g id="text_11">
    <!-- Bromell -->
    <g transform="translate(166.076033 120.567273)scale(0.08 -0.08)">
     <defs>
      <path id="Corbel-72" d="M 2097 2575 
L 2059 2575 
Q 1888 2575 1722 2544 
Q 1556 2513 1411 2448 
Q 1266 2384 1148 2290 
Q 1031 2197 953 2069 
L 953 0 
L 469 0 
L 469 2969 
L 844 2969 
L 938 2497 
L 947 2497 
Q 1019 2613 1123 2713 
Q 1228 2813 1359 2888 
Q 1491 2963 1647 3005 
Q 1803 3047 1975 3047 
Q 2006 3047 2039 3045 
Q 2072 3044 2097 3041 
L 2097 2575 
z
" transform="scale(0.015625)"/>
     </defs>
     <use xlink:href="#Corbel-42"/>
     <use xlink:href="#Corbel-72" x="59.326172"/>
     <use xlink:href="#Corbel-6f" x="92.822266"/>
     <use xlink:href="#Corbel-6d" x="146.142578"/>
     <use xlink:href="#Corbel-65" x="229.003906"/>
     <use xlink:href="#Corbel-6c" x="278.759766"/>
     <use xlink:href="#Corbel-6c" x="301.953125"/>
    </g>
   </g>
   <g id="text_12">
    <!-- Kipchoge -->
    <g transform="translate(213.679339 180.261818)scale(0.08 -0.08)">
     <defs>
      <path id="Corbel-4b" d="M 531 0 
L 531 4181 
L 1041 4181 
L 1041 2116 
L 1047 2116 
L 2969 4181 
L 3597 4181 
L 1647 2100 
L 3747 0 
L 3084 0 
L 1047 2047 
L 1041 2047 
L 1041 0 
L 531 0 
z
" transform="scale(0.015625)"/>
      <path id="Corbel-70" d="M 2594 1513 
Q 2594 1772 2539 1978 
Q 2484 2184 2375 2329 
Q 2266 2475 2106 2553 
Q 1947 2631 1738 2631 
Q 1588 2631 1464 2590 
Q 1341 2550 1241 2487 
Q 1141 2425 1069 2353 
Q 997 2281 953 2225 
L 953 672 
Q 1106 516 1301 425 
Q 1497 334 1722 334 
Q 1859 334 2012 386 
Q 2166 438 2295 570 
Q 2425 703 2509 931 
Q 2594 1159 2594 1513 
z
M 3100 1519 
Q 3100 1209 3039 970 
Q 2978 731 2878 553 
Q 2778 375 2643 254 
Q 2509 134 2365 60 
Q 2222 -13 2073 -45 
Q 1925 -78 1794 -78 
Q 1522 -78 1322 11 
Q 1122 100 963 275 
L 953 275 
L 953 -1453 
L 469 -1453 
L 469 2969 
L 834 2969 
L 938 2631 
L 947 2631 
Q 988 2694 1052 2753 
Q 1116 2813 1223 2880 
Q 1331 2947 1482 2997 
Q 1634 3047 1813 3047 
Q 2063 3047 2295 2962 
Q 2528 2878 2706 2693 
Q 2884 2509 2992 2220 
Q 3100 1931 3100 1519 
z
" transform="scale(0.015625)"/>
      <path id="Corbel-63" d="M 1744 3047 
Q 1959 3047 2156 3001 
Q 2353 2956 2494 2875 
L 2494 2472 
Q 2297 2547 2131 2584 
Q 1966 2622 1794 2622 
Q 1613 2622 1434 2562 
Q 1256 2503 1115 2367 
Q 975 2231 889 2007 
Q 803 1784 803 1453 
Q 803 1213 867 1009 
Q 931 806 1057 657 
Q 1184 509 1375 426 
Q 1566 344 1816 344 
Q 1997 344 2181 383 
Q 2366 422 2541 494 
L 2541 91 
Q 2488 59 2402 28 
Q 2316 -3 2212 -26 
Q 2109 -50 1993 -64 
Q 1878 -78 1763 -78 
Q 1463 -78 1195 12 
Q 928 103 728 290 
Q 528 478 412 765 
Q 297 1053 297 1447 
Q 297 1741 358 1975 
Q 419 2209 525 2387 
Q 631 2566 773 2691 
Q 916 2816 1077 2895 
Q 1238 2975 1409 3011 
Q 1581 3047 1744 3047 
z
" transform="scale(0.015625)"/>
      <path id="Corbel-68" d="M 984 2563 
L 994 2563 
Q 1075 2666 1175 2755 
Q 1275 2844 1397 2908 
Q 1519 2972 1659 3009 
Q 1800 3047 1963 3047 
Q 2131 3047 2300 3001 
Q 2469 2956 2612 2840 
Q 2756 2725 2847 2519 
Q 2938 2313 2938 1988 
L 2938 0 
L 2453 0 
L 2453 1909 
Q 2453 2269 2317 2450 
Q 2181 2631 1872 2631 
Q 1616 2631 1384 2492 
Q 1153 2353 984 2109 
L 984 0 
L 500 0 
L 500 4525 
L 984 4525 
L 984 2563 
z
" transform="scale(0.015625)"/>
      <path id="Corbel-67" d="M 803 1466 
Q 803 1116 887 894 
Q 972 672 1101 548 
Q 1231 425 1384 379 
Q 1538 334 1675 334 
Q 1900 334 2097 425 
Q 2294 516 2444 672 
L 2444 2225 
Q 2403 2281 2331 2353 
Q 2259 2425 2164 2486 
Q 2069 2547 1947 2589 
Q 1825 2631 1681 2631 
Q 1466 2631 1302 2545 
Q 1138 2459 1027 2306 
Q 916 2153 859 1939 
Q 803 1725 803 1466 
z
M 1619 3047 
Q 1813 3044 1956 2997 
Q 2100 2950 2203 2879 
Q 2306 2809 2367 2740 
Q 2428 2672 2450 2631 
L 2463 2631 
L 2563 2969 
L 2928 2969 
L 2928 -175 
Q 2928 -519 2815 -773 
Q 2703 -1028 2500 -1197 
Q 2297 -1366 2011 -1448 
Q 1725 -1531 1378 -1531 
Q 1084 -1531 853 -1479 
Q 622 -1428 491 -1356 
L 491 -947 
Q 597 -991 697 -1020 
Q 797 -1050 903 -1070 
Q 1009 -1091 1120 -1100 
Q 1231 -1109 1366 -1109 
Q 1888 -1109 2166 -865 
Q 2444 -622 2444 -122 
L 2444 275 
L 2434 275 
Q 2275 100 2064 11 
Q 1853 -78 1581 -78 
Q 1456 -78 1312 -50 
Q 1169 -22 1025 45 
Q 881 113 750 223 
Q 619 334 519 501 
Q 419 669 358 897 
Q 297 1125 297 1425 
Q 297 1841 409 2145 
Q 522 2450 706 2650 
Q 891 2850 1128 2948 
Q 1366 3047 1619 3047 
z
" transform="scale(0.015625)"/>
     </defs>
     <use xlink:href="#Corbel-4b"/>
     <use xlink:href="#Corbel-69" x="60.498047"/>
     <use xlink:href="#Corbel-70" x="83.691406"/>
     <use xlink:href="#Corbel-63" x="136.767578"/>
     <use xlink:href="#Corbel-68" x="180.615234"/>
     <use xlink:href="#Corbel-6f" x="233.837891"/>
     <use xlink:href="#Corbel-67" x="287.158203"/>
     <use xlink:href="#Corbel-65" x="340.234375"/>
    </g>
   </g>
   <g id="text_13">
    <!-- Bekele -->
    <g transform="translate(227.067769 173.978182)scale(0.08 -0.08)">
     <use xlink:href="#Corbel-42"/>
     <use xlink:href="#Corbel-65" x="59.326172"/>
     <use xlink:href="#Corbel-6b" x="109.082031"/>
     <use xlink:href="#Corbel-65" x="157.763672"/>
     <use xlink:href="#Corbel-6c" x="207.519531"/>
     <use xlink:href="#Corbel-65" x="230.712891"/>
    </g>
   </g>
   <g id="text_14">
    <!-- Legese -->
    <g transform="translate(204.753719 157.326545)scale(0.08 -0.08)">
     <defs>
      <path id="Corbel-4c" d="M 1041 4181 
L 1041 459 
L 3081 459 
L 3081 0 
L 531 0 
L 531 4181 
L 1041 4181 
z
" transform="scale(0.015625)"/>
      <path id="Corbel-73" d="M 781 2178 
Q 781 2056 834 1978 
Q 888 1900 977 1851 
Q 1066 1803 1183 1772 
Q 1300 1741 1425 1716 
Q 1597 1678 1750 1633 
Q 1903 1588 2033 1497 
Q 2163 1406 2242 1251 
Q 2322 1097 2322 850 
Q 2322 625 2234 451 
Q 2147 278 1987 161 
Q 1828 44 1606 -17 
Q 1384 -78 1119 -78 
Q 956 -78 823 -61 
Q 691 -44 589 -17 
Q 488 9 416 37 
Q 344 66 297 91 
L 297 497 
Q 484 422 668 378 
Q 853 334 1075 334 
Q 1250 334 1390 365 
Q 1531 397 1632 458 
Q 1734 519 1789 611 
Q 1844 703 1844 825 
Q 1844 950 1794 1031 
Q 1744 1113 1659 1166 
Q 1575 1219 1464 1253 
Q 1353 1288 1231 1316 
Q 1072 1350 908 1397 
Q 744 1444 609 1528 
Q 475 1613 392 1758 
Q 309 1903 309 2131 
Q 309 2366 393 2537 
Q 478 2709 622 2821 
Q 766 2934 956 2990 
Q 1147 3047 1359 3047 
Q 1606 3047 1817 3000 
Q 2028 2953 2200 2881 
L 2200 2469 
Q 2013 2541 1820 2586 
Q 1628 2631 1425 2634 
Q 1253 2634 1131 2600 
Q 1009 2566 931 2505 
Q 853 2444 817 2361 
Q 781 2278 781 2178 
z
" transform="scale(0.015625)"/>
     </defs>
     <use xlink:href="#Corbel-4c"/>
     <use xlink:href="#Corbel-65" x="52.050781"/>
     <use xlink:href="#Corbel-67" x="101.806641"/>
     <use xlink:href="#Corbel-65" x="154.882812"/>
     <use xlink:href="#Corbel-73" x="204.638672"/>
     <use xlink:href="#Corbel-65" x="245.068359"/>
    </g>
   </g>
   <g id="text_15">
    <!-- Geremew -->
    <g transform="translate(206.241322 151.985455)scale(0.08 -0.08)">
     <use xlink:href="#Corbel-47"/>
     <use xlink:href="#Corbel-65" x="66.796875"/>
     <use xlink:href="#Corbel-72" x="116.552734"/>
     <use xlink:href="#Corbel-65" x="150.048828"/>
     <use xlink:href="#Corbel-6d" x="199.804688"/>
     <use xlink:href="#Corbel-65" x="282.666016"/>
     <use xlink:href="#Corbel-77" x="332.421875"/>
    </g>
   </g>
   <g id="text_16">
    <!-- Kimetto -->
    <g transform="translate(243.431405 167.694545)scale(0.08 -0.08)">
     <use xlink:href="#Corbel-4b"/>
     <use xlink:href="#Corbel-69" x="60.498047"/>
     <use xlink:href="#Corbel-6d" x="83.691406"/>
     <use xlink:href="#Corbel-65" x="166.552734"/>
     <use xlink:href="#Corbel-74" x="216.308594"/>
     <use xlink:href="#Corbel-74" x="251.025391"/>
     <use xlink:href="#Corbel-6f" x="285.742188"/>
    </g>
   </g>
   <g id="text_17">
    <!-- Ekiru -->
    <g transform="translate(247.894215 158.269091)scale(0.08 -0.08)">
     <defs>
      <path id="Corbel-45" d="M 1041 459 
L 3184 459 
L 3184 0 
L 531 0 
L 531 4181 
L 3069 4181 
L 3069 3722 
L 1041 3722 
L 1041 2372 
L 2844 2372 
L 2844 1913 
L 1041 1913 
L 1041 459 
z
" transform="scale(0.015625)"/>
      <path id="Corbel-75" d="M 1647 -78 
Q 1416 -78 1231 -28 
Q 1047 22 908 112 
Q 769 203 672 329 
Q 575 456 519 606 
Q 475 719 456 853 
Q 438 988 438 1147 
L 438 2969 
L 922 2969 
L 922 1150 
Q 922 903 988 738 
Q 1063 550 1230 442 
Q 1397 334 1656 334 
Q 1931 334 2098 453 
Q 2266 572 2338 772 
Q 2391 925 2391 1150 
L 2391 2969 
L 2875 2969 
L 2875 1144 
Q 2875 994 2858 864 
Q 2841 734 2803 625 
Q 2747 472 2648 342 
Q 2550 213 2406 119 
Q 2263 25 2073 -26 
Q 1884 -78 1647 -78 
z
" transform="scale(0.015625)"/>
     </defs>
     <use xlink:href="#Corbel-45"/>
     <use xlink:href="#Corbel-6b" x="55.126953"/>
     <use xlink:href="#Corbel-69" x="103.808594"/>
     <use xlink:href="#Corbel-72" x="127.001953"/>
     <use xlink:href="#Corbel-75" x="160.498047"/>
    </g>
   </g>
   <g id="text_18">
    <!-- Chebet -->
    <g transform="translate(252.357025 151.985455)scale(0.08 -0.08)">
     <defs>
      <path id="Corbel-62" d="M 2625 1497 
Q 2625 1850 2542 2070 
Q 2459 2291 2329 2414 
Q 2200 2538 2053 2584 
Q 1906 2631 1759 2631 
Q 1534 2631 1336 2537 
Q 1138 2444 984 2294 
L 984 741 
Q 1028 681 1098 611 
Q 1169 541 1266 480 
Q 1363 419 1483 376 
Q 1603 334 1747 334 
Q 1963 334 2127 418 
Q 2291 503 2402 658 
Q 2513 813 2569 1027 
Q 2625 1241 2625 1497 
z
M 3131 1534 
Q 3131 1119 3018 816 
Q 2906 513 2722 314 
Q 2538 116 2300 19 
Q 2063 -78 1809 -78 
Q 1619 -78 1473 -29 
Q 1328 19 1226 86 
Q 1125 153 1064 222 
Q 1003 291 978 331 
L 969 331 
L 866 0 
L 500 0 
L 500 4525 
L 984 4525 
L 984 2691 
L 994 2691 
Q 1153 2859 1365 2953 
Q 1578 3047 1850 3047 
Q 1975 3047 2120 3019 
Q 2266 2991 2408 2922 
Q 2550 2853 2681 2740 
Q 2813 2628 2913 2461 
Q 3013 2294 3072 2064 
Q 3131 1834 3131 1534 
z
" transform="scale(0.015625)"/>
     </defs>
     <use xlink:href="#Corbel-43"/>
     <use xlink:href="#Corbel-68" x="58.935547"/>
     <use xlink:href="#Corbel-65" x="112.158203"/>
     <use xlink:href="#Corbel-62" x="161.914062"/>
     <use xlink:href="#Corbel-65" x="215.478516"/>
     <use xlink:href="#Corbel-74" x="265.234375"/>
    </g>
   </g>
   <g id="text_19">
    <!-- mass $[kg]$ -->
    <g transform="translate(127.92 15.6)scale(0.12 -0.12)">
     <defs>
      <path id="Corbel-20" transform="scale(0.015625)"/>
      <path id="Cmr10-5b" d="M 756 -1600 
L 756 4800 
L 1631 4800 
L 1631 4544 
L 1013 4544 
L 1013 -1344 
L 1631 -1344 
L 1631 -1600 
L 756 -1600 
z
" transform="scale(0.015625)"/>
      <path id="Cmmi10-6b" d="M 341 116 
Q 341 153 347 172 
L 1275 3872 
Q 1300 3981 1306 4044 
Q 1306 4147 891 4147 
Q 825 4147 825 4231 
Q 828 4247 839 4287 
Q 850 4328 867 4350 
Q 884 4372 916 4372 
L 1778 4441 
L 1797 4441 
Q 1797 4434 1819 4423 
Q 1841 4413 1844 4409 
Q 1856 4378 1856 4359 
L 1184 1684 
Q 1416 1781 1767 2145 
Q 2119 2509 2317 2668 
Q 2516 2828 2816 2828 
Q 2994 2828 3119 2706 
Q 3244 2584 3244 2406 
Q 3244 2294 3197 2198 
Q 3150 2103 3065 2043 
Q 2981 1984 2869 1984 
Q 2766 1984 2695 2048 
Q 2625 2113 2625 2216 
Q 2625 2369 2733 2473 
Q 2841 2578 2994 2578 
Q 2931 2663 2803 2663 
Q 2613 2663 2436 2553 
Q 2259 2444 2054 2239 
Q 1850 2034 1681 1864 
Q 1513 1694 1369 1606 
Q 1747 1563 2025 1408 
Q 2303 1253 2303 934 
Q 2303 869 2278 769 
Q 2222 528 2222 384 
Q 2222 97 2419 97 
Q 2650 97 2770 350 
Q 2891 603 2969 941 
Q 2981 978 3022 978 
L 3097 978 
Q 3122 978 3139 962 
Q 3156 947 3156 922 
Q 3156 916 3150 903 
Q 2909 -72 2406 -72 
Q 2225 -72 2086 12 
Q 1947 97 1872 242 
Q 1797 388 1797 569 
Q 1797 672 1825 781 
Q 1844 856 1844 922 
Q 1844 1169 1625 1297 
Q 1406 1425 1125 1453 
L 800 147 
Q 775 50 703 -11 
Q 631 -72 538 -72 
Q 456 -72 398 -17 
Q 341 38 341 116 
z
" transform="scale(0.015625)"/>
      <path id="Cmmi10-67" d="M 91 -916 
Q 91 -759 198 -642 
Q 306 -525 459 -525 
Q 563 -525 633 -589 
Q 703 -653 703 -756 
Q 703 -872 637 -964 
Q 572 -1056 469 -1094 
Q 641 -1147 1006 -1147 
Q 1300 -1147 1544 -920 
Q 1788 -694 1863 -397 
L 2047 353 
Q 1700 0 1325 0 
Q 1050 0 854 140 
Q 659 281 556 515 
Q 453 750 453 1013 
Q 453 1306 573 1628 
Q 694 1950 911 2225 
Q 1128 2500 1409 2664 
Q 1691 2828 2003 2828 
Q 2191 2828 2341 2725 
Q 2491 2622 2578 2450 
Q 2641 2700 2853 2700 
Q 2934 2700 2990 2651 
Q 3047 2603 3047 2522 
Q 3047 2503 3045 2493 
Q 3044 2484 3041 2472 
L 2309 -434 
Q 2259 -634 2125 -800 
Q 1991 -966 1809 -1077 
Q 1628 -1188 1412 -1250 
Q 1197 -1313 997 -1313 
Q 631 -1313 361 -1242 
Q 91 -1172 91 -916 
z
M 1338 166 
Q 1747 166 2144 728 
L 2497 2125 
Q 2453 2347 2322 2505 
Q 2191 2663 1991 2663 
Q 1778 2663 1589 2489 
Q 1400 2316 1275 2075 
Q 1156 1844 1045 1411 
Q 934 978 934 728 
Q 934 509 1034 337 
Q 1134 166 1338 166 
z
" transform="scale(0.015625)"/>
      <path id="Cmr10-5d" d="M 141 -1600 
L 141 -1344 
L 763 -1344 
L 763 4544 
L 141 4544 
L 141 4800 
L 1019 4800 
L 1019 -1600 
L 141 -1600 
z
" transform="scale(0.015625)"/>
     </defs>
     <use xlink:href="#Corbel-6d"/>
     <use xlink:href="#Corbel-61" transform="translate(82.861328 0)"/>
     <use xlink:href="#Corbel-73" transform="translate(131.835938 0)"/>
     <use xlink:href="#Corbel-73" transform="translate(172.265625 0)"/>
     <use xlink:href="#Corbel-20" transform="translate(212.695312 0)"/>
     <use xlink:href="#Cmr10-5b" transform="translate(232.714844 0)"/>
     <use xlink:href="#Cmmi10-6b" transform="translate(260.400391 0)"/>
     <use xlink:href="#Cmmi10-67" transform="translate(312.402344 0)"/>
     <use xlink:href="#Cmr10-5d" transform="translate(360.107422 0)"/>
    </g>
   </g>
  </g>
 </g>
 <defs>
  <clipPath id="p40e902fad0">
   <rect x="43.2" y="21.6" width="216" height="172.8"/>
  </clipPath>
 </defs>
</svg>
