<?xml version="1.0" encoding="utf-8" standalone="no"?>
<!DOCTYPE svg PUBLIC "-//W3C//DTD SVG 1.1//EN"
  "http://www.w3.org/Graphics/SVG/1.1/DTD/svg11.dtd">
<svg xmlns:xlink="http://www.w3.org/1999/xlink" width="432pt" height="216pt" viewBox="0 0 432 216" xmlns="http://www.w3.org/2000/svg" version="1.1">
 <metadata>
  <rdf:RDF xmlns:dc="http://purl.org/dc/elements/1.1/" xmlns:cc="http://creativecommons.org/ns#" xmlns:rdf="http://www.w3.org/1999/02/22-rdf-syntax-ns#">
   <cc:Work>
    <dc:type rdf:resource="http://purl.org/dc/dcmitype/StillImage"/>
    <dc:date>2023-01-11T11:17:54.968868</dc:date>
    <dc:format>image/svg+xml</dc:format>
    <dc:creator>
     <cc:Agent>
      <dc:title>Matplotlib v3.5.1, https://matplotlib.org/</dc:title>
     </cc:Agent>
    </dc:creator>
   </cc:Work>
  </rdf:RDF>
 </metadata>
 <defs>
  <style type="text/css">*{stroke-linejoin: round; stroke-linecap: butt}</style>
 </defs>
 <g id="figure_1">
  <g id="patch_1">
   <path d="M 0 216 
L 432 216 
L 432 0 
L 0 0 
z
" style="fill: #ffffff"/>
  </g>
  <g id="axes_1">
   <g id="patch_2">
    <path d="M 43.2 194.4 
L 259.2 194.4 
L 259.2 21.6 
L 43.2 21.6 
z
" style="fill: #ffffff"/>
   </g>
   <g id="patch_3">
    <path d="M 53.018182 194.4 
L 113.958621 194.4 
L 113.958621 61.344 
L 53.018182 61.344 
z
" clip-path="url(#pcdda66704e)" style="fill: #666666"/>
   </g>
   <g id="patch_4">
    <path d="M 120.729781 194.4 
L 181.670219 194.4 
L 181.670219 47.52 
L 120.729781 47.52 
z
" clip-path="url(#pcdda66704e)" style="fill: #386cb0"/>
   </g>
   <g id="patch_5">
    <path d="M 188.441379 194.4 
L 249.381818 194.4 
L 249.381818 93.6 
L 188.441379 93.6 
z
" clip-path="url(#pcdda66704e)" style="fill: #7fc97f"/>
   </g>
   <g id="matplotlib.axis_1"/>
   <g id="matplotlib.axis_2">
    <g id="ytick_1">
     <g id="line2d_1">
      <defs>
       <path id="m45f25d03f6" d="M 0 0 
L -3.5 0 
" style="stroke: #000000; stroke-width: 0.8"/>
      </defs>
      <g>
       <use xlink:href="#m45f25d03f6" x="43.2" y="194.4" style="stroke: #000000; stroke-width: 0.8"/>
      </g>
     </g>
     <g id="text_1">
      <!-- 0 -->
      <g transform="translate(31.0625 197.935156)scale(0.1 -0.1)">
       <defs>
        <path id="Corbel-30" d="M 2500 1481 
Q 2500 1750 2439 1964 
Q 2378 2178 2267 2326 
Q 2156 2475 1998 2554 
Q 1841 2634 1644 2634 
Q 1447 2634 1289 2554 
Q 1131 2475 1018 2326 
Q 906 2178 847 1964 
Q 788 1750 788 1481 
Q 788 1216 848 1002 
Q 909 788 1020 641 
Q 1131 494 1290 414 
Q 1450 334 1647 334 
Q 1844 334 2001 414 
Q 2159 494 2270 641 
Q 2381 788 2440 1002 
Q 2500 1216 2500 1481 
z
M 3006 1481 
Q 3006 1150 2914 864 
Q 2822 578 2647 368 
Q 2472 159 2220 40 
Q 1969 -78 1647 -78 
Q 1316 -78 1061 40 
Q 806 159 632 368 
Q 459 578 370 864 
Q 281 1150 281 1481 
Q 281 1816 373 2102 
Q 466 2388 641 2598 
Q 816 2809 1069 2928 
Q 1322 3047 1644 3047 
Q 1972 3047 2226 2928 
Q 2481 2809 2654 2598 
Q 2828 2388 2917 2102 
Q 3006 1816 3006 1481 
z
" transform="scale(0.015625)"/>
       </defs>
       <use xlink:href="#Corbel-30"/>
      </g>
     </g>
    </g>
   </g>
   <g id="patch_6">
    <path d="M 43.2 194.4 
L 259.2 194.4 
" style="fill: none; stroke: #000000; stroke-width: 0.8; stroke-linejoin: miter; stroke-linecap: square"/>
   </g>
   <g id="text_2">
    <!-- 23.1 -->
    <g transform="translate(75.10637 59.073688)scale(0.1 -0.1)">
     <defs>
      <path id="Corbel-32" d="M 1275 428 
Q 1634 447 1922 447 
L 2897 447 
L 2897 0 
L 484 0 
L 484 322 
Q 844 588 1147 817 
Q 1450 1047 1670 1258 
Q 1891 1469 2016 1669 
Q 2141 1869 2141 2072 
Q 2141 2344 1966 2487 
Q 1791 2631 1463 2631 
Q 1219 2628 989 2559 
Q 759 2491 516 2378 
L 516 2791 
Q 694 2894 955 2970 
Q 1216 3047 1528 3047 
Q 1775 3047 1979 2984 
Q 2184 2922 2332 2801 
Q 2481 2681 2562 2504 
Q 2644 2328 2644 2097 
Q 2644 1850 2537 1636 
Q 2431 1422 2247 1225 
Q 2063 1028 1813 836 
Q 1563 644 1275 441 
L 1275 428 
z
" transform="scale(0.015625)"/>
      <path id="Corbel-33" d="M 1744 963 
Q 1909 947 2061 881 
Q 2213 816 2330 694 
Q 2447 572 2517 394 
Q 2588 216 2588 -25 
Q 2588 -313 2491 -547 
Q 2394 -781 2206 -947 
Q 2019 -1113 1742 -1202 
Q 1466 -1291 1103 -1291 
Q 850 -1291 620 -1244 
Q 391 -1197 213 -1106 
L 213 -694 
Q 438 -791 656 -833 
Q 875 -875 1069 -875 
Q 1356 -875 1550 -804 
Q 1744 -734 1861 -618 
Q 1978 -503 2029 -351 
Q 2081 -200 2081 -34 
Q 2081 372 1822 551 
Q 1563 731 1072 731 
L 741 731 
L 741 1147 
L 934 1147 
Q 1203 1147 1395 1208 
Q 1588 1269 1713 1376 
Q 1838 1484 1895 1629 
Q 1953 1775 1953 1944 
Q 1953 2122 1889 2251 
Q 1825 2381 1714 2465 
Q 1603 2550 1453 2590 
Q 1303 2631 1131 2631 
Q 919 2631 703 2581 
Q 488 2531 278 2447 
L 278 2859 
Q 534 2966 767 3006 
Q 1000 3047 1178 3047 
Q 1481 3047 1718 2965 
Q 1956 2884 2120 2737 
Q 2284 2591 2371 2391 
Q 2459 2191 2459 1950 
Q 2459 1791 2421 1641 
Q 2384 1491 2298 1362 
Q 2213 1234 2077 1134 
Q 1941 1034 1744 975 
L 1744 963 
z
" transform="scale(0.015625)"/>
      <path id="Corbel-2e" d="M 547 0 
L 547 609 
L 1144 609 
L 1144 0 
L 547 0 
z
" transform="scale(0.015625)"/>
      <path id="Corbel-31" d="M 1409 447 
L 1409 2453 
L 281 2100 
L 281 2550 
L 1475 2969 
L 1894 2969 
L 1894 447 
L 2713 447 
L 2713 0 
L 413 0 
L 413 447 
L 1409 447 
z
" transform="scale(0.015625)"/>
     </defs>
     <use xlink:href="#Corbel-32"/>
     <use xlink:href="#Corbel-33" x="51.074219"/>
     <use xlink:href="#Corbel-2e" x="96.386719"/>
     <use xlink:href="#Corbel-31" x="122.802734"/>
    </g>
   </g>
   <g id="text_3">
    <!-- 25.5 -->
    <g transform="translate(142.525 45.249687)scale(0.1 -0.1)">
     <defs>
      <path id="Corbel-35" d="M 2744 41 
Q 2744 -247 2639 -490 
Q 2534 -734 2336 -912 
Q 2138 -1091 1853 -1191 
Q 1569 -1291 1206 -1291 
Q 969 -1291 753 -1245 
Q 538 -1200 366 -1106 
L 366 -694 
Q 597 -797 803 -833 
Q 1009 -869 1184 -869 
Q 1450 -869 1647 -798 
Q 1844 -728 1975 -606 
Q 2106 -484 2172 -323 
Q 2238 -163 2238 16 
Q 2238 231 2170 389 
Q 2103 547 1959 651 
Q 1816 756 1591 807 
Q 1366 859 1047 859 
Q 822 859 503 828 
L 800 2969 
L 2741 2969 
L 2741 2522 
L 1228 2522 
L 1053 1281 
Q 1163 1288 1228 1288 
Q 1594 1288 1876 1203 
Q 2159 1119 2351 959 
Q 2544 800 2644 569 
Q 2744 338 2744 41 
z
" transform="scale(0.015625)"/>
     </defs>
     <use xlink:href="#Corbel-32"/>
     <use xlink:href="#Corbel-35" x="51.074219"/>
     <use xlink:href="#Corbel-2e" x="99.072266"/>
     <use xlink:href="#Corbel-35" x="125.488281"/>
    </g>
   </g>
   <g id="text_4">
    <!-- 17.5 -->
    <g transform="translate(210.810036 91.329687)scale(0.1 -0.1)">
     <defs>
      <path id="Corbel-37" d="M 122 2522 
L 122 2969 
L 2572 2969 
L 2572 2644 
L 850 -1209 
L 344 -1209 
L 2013 2522 
L 122 2522 
z
" transform="scale(0.015625)"/>
     </defs>
     <use xlink:href="#Corbel-31"/>
     <use xlink:href="#Corbel-37" x="44.824219"/>
     <use xlink:href="#Corbel-2e" x="87.597656"/>
     <use xlink:href="#Corbel-35" x="114.013672"/>
    </g>
   </g>
   <g id="text_5">
    <!-- BMI $[kg/m^2]$ -->
    <g transform="translate(119.58 15.6)scale(0.12 -0.12)">
     <defs>
      <path id="Corbel-42" d="M 2594 2163 
Q 2788 2134 2942 2059 
Q 3097 1984 3208 1867 
Q 3319 1750 3378 1589 
Q 3438 1428 3438 1222 
Q 3438 1075 3394 914 
Q 3350 753 3248 601 
Q 3147 450 2983 322 
Q 2819 194 2575 113 
Q 2388 50 2159 25 
Q 1931 0 1613 0 
L 531 0 
L 531 4181 
L 1575 4181 
Q 1719 4181 1836 4176 
Q 1953 4172 2051 4162 
Q 2150 4153 2234 4139 
Q 2319 4125 2394 4106 
Q 2591 4053 2752 3961 
Q 2913 3869 3025 3741 
Q 3138 3613 3198 3450 
Q 3259 3288 3259 3097 
Q 3259 2944 3223 2803 
Q 3188 2663 3108 2544 
Q 3028 2425 2901 2331 
Q 2775 2238 2594 2175 
L 2594 2163 
z
M 1816 2372 
Q 1966 2372 2075 2386 
Q 2184 2400 2272 2428 
Q 2506 2506 2614 2672 
Q 2722 2838 2722 3063 
Q 2722 3294 2609 3441 
Q 2497 3588 2256 3659 
Q 2138 3694 1981 3708 
Q 1825 3722 1613 3722 
L 1041 3722 
L 1041 2372 
L 1816 2372 
z
M 1041 1913 
L 1041 459 
L 1656 459 
Q 1875 459 2062 479 
Q 2250 500 2381 544 
Q 2525 591 2625 664 
Q 2725 738 2786 827 
Q 2847 916 2873 1016 
Q 2900 1116 2900 1219 
Q 2900 1338 2872 1442 
Q 2844 1547 2780 1630 
Q 2716 1713 2611 1775 
Q 2506 1838 2350 1872 
Q 2256 1894 2136 1903 
Q 2016 1913 1838 1913 
L 1041 1913 
z
" transform="scale(0.015625)"/>
      <path id="Corbel-4d" d="M 2747 0 
L 2513 0 
L 1459 2497 
Q 1241 3013 1022 3619 
L 997 3619 
Q 1041 2747 1041 2022 
L 1041 0 
L 531 0 
L 531 4181 
L 1266 4181 
L 2250 1816 
Q 2419 1409 2622 838 
L 2638 838 
Q 2863 1472 3009 1816 
L 3994 4181 
L 4728 4181 
L 4728 0 
L 4219 0 
L 4219 2022 
Q 4219 2731 4263 3619 
L 4238 3619 
Q 4006 2978 3800 2497 
L 2747 0 
z
" transform="scale(0.015625)"/>
      <path id="Corbel-49" d="M 531 0 
L 531 4181 
L 1041 4181 
L 1041 0 
L 531 0 
z
" transform="scale(0.015625)"/>
      <path id="Corbel-20" transform="scale(0.015625)"/>
      <path id="Cmr10-5b" d="M 756 -1600 
L 756 4800 
L 1631 4800 
L 1631 4544 
L 1013 4544 
L 1013 -1344 
L 1631 -1344 
L 1631 -1600 
L 756 -1600 
z
" transform="scale(0.015625)"/>
      <path id="Cmmi10-6b" d="M 341 116 
Q 341 153 347 172 
L 1275 3872 
Q 1300 3981 1306 4044 
Q 1306 4147 891 4147 
Q 825 4147 825 4231 
Q 828 4247 839 4287 
Q 850 4328 867 4350 
Q 884 4372 916 4372 
L 1778 4441 
L 1797 4441 
Q 1797 4434 1819 4423 
Q 1841 4413 1844 4409 
Q 1856 4378 1856 4359 
L 1184 1684 
Q 1416 1781 1767 2145 
Q 2119 2509 2317 2668 
Q 2516 2828 2816 2828 
Q 2994 2828 3119 2706 
Q 3244 2584 3244 2406 
Q 3244 2294 3197 2198 
Q 3150 2103 3065 2043 
Q 2981 1984 2869 1984 
Q 2766 1984 2695 2048 
Q 2625 2113 2625 2216 
Q 2625 2369 2733 2473 
Q 2841 2578 2994 2578 
Q 2931 2663 2803 2663 
Q 2613 2663 2436 2553 
Q 2259 2444 2054 2239 
Q 1850 2034 1681 1864 
Q 1513 1694 1369 1606 
Q 1747 1563 2025 1408 
Q 2303 1253 2303 934 
Q 2303 869 2278 769 
Q 2222 528 2222 384 
Q 2222 97 2419 97 
Q 2650 97 2770 350 
Q 2891 603 2969 941 
Q 2981 978 3022 978 
L 3097 978 
Q 3122 978 3139 962 
Q 3156 947 3156 922 
Q 3156 916 3150 903 
Q 2909 -72 2406 -72 
Q 2225 -72 2086 12 
Q 1947 97 1872 242 
Q 1797 388 1797 569 
Q 1797 672 1825 781 
Q 1844 856 1844 922 
Q 1844 1169 1625 1297 
Q 1406 1425 1125 1453 
L 800 147 
Q 775 50 703 -11 
Q 631 -72 538 -72 
Q 456 -72 398 -17 
Q 341 38 341 116 
z
" transform="scale(0.015625)"/>
      <path id="Cmmi10-67" d="M 91 -916 
Q 91 -759 198 -642 
Q 306 -525 459 -525 
Q 563 -525 633 -589 
Q 703 -653 703 -756 
Q 703 -872 637 -964 
Q 572 -1056 469 -1094 
Q 641 -1147 1006 -1147 
Q 1300 -1147 1544 -920 
Q 1788 -694 1863 -397 
L 2047 353 
Q 1700 0 1325 0 
Q 1050 0 854 140 
Q 659 281 556 515 
Q 453 750 453 1013 
Q 453 1306 573 1628 
Q 694 1950 911 2225 
Q 1128 2500 1409 2664 
Q 1691 2828 2003 2828 
Q 2191 2828 2341 2725 
Q 2491 2622 2578 2450 
Q 2641 2700 2853 2700 
Q 2934 2700 2990 2651 
Q 3047 2603 3047 2522 
Q 3047 2503 3045 2493 
Q 3044 2484 3041 2472 
L 2309 -434 
Q 2259 -634 2125 -800 
Q 1991 -966 1809 -1077 
Q 1628 -1188 1412 -1250 
Q 1197 -1313 997 -1313 
Q 631 -1313 361 -1242 
Q 91 -1172 91 -916 
z
M 1338 166 
Q 1747 166 2144 728 
L 2497 2125 
Q 2453 2347 2322 2505 
Q 2191 2663 1991 2663 
Q 1778 2663 1589 2489 
Q 1400 2316 1275 2075 
Q 1156 1844 1045 1411 
Q 934 978 934 728 
Q 934 509 1034 337 
Q 1134 166 1338 166 
z
" transform="scale(0.015625)"/>
      <path id="Cmmi10-3d" d="M 359 -1472 
Q 359 -1453 366 -1447 
L 2591 4722 
Q 2603 4759 2634 4779 
Q 2666 4800 2706 4800 
Q 2763 4800 2798 4765 
Q 2834 4731 2834 4672 
L 2834 4647 
L 609 -1522 
Q 572 -1600 488 -1600 
Q 434 -1600 396 -1562 
Q 359 -1525 359 -1472 
z
" transform="scale(0.015625)"/>
      <path id="Cmmi10-6d" d="M 494 109 
Q 494 147 500 166 
L 978 2075 
Q 1025 2253 1025 2388 
Q 1025 2663 838 2663 
Q 638 2663 541 2423 
Q 444 2184 353 1819 
Q 353 1800 334 1789 
Q 316 1778 300 1778 
L 225 1778 
Q 203 1778 187 1801 
Q 172 1825 172 1844 
Q 241 2122 305 2315 
Q 369 2509 505 2668 
Q 641 2828 844 2828 
Q 1084 2828 1268 2676 
Q 1453 2525 1453 2291 
Q 1644 2541 1900 2684 
Q 2156 2828 2444 2828 
Q 2747 2828 2967 2673 
Q 3188 2519 3188 2234 
Q 3384 2513 3648 2670 
Q 3913 2828 4225 2828 
Q 4556 2828 4757 2648 
Q 4959 2469 4959 2138 
Q 4959 1875 4842 1503 
Q 4725 1131 4550 672 
Q 4459 450 4459 288 
Q 4459 97 4609 97 
Q 4859 97 5025 365 
Q 5191 634 5259 941 
Q 5278 978 5313 978 
L 5388 978 
Q 5413 978 5430 961 
Q 5447 944 5447 922 
Q 5447 916 5441 903 
Q 5353 541 5136 234 
Q 4919 -72 4594 -72 
Q 4369 -72 4209 83 
Q 4050 238 4050 459 
Q 4050 572 4103 709 
Q 4284 1191 4404 1569 
Q 4525 1947 4525 2234 
Q 4525 2413 4453 2538 
Q 4381 2663 4213 2663 
Q 3863 2663 3606 2448 
Q 3350 2234 3163 1881 
Q 3150 1819 3144 1784 
L 2731 141 
Q 2709 53 2632 -9 
Q 2556 -72 2463 -72 
Q 2388 -72 2330 -22 
Q 2272 28 2272 109 
Q 2272 147 2278 166 
L 2688 1797 
Q 2753 2059 2753 2234 
Q 2753 2413 2679 2538 
Q 2606 2663 2431 2663 
Q 2197 2663 2000 2559 
Q 1803 2456 1656 2286 
Q 1509 2116 1388 1881 
L 953 141 
Q 931 53 854 -9 
Q 778 -72 684 -72 
Q 606 -72 550 -22 
Q 494 28 494 109 
z
" transform="scale(0.015625)"/>
      <path id="Cmr10-32" d="M 319 0 
L 319 172 
Q 319 188 331 206 
L 1325 1306 
Q 1550 1550 1690 1715 
Q 1831 1881 1968 2097 
Q 2106 2313 2186 2536 
Q 2266 2759 2266 3009 
Q 2266 3272 2169 3511 
Q 2072 3750 1880 3894 
Q 1688 4038 1416 4038 
Q 1138 4038 916 3870 
Q 694 3703 603 3438 
Q 628 3444 672 3444 
Q 816 3444 917 3347 
Q 1019 3250 1019 3097 
Q 1019 2950 917 2848 
Q 816 2747 672 2747 
Q 522 2747 420 2851 
Q 319 2956 319 3097 
Q 319 3338 409 3548 
Q 500 3759 670 3923 
Q 841 4088 1055 4175 
Q 1269 4263 1509 4263 
Q 1875 4263 2190 4108 
Q 2506 3953 2690 3670 
Q 2875 3388 2875 3009 
Q 2875 2731 2753 2481 
Q 2631 2231 2440 2026 
Q 2250 1822 1953 1562 
Q 1656 1303 1563 1216 
L 838 519 
L 1453 519 
Q 1906 519 2211 526 
Q 2516 534 2534 550 
Q 2609 631 2688 1141 
L 2875 1141 
L 2694 0 
L 319 0 
z
" transform="scale(0.015625)"/>
      <path id="Cmr10-5d" d="M 141 -1600 
L 141 -1344 
L 763 -1344 
L 763 4544 
L 141 4544 
L 141 4800 
L 1019 4800 
L 1019 -1600 
L 141 -1600 
z
" transform="scale(0.015625)"/>
     </defs>
     <use xlink:href="#Corbel-42" transform="translate(0 0.109375)"/>
     <use xlink:href="#Corbel-4d" transform="translate(59.326172 0.109375)"/>
     <use xlink:href="#Corbel-49" transform="translate(141.503906 0.109375)"/>
     <use xlink:href="#Corbel-20" transform="translate(166.064453 0.109375)"/>
     <use xlink:href="#Cmr10-5b" transform="translate(186.083984 0.109375)"/>
     <use xlink:href="#Cmmi10-6b" transform="translate(213.769531 0.109375)"/>
     <use xlink:href="#Cmmi10-67" transform="translate(265.771484 0.109375)"/>
     <use xlink:href="#Cmmi10-3d" transform="translate(313.476562 0.109375)"/>
     <use xlink:href="#Cmmi10-6d" transform="translate(363.476562 0.109375)"/>
     <use xlink:href="#Cmr10-32" transform="translate(457.572812 38.373438)scale(0.7)"/>
     <use xlink:href="#Cmr10-5d" transform="translate(498.950156 0.109375)"/>
    </g>
   </g>
   <g id="legend_1">
    <g id="patch_7">
     <path d="M 266.2 159.021875 
L 378.165625 159.021875 
Q 380.165625 159.021875 380.165625 157.021875 
L 380.165625 115 
Q 380.165625 113 378.165625 113 
L 266.2 113 
Q 264.2 113 264.2 115 
L 264.2 157.021875 
Q 264.2 159.021875 266.2 159.021875 
z
" style="fill: #ffffff; opacity: 0.8; stroke: #cccccc; stroke-linejoin: miter"/>
    </g>
    <g id="patch_8">
     <path d="M 268.2 124.070312 
L 288.2 124.070312 
L 288.2 117.070312 
L 268.2 117.070312 
z
" style="fill: #666666"/>
    </g>
    <g id="text_6">
     <!-- GEN -->
     <g transform="translate(296.2 124.070312)scale(0.1 -0.1)">
      <defs>
       <path id="Corbel-47" d="M 3266 1691 
L 2313 1691 
L 2313 2150 
L 3775 2150 
L 3775 128 
Q 3709 94 3582 58 
Q 3456 22 3293 -9 
Q 3131 -41 2945 -59 
Q 2759 -78 2578 -78 
Q 2041 -78 1630 69 
Q 1219 216 941 484 
Q 663 753 519 1137 
Q 375 1522 375 1994 
Q 375 2506 542 2925 
Q 709 3344 1014 3641 
Q 1319 3938 1742 4098 
Q 2166 4259 2675 4259 
Q 2813 4259 2950 4248 
Q 3088 4238 3213 4217 
Q 3338 4197 3444 4169 
Q 3550 4141 3622 4109 
L 3622 3659 
Q 3434 3722 3190 3764 
Q 2947 3806 2703 3806 
Q 2347 3806 2023 3698 
Q 1700 3591 1453 3372 
Q 1206 3153 1059 2823 
Q 913 2494 913 2050 
Q 913 1616 1033 1300 
Q 1153 984 1373 778 
Q 1594 572 1908 473 
Q 2222 375 2606 375 
Q 2784 375 2957 394 
Q 3131 413 3266 447 
L 3266 1691 
z
" transform="scale(0.015625)"/>
       <path id="Corbel-45" d="M 1041 459 
L 3184 459 
L 3184 0 
L 531 0 
L 531 4181 
L 3069 4181 
L 3069 3722 
L 1041 3722 
L 1041 2372 
L 2844 2372 
L 2844 1913 
L 1041 1913 
L 1041 459 
z
" transform="scale(0.015625)"/>
       <path id="Corbel-4e" d="M 2678 1850 
Q 3063 1297 3438 713 
L 3456 713 
Q 3416 1322 3416 1956 
L 3416 4181 
L 3925 4181 
L 3925 0 
L 3419 0 
L 1778 2331 
Q 1353 2941 1019 3469 
L 1000 3469 
Q 1041 2897 1041 2134 
L 1041 0 
L 531 0 
L 531 4181 
L 1038 4181 
L 2678 1850 
z
" transform="scale(0.015625)"/>
      </defs>
      <use xlink:href="#Corbel-47"/>
      <use xlink:href="#Corbel-45" x="66.796875"/>
      <use xlink:href="#Corbel-4e" x="121.923828"/>
     </g>
    </g>
    <g id="patch_9">
     <path d="M 268.2 138.410937 
L 288.2 138.410937 
L 288.2 131.410937 
L 268.2 131.410937 
z
" style="fill: #386cb0"/>
    </g>
    <g id="text_7">
     <!-- SPRINT_SKEL -->
     <g transform="translate(296.2 138.410937)scale(0.1 -0.1)">
      <defs>
       <path id="Corbel-53" d="M 919 3075 
Q 919 2891 994 2770 
Q 1069 2650 1195 2572 
Q 1322 2494 1489 2444 
Q 1656 2394 1838 2350 
Q 2081 2291 2317 2219 
Q 2553 2147 2737 2020 
Q 2922 1894 3036 1691 
Q 3150 1488 3150 1169 
Q 3150 844 3029 608 
Q 2909 372 2695 220 
Q 2481 69 2184 -4 
Q 1888 -78 1534 -78 
Q 1372 -78 1201 -58 
Q 1031 -38 876 -3 
Q 722 31 597 75 
Q 472 119 400 163 
L 400 628 
Q 513 572 653 525 
Q 794 478 944 445 
Q 1094 413 1247 394 
Q 1400 375 1534 375 
Q 1753 375 1951 412 
Q 2150 450 2300 537 
Q 2450 625 2537 776 
Q 2625 928 2625 1156 
Q 2625 1344 2548 1466 
Q 2472 1588 2344 1667 
Q 2216 1747 2048 1797 
Q 1881 1847 1697 1891 
Q 1453 1947 1220 2017 
Q 988 2088 805 2213 
Q 622 2338 511 2534 
Q 400 2731 400 3038 
Q 400 3356 512 3586 
Q 625 3816 819 3966 
Q 1013 4116 1272 4187 
Q 1531 4259 1825 4259 
Q 2159 4259 2448 4195 
Q 2738 4131 2978 4028 
L 2978 3556 
Q 2719 3666 2442 3734 
Q 2166 3803 1850 3806 
Q 1613 3806 1438 3754 
Q 1263 3703 1147 3608 
Q 1031 3513 975 3377 
Q 919 3241 919 3075 
z
" transform="scale(0.015625)"/>
       <path id="Corbel-50" d="M 1041 0 
L 531 0 
L 531 4181 
L 1691 4181 
Q 1950 4181 2170 4150 
Q 2391 4119 2575 4053 
Q 2950 3919 3144 3651 
Q 3338 3384 3338 2994 
Q 3338 2675 3211 2433 
Q 3084 2191 2843 2028 
Q 2603 1866 2258 1783 
Q 1913 1700 1475 1700 
Q 1266 1700 1041 1719 
L 1041 0 
z
M 1041 2184 
Q 1144 2172 1256 2165 
Q 1369 2159 1469 2159 
Q 1828 2159 2081 2215 
Q 2334 2272 2493 2380 
Q 2653 2488 2725 2642 
Q 2797 2797 2797 2994 
Q 2797 3238 2680 3394 
Q 2563 3550 2347 3631 
Q 2213 3681 2038 3701 
Q 1863 3722 1631 3722 
L 1041 3722 
L 1041 2184 
z
" transform="scale(0.015625)"/>
       <path id="Corbel-52" d="M 1041 1731 
L 1041 0 
L 531 0 
L 531 4181 
L 1616 4181 
Q 1891 4181 2083 4161 
Q 2275 4141 2434 4097 
Q 2872 3978 3103 3692 
Q 3334 3406 3334 2978 
Q 3334 2725 3253 2525 
Q 3172 2325 3025 2178 
Q 2878 2031 2673 1937 
Q 2469 1844 2219 1800 
L 2219 1788 
L 3584 0 
L 2944 0 
L 1656 1731 
L 1041 1731 
z
M 1041 3722 
L 1041 2191 
L 1544 2191 
Q 1778 2191 1943 2206 
Q 2109 2222 2241 2263 
Q 2506 2344 2650 2522 
Q 2794 2700 2794 2988 
Q 2791 3256 2656 3420 
Q 2522 3584 2284 3656 
Q 2172 3691 2015 3706 
Q 1859 3722 1619 3722 
L 1041 3722 
z
" transform="scale(0.015625)"/>
       <path id="Corbel-54" d="M 2031 0 
L 1522 0 
L 1522 3722 
L 125 3722 
L 125 4181 
L 3428 4181 
L 3428 3722 
L 2031 3722 
L 2031 0 
z
" transform="scale(0.015625)"/>
       <path id="Corbel-5f" d="M 0 -444 
L 3125 -444 
L 3125 -859 
L 0 -859 
L 0 -444 
z
" transform="scale(0.015625)"/>
       <path id="Corbel-4b" d="M 531 0 
L 531 4181 
L 1041 4181 
L 1041 2116 
L 1047 2116 
L 2969 4181 
L 3597 4181 
L 1647 2100 
L 3747 0 
L 3084 0 
L 1047 2047 
L 1041 2047 
L 1041 0 
L 531 0 
z
" transform="scale(0.015625)"/>
       <path id="Corbel-4c" d="M 1041 4181 
L 1041 459 
L 3081 459 
L 3081 0 
L 531 0 
L 531 4181 
L 1041 4181 
z
" transform="scale(0.015625)"/>
      </defs>
      <use xlink:href="#Corbel-53"/>
      <use xlink:href="#Corbel-50" x="55.175781"/>
      <use xlink:href="#Corbel-52" x="112.207031"/>
      <use xlink:href="#Corbel-49" x="171.386719"/>
      <use xlink:href="#Corbel-4e" x="195.947266"/>
      <use xlink:href="#Corbel-54" x="265.576172"/>
      <use xlink:href="#Corbel-5f" x="321.09375"/>
      <use xlink:href="#Corbel-53" x="369.921875"/>
      <use xlink:href="#Corbel-4b" x="425.097656"/>
      <use xlink:href="#Corbel-45" x="485.595703"/>
      <use xlink:href="#Corbel-4c" x="540.722656"/>
     </g>
    </g>
    <g id="patch_10">
     <path d="M 268.2 152.751563 
L 288.2 152.751563 
L 288.2 145.751563 
L 268.2 145.751563 
z
" style="fill: #7fc97f"/>
    </g>
    <g id="text_8">
     <!-- MARATHON_SKEL -->
     <g transform="translate(296.2 152.751563)scale(0.1 -0.1)">
      <defs>
       <path id="Corbel-41" d="M 109 0 
L 1813 4181 
L 2253 4181 
L 3956 0 
L 3403 0 
L 2903 1259 
L 1156 1259 
L 656 0 
L 109 0 
z
M 2028 3531 
Q 1750 2750 1494 2113 
L 1338 1719 
L 2722 1719 
L 2566 2113 
Q 2309 2763 2041 3531 
L 2028 3531 
z
" transform="scale(0.015625)"/>
       <path id="Corbel-48" d="M 1041 2372 
L 3231 2372 
L 3231 4181 
L 3741 4181 
L 3741 0 
L 3231 0 
L 3231 1913 
L 1041 1913 
L 1041 0 
L 531 0 
L 531 4181 
L 1041 4181 
L 1041 2372 
z
" transform="scale(0.015625)"/>
       <path id="Corbel-4f" d="M 3763 2088 
Q 3763 2509 3653 2831 
Q 3544 3153 3351 3368 
Q 3159 3584 2898 3695 
Q 2638 3806 2338 3806 
Q 2038 3806 1777 3695 
Q 1516 3584 1323 3368 
Q 1131 3153 1022 2831 
Q 913 2509 913 2088 
Q 913 1666 1023 1345 
Q 1134 1025 1326 809 
Q 1519 594 1780 484 
Q 2041 375 2344 375 
Q 2644 375 2901 484 
Q 3159 594 3351 809 
Q 3544 1025 3653 1345 
Q 3763 1666 3763 2088 
z
M 4300 2088 
Q 4300 1613 4162 1216 
Q 4025 819 3769 531 
Q 3513 244 3152 83 
Q 2791 -78 2344 -78 
Q 1881 -78 1515 83 
Q 1150 244 897 531 
Q 644 819 509 1216 
Q 375 1613 375 2088 
Q 375 2566 514 2964 
Q 653 3363 908 3650 
Q 1163 3938 1525 4098 
Q 1888 4259 2338 4259 
Q 2797 4259 3161 4098 
Q 3525 3938 3778 3650 
Q 4031 3363 4165 2964 
Q 4300 2566 4300 2088 
z
" transform="scale(0.015625)"/>
      </defs>
      <use xlink:href="#Corbel-4d"/>
      <use xlink:href="#Corbel-41" x="82.177734"/>
      <use xlink:href="#Corbel-52" x="145.703125"/>
      <use xlink:href="#Corbel-41" x="204.882812"/>
      <use xlink:href="#Corbel-54" x="263.033203"/>
      <use xlink:href="#Corbel-48" x="318.550781"/>
      <use xlink:href="#Corbel-4f" x="385.298828"/>
      <use xlink:href="#Corbel-4e" x="458.345703"/>
      <use xlink:href="#Corbel-5f" x="527.974609"/>
      <use xlink:href="#Corbel-53" x="576.802734"/>
      <use xlink:href="#Corbel-4b" x="631.978516"/>
      <use xlink:href="#Corbel-45" x="692.476562"/>
      <use xlink:href="#Corbel-4c" x="747.603516"/>
     </g>
    </g>
   </g>
  </g>
 </g>
 <defs>
  <clipPath id="pcdda66704e">
   <rect x="43.2" y="21.6" width="216" height="172.8"/>
  </clipPath>
 </defs>
</svg>
